<svg width="20" height="20" viewBox="0 0 20 20" fill="none" xmlns="http://www.w3.org/2000/svg">
<path d="M9.75 0C4.37391 0 0 4.37391 0 9.75C0 15.1261 4.37391 19.5 9.75 19.5C15.1261 19.5 19.5 15.1261 19.5 9.75C19.5 4.37391 15.1261 0 9.75 0ZM15.375 8.53828C15.375 8.64544 15.3324 8.74822 15.2567 8.824C15.1809 8.89977 15.0781 8.94234 14.9709 8.94234H12.18C12.1001 8.94247 12.0219 8.91885 11.9554 8.87448C11.8889 8.83012 11.837 8.767 11.8065 8.69313C11.7759 8.61927 11.7679 8.53799 11.7836 8.45959C11.7993 8.3812 11.8379 8.30923 11.8945 8.25281L12.9338 7.21359L12.6713 6.90844C12.2017 6.42099 11.6187 6.05749 10.9743 5.85044C10.33 5.64339 9.64436 5.59923 8.97877 5.72193C8.31317 5.84462 7.68835 6.13034 7.16017 6.55354C6.63199 6.97674 6.21691 7.52422 5.95204 8.14705C5.68718 8.76988 5.58077 9.44863 5.64234 10.1226C5.70392 10.7966 5.93155 11.4449 6.30489 12.0094C6.67823 12.5739 7.18564 13.0371 7.78176 13.3576C8.37788 13.6781 9.04413 13.8459 9.72094 13.8459C10.568 13.8451 11.394 13.5823 12.0857 13.0934C12.7774 12.6046 13.3009 11.9136 13.5844 11.1155C13.6172 11.0225 13.668 10.9369 13.734 10.8636C13.7999 10.7903 13.8796 10.7307 13.9685 10.6882C14.0575 10.6457 14.1539 10.6211 14.2524 10.6159C14.3508 10.6107 14.4493 10.6249 14.5423 10.6577C14.6352 10.6906 14.7208 10.7414 14.7941 10.8073C14.8674 10.8732 14.927 10.9529 14.9695 11.0419C15.012 11.1308 15.0366 11.2273 15.0418 11.3257C15.0471 11.4242 15.0328 11.5227 15 11.6156C14.6582 12.5831 14.057 13.4379 13.2621 14.0867C12.4672 14.7355 11.5093 15.1534 10.493 15.2946C9.47675 15.4358 8.44121 15.2949 7.49959 14.8873C6.55797 14.4797 5.74651 13.8211 5.1539 12.9835C4.5613 12.1459 4.21034 11.1615 4.1394 10.1379C4.06846 9.11431 4.28026 8.09092 4.75166 7.17957C5.22306 6.26822 5.93591 5.50399 6.8123 4.97041C7.68869 4.43682 8.69489 4.15442 9.72094 4.15406C10.4782 4.15117 11.228 4.30335 11.9242 4.60123C12.6204 4.89911 13.2483 5.33637 13.7691 5.88609L13.7953 5.91516L13.9973 6.14953L14.6855 5.46141C14.7221 5.42391 14.7659 5.39408 14.8141 5.37364C14.8624 5.3532 14.9143 5.34256 14.9667 5.34234C15.0201 5.34191 15.073 5.35206 15.1224 5.37221C15.1718 5.39235 15.2167 5.4221 15.2546 5.45972C15.2924 5.49734 15.3224 5.54209 15.3428 5.59138C15.3633 5.64067 15.3737 5.69352 15.3736 5.74688L15.375 8.53828Z" fill="#059669"/>
</svg>
