<svg width="18" height="16" viewBox="0 0 18 16" fill="none" xmlns="http://www.w3.org/2000/svg">
<path d="M0.75 1.74823V6.24823M0.75 6.24823H5.25M0.75 6.24823L4.23 2.97823C5.03606 2.17176 6.03328 1.58263 7.12861 1.26581C8.22393 0.948982 9.38167 0.914789 10.4938 1.16642C11.6059 1.41805 12.6361 1.9473 13.4884 2.70479C14.3407 3.46228 14.9871 4.42331 15.3675 5.49823M17.25 13.7482V9.24823M17.25 9.24823H12.75M17.25 9.24823L13.77 12.5182C12.9639 13.3247 11.9667 13.9138 10.8714 14.2306C9.77607 14.5475 8.61833 14.5817 7.50621 14.33C6.3941 14.0784 5.36385 13.5491 4.5116 12.7917C3.65935 12.0342 3.01288 11.0731 2.6325 9.99823" stroke="#1E1E1E" stroke-width="2" stroke-linecap="round" stroke-linejoin="round"/>
</svg>
