<svg width="20" height="14" viewBox="0 0 20 14" fill="none" xmlns="http://www.w3.org/2000/svg">
<path d="M19.0781 5.84375C17.2969 3.1875 14.8281 0.5 9.95312 0.5C5.07812 0.5 2.60937 3.1875 0.828125 5.84375C0.390625 6.5 0.390625 7.375 0.828125 8.03125C2.60937 10.6562 5.07812 13.375 9.95312 13.375C14.8281 13.375 17.2969 10.6562 19.0781 8.03125C19.5156 7.34375 19.5156 6.5 19.0781 5.84375ZM17.9219 7.25C15.6406 10.5938 13.3594 11.9687 9.95312 11.9687C6.54688 11.9687 4.26563 10.5938 1.98438 7.25C1.85937 7.0625 1.85937 6.8125 1.98438 6.625C4.26563 3.28125 6.54688 1.90625 9.95312 1.90625C13.3594 1.90625 15.6406 3.28125 17.9219 6.625C18.0156 6.8125 18.0156 7.0625 17.9219 7.25Z" fill="#5475E5" stroke="#0B76B7"/>
</svg>
