<svg width="28" height="24" viewBox="0 0 28 24" fill="none" xmlns="http://www.w3.org/2000/svg">
<path d="M0 23.75L13.75 0L27.5 23.75H0ZM13.75 20C14.1042 20 14.4013 19.88 14.6413 19.64C14.8813 19.4 15.0008 19.1033 15 18.75C14.9992 18.3967 14.8792 18.1 14.64 17.86C14.4008 17.62 14.1042 17.5 13.75 17.5C13.3958 17.5 13.0992 17.62 12.86 17.86C12.6208 18.1 12.5008 18.3967 12.5 18.75C12.4992 19.1033 12.6192 19.4004 12.86 19.6412C13.1008 19.8821 13.3975 20.0017 13.75 20ZM12.5 16.25H15V10H12.5V16.25Z" fill="#FF5858"/>
</svg>
