<svg width="44" height="50" viewBox="0 0 44 50" fill="none" xmlns="http://www.w3.org/2000/svg">
<path d="M37.7445 13.2813H32.5883L31.3508 10.4687C30.457 8.51562 28.7383 7.26562 26.8133 7.26562H17.1883C15.2633 7.26562 13.5445 8.51562 12.6508 10.4687L11.4133 13.2813H6.25703C3.50703 13.2813 1.23828 15.8594 1.23828 18.9844V36.875C1.23828 40 3.50703 42.5781 6.25703 42.5781H37.7445C40.4945 42.5781 42.7633 40 42.7633 36.875V19.0625C42.832 15.8594 40.5633 13.2813 37.7445 13.2813ZM39.7383 36.9531C39.7383 38.2031 38.8445 39.1406 37.8133 39.1406H6.25703C5.15703 39.1406 4.33203 38.125 4.33203 36.9531V19.0625C4.33203 17.8125 5.22578 16.875 6.25703 16.875H12.3758C12.9945 16.875 13.4758 16.4844 13.7508 15.9375L15.4008 12.1875C15.7445 11.4063 16.432 10.9375 17.1195 10.9375H26.8133C27.5695 10.9375 28.257 11.4063 28.532 12.1875L30.182 15.9375C30.457 16.5625 31.007 16.875 31.557 16.875H37.6758C38.7758 16.875 39.6008 17.8906 39.6008 19.0625V36.9531H39.7383Z" fill="#111928"/>
<path d="M22.0016 19.2969C18.2203 19.2969 15.1953 22.7344 15.1953 27.0312C15.1953 31.3281 18.2203 34.7656 22.0016 34.7656C25.7828 34.7656 28.8078 31.3281 28.8078 27.0312C28.8078 22.7344 25.7828 19.2969 22.0016 19.2969ZM22.0016 31.1719C19.9391 31.1719 18.2891 29.2969 18.2891 26.9531C18.2891 24.6094 19.9391 22.7344 22.0016 22.7344C24.0641 22.7344 25.7141 24.6094 25.7141 26.9531C25.7141 29.2969 24.0641 31.1719 22.0016 31.1719Z" fill="#111928"/>
<path d="M11.482 19.2969H7.97578C7.15078 19.2969 6.39453 20.0781 6.39453 21.0938C6.39453 22.1094 7.08203 22.8906 7.97578 22.8906H11.482C12.307 22.8906 13.0633 22.1094 13.0633 21.0938C13.0633 20.0781 12.3758 19.2969 11.482 19.2969Z" fill="#111928"/>
</svg>
