<svg width="18" height="18" viewBox="0 0 18 18" fill="none" xmlns="http://www.w3.org/2000/svg">
<path d="M9.83594 8.83594L17.4609 1.21094C17.7422 0.929687 17.7422 0.492187 17.4609 0.210937C17.1797 -0.0703125 16.7422 -0.0703125 16.4609 0.210937L8.83594 7.83594L1.21094 0.210937C0.929687 -0.0703125 0.492187 -0.0703125 0.210937 0.210937C-0.0703125 0.492187 -0.0703125 0.929687 0.210937 1.21094L7.83594 8.83594L0.210937 16.4609C-0.0703125 16.7422 -0.0703125 17.1797 0.210937 17.4609C0.335937 17.5859 0.523437 17.6797 0.710937 17.6797C0.898437 17.6797 1.08594 17.6172 1.21094 17.4609L8.83594 9.83594L16.4609 17.4609C16.5859 17.5859 16.7734 17.6797 16.9609 17.6797C17.1484 17.6797 17.3359 17.6172 17.4609 17.4609C17.7422 17.1797 17.7422 16.7422 17.4609 16.4609L9.83594 8.83594Z" fill="black"/>
</svg>
