<?xml version="1.0" encoding="UTF-8"?>
<svg version="1.1" xmlns="http://www.w3.org/2000/svg" width="512" height="512">
<path d="M0 0 C1.44736384 -0.01125335 1.44736384 -0.01125335 2.92396736 -0.02273405 C6.1419579 -0.04398576 9.35958136 -0.04395083 12.57763672 -0.04379272 C14.8909359 -0.05441121 17.20422979 -0.06624227 19.51751709 -0.07919312 C25.79012322 -0.10992916 32.06261528 -0.12110958 38.335289 -0.12683535 C42.25513502 -0.13119263 46.17495156 -0.13956959 50.0947876 -0.14933395 C60.95872797 -0.17612257 71.8226392 -0.19877912 82.68661499 -0.20121193 C83.72770918 -0.20144529 83.72770918 -0.20144529 84.78983557 -0.20168336 C86.19668579 -0.20197441 87.60353601 -0.20225978 89.01038623 -0.20253952 C90.05784514 -0.2027538 90.05784514 -0.2027538 91.12646484 -0.20297241 C91.82562743 -0.20311208 92.52479002 -0.20325175 93.24513936 -0.20339565 C104.58168281 -0.206533 115.91784476 -0.243152 127.25426221 -0.29460867 C138.90727072 -0.34707907 150.56007273 -0.37270068 162.21320152 -0.37276304 C168.75058417 -0.37330134 175.2874921 -0.38491402 181.82476807 -0.42393875 C187.97114672 -0.45976278 194.11663921 -0.46210696 200.26306915 -0.43876648 C202.51731359 -0.43590336 204.77160993 -0.44498451 207.02574921 -0.46694565 C210.10642988 -0.49509648 213.18401486 -0.47995473 216.26464844 -0.45410156 C217.15415255 -0.47244509 218.04365665 -0.49078862 218.96011543 -0.50968802 C225.080679 -0.39369862 228.05840064 1.34010537 232.35723019 5.67414552 C235.17296755 8.42425648 238.50346254 10.11684634 241.92529297 12.00869751 C252.64540267 18.2302833 262.52301497 25.40110365 272.13232422 33.22036743 C273.45183767 34.29286428 273.45183767 34.29286428 274.79800797 35.38702774 C297.77679867 54.55151121 309.7821511 75.38815466 312.64941406 104.96939087 C314.9581863 131.27142641 314.57278857 157.73196807 313.81982422 184.09536743 C313.78833534 185.22273835 313.75684647 186.35010926 313.72440338 187.51164293 C312.87839506 217.18650111 311.33143299 246.80342364 309.13232422 276.40786743 C309.82206833 276.46786423 310.51181244 276.52786102 311.22245789 276.5896759 C312.12559219 276.67300674 313.0287265 276.75633759 313.95922852 276.8421936 C314.85522263 276.9228154 315.75121674 277.00343719 316.67436218 277.08650208 C321.17274017 277.67464088 324.42866637 279.93630293 328.13232422 282.40786743 C329.01919922 282.98536743 329.90607422 283.56286743 330.81982422 284.15786743 C336.40986722 289.59682819 340.65185659 296.344617 341.39974976 304.2260437 C341.40737335 305.19515686 341.41499695 306.16427002 341.42285156 307.16275024 C341.43561127 308.271203 341.44837097 309.37965576 341.46151733 310.521698 C341.4648558 312.29839874 341.4648558 312.29839874 341.46826172 314.11099243 C341.47491852 315.34396057 341.48157532 316.57692871 341.48843384 317.84725952 C341.49854502 320.45289624 341.50325133 323.05855877 341.50292969 325.66421509 C341.50729354 329.62998678 341.54360668 333.59463689 341.58154297 337.56021118 C341.58741342 340.09796781 341.59138128 342.63572971 341.59326172 345.17349243 C341.60763275 346.34986267 341.62200378 347.52623291 341.6368103 348.73825073 C341.57993923 359.09958323 339.18163706 367.08592004 331.97607422 374.65786743 C325.43035189 380.87075642 318.32930177 384.40786743 309.13232422 384.40786743 C309.1585083 385.44604614 309.18469238 386.48422485 309.21166992 387.55386353 C309.30297181 391.44882186 309.35985979 395.34368802 309.40698242 399.2394104 C309.43194633 400.91730721 309.46593041 402.5950973 309.50952148 404.27261353 C309.98191157 422.9348006 309.98191157 422.9348006 304.13232422 430.40786743 C296.22313815 437.92231105 288.65905588 438.70393534 278.08892822 438.67529297 C276.86579162 438.67982408 275.64265502 438.68435519 274.38245368 438.68902361 C270.99477331 438.69948526 267.60730544 438.70099494 264.21962404 438.69863486 C260.56304693 438.69822631 256.90650134 438.70926952 253.24993896 438.71875 C246.08851886 438.73535312 238.92713168 438.74085925 231.76569393 438.74197476 C225.94307251 438.74292562 220.12046193 438.74703783 214.29784393 438.75337601 C197.78268543 438.77098706 181.2675529 438.78021517 164.75238493 438.77871506 C163.86230591 438.77863515 162.97222689 438.77855523 162.05517578 438.7784729 C160.7184233 438.77835026 160.7184233 438.77835026 159.35466573 438.77822514 C144.91553788 438.77741243 130.47651439 438.79654673 116.03741673 438.82474963 C101.20462828 438.85349242 86.3718907 438.86728914 71.53907371 438.86556208 C63.21434099 438.86489863 54.88971767 438.87037118 46.56501007 438.89191818 C39.47639865 438.91014842 32.38794619 438.9144623 25.29932144 438.90089934 C21.68485398 438.89437872 18.07069133 438.8942192 14.45625305 438.91160583 C10.53191332 438.93028845 6.60801632 438.91775813 2.68365479 438.90234375 C1.54959143 438.91263088 0.41552807 438.922918 -0.75290084 438.93351686 C-8.7633133 438.86409122 -15.89211528 437.55518616 -22.30517578 432.47817993 C-22.82080078 431.83622681 -23.33642578 431.19427368 -23.86767578 430.53286743 C-24.40392578 429.89607056 -24.94017578 429.25927368 -25.49267578 428.60317993 C-28.81796882 423.2940473 -29.14646985 418.06486654 -29.06298828 411.94692993 C-29.06015839 411.156362 -29.05732849 410.36579407 -29.05441284 409.55126953 C-29.04328533 407.04497659 -29.01819504 404.53905098 -28.99267578 402.03286743 C-28.98263636 400.32584137 -28.97351219 398.61880967 -28.96533203 396.91177368 C-28.94337041 392.74366503 -28.9088925 388.57582835 -28.86767578 384.40786743 C-29.45863037 384.35960815 -30.04958496 384.31134888 -30.65844727 384.2616272 C-40.44640797 383.3418525 -47.41769316 379.751763 -54.17626953 372.52896118 C-58.95867454 366.5316265 -60.96795223 360.47553252 -61.04467773 352.86416626 C-61.05751297 351.75233475 -61.07034821 350.64050323 -61.08357239 349.49497986 C-61.09095932 348.29705307 -61.09834625 347.09912628 -61.10595703 345.86489868 C-61.11402878 344.62672897 -61.12210052 343.38855927 -61.13041687 342.11286926 C-61.14424761 339.49108272 -61.15497428 336.86927826 -61.1628418 334.24746704 C-61.17168718 331.57145314 -61.19252951 328.89596097 -61.22436523 326.22012329 C-61.26711315 322.35155636 -61.28322255 318.48367273 -61.29345703 314.61489868 C-61.31971916 312.83319023 -61.31971916 312.83319023 -61.34651184 311.01548767 C-61.32803406 303.89365565 -60.40806323 298.61973269 -56.86767578 292.40786743 C-56.42166016 291.60993774 -55.97564453 290.81200806 -55.51611328 289.98989868 C-50.55835577 283.10074484 -43.18781532 278.29880824 -34.86767578 276.40786743 C-32.86782743 276.38323876 -30.86748503 276.38024576 -28.86767578 276.40786743 C-28.86919466 275.86536474 -28.87071354 275.32286205 -28.87227845 274.76391989 C-28.96182715 242.59744411 -29.03044037 210.43100139 -29.0719371 178.26442966 C-29.07693981 174.40053957 -29.08211711 170.53664973 -29.08740234 166.67276001 C-29.08845159 165.90354219 -29.08950083 165.13432438 -29.09058186 164.34179693 C-29.10797823 151.89330776 -29.13951166 139.44489261 -29.17628697 126.99644733 C-29.21371782 114.21935828 -29.23591616 101.44230795 -29.24402976 88.66516632 C-29.2495131 80.78351695 -29.26681997 72.90207684 -29.29934165 65.02049189 C-29.32302233 58.97275505 -29.32549022 52.92519751 -29.32010651 46.87740898 C-29.32120641 44.39945056 -29.32915576 41.92148417 -29.34449768 39.443573 C-29.36443581 36.05703729 -29.35960011 32.67139268 -29.34869385 29.28483582 C-29.36034521 28.30718673 -29.37199658 27.32953764 -29.38400102 26.32226282 C-29.32278862 19.27704852 -28.02981338 12.93862509 -23.20549226 7.55191809 C-16.52324169 1.15906522 -8.8811916 -0.03957515 0 0 Z " fill="#DCDDDF" transform="translate(115.86767578125,36.592132568359375)"/>
<path d="M0 0 C1.83745163 -0.00967334 1.83745163 -0.00967334 3.7120235 -0.0195421 C5.06306801 -0.01660012 6.41411212 -0.01346471 7.76515579 -0.01015663 C9.20688974 -0.01389448 10.64862167 -0.01849654 12.09035039 -0.02388728 C16.04806228 -0.03611619 20.00568963 -0.03585694 23.9634161 -0.03349853 C28.23349369 -0.03309033 32.5035442 -0.04412981 36.77360916 -0.05361366 C45.13820193 -0.07022427 53.50276651 -0.07572325 61.86737439 -0.07683842 C68.66730269 -0.07778891 75.4672217 -0.08189925 82.26714706 -0.08823967 C101.5491812 -0.10585261 120.83119308 -0.11507851 140.11323532 -0.11357872 C141.67237852 -0.11345885 141.67237852 -0.11345885 143.26301956 -0.11333656 C144.30371862 -0.1132548 145.34441768 -0.11317304 146.41665307 -0.1130888 C163.28072188 -0.11227599 180.14470136 -0.13141231 197.00874433 -0.1596133 C214.32755899 -0.18834606 231.64633009 -0.20215336 248.96516919 -0.20042574 C258.68717931 -0.19976196 268.4090958 -0.20524929 278.13108444 -0.22678185 C286.40911746 -0.24499884 294.68701439 -0.24933675 302.96505877 -0.235763 C307.18709016 -0.22923583 311.4088605 -0.22910693 315.630867 -0.2464695 C319.49992803 -0.26221668 323.36852141 -0.25932012 327.23757115 -0.24190123 C328.63325572 -0.23883492 330.02897534 -0.24244987 331.42461857 -0.25362138 C343.20619132 -0.34164181 353.15146011 1.82708829 361.82356644 10.25726891 C366.93239348 16.58086148 370.0491174 22.75233997 370.11409378 31.01215172 C370.12685349 32.12060448 370.13961319 33.22905724 370.15275955 34.37109947 C370.15609802 36.14780022 370.15609802 36.14780022 370.15950394 37.96039391 C370.16616074 39.19336205 370.17281754 40.42633018 370.17967606 41.696661 C370.18978724 44.30229771 370.19449355 46.90796025 370.19417191 49.51361656 C370.19853576 53.47938825 370.23484889 57.44403836 370.27278519 61.40961266 C370.27865563 63.94736929 370.2826235 66.48513118 370.28450394 69.02289391 C370.29887497 70.19926414 370.313246 71.37563438 370.32805252 72.58765221 C370.27118145 82.9489847 367.87287928 90.93532151 360.66731644 98.50726891 C354.12159411 104.7201579 347.02054399 108.25726891 337.82356644 108.25726891 C337.84975052 109.29544762 337.8759346 110.33362633 337.90291214 111.403265 C337.99421402 115.29822333 338.05110201 119.19308949 338.09822464 123.08881187 C338.12318855 124.76670868 338.15717263 126.44449877 338.2007637 128.122015 C338.67315379 146.78420207 338.67315379 146.78420207 332.82356644 154.25726891 C324.91438036 161.77171252 317.35029809 162.55333682 306.78017044 162.52469444 C305.55703384 162.52922556 304.33389724 162.53375667 303.0736959 162.53842509 C299.68601553 162.54888673 296.29854766 162.55039641 292.91086626 162.54803634 C289.25428914 162.54762779 285.59774356 162.55867099 281.94118118 162.56815147 C274.77976108 162.5847546 267.6183739 162.59026072 260.45693615 162.59137623 C254.63431472 162.59232709 248.81170415 162.59643931 242.98908615 162.60277748 C226.47392764 162.62038853 209.95879511 162.62961664 193.44362715 162.62811653 C192.55354813 162.62803662 191.66346911 162.62795671 190.746418 162.62787437 C189.40966552 162.62775173 189.40966552 162.62775173 188.04590794 162.62762661 C173.6067801 162.6268139 159.16775661 162.6459482 144.72865894 162.67415111 C129.8958705 162.70289389 115.06313292 162.71669061 100.23031592 162.71496356 C91.90558321 162.7143001 83.58095989 162.71977265 75.25625229 162.74131966 C68.16764086 162.75954989 61.0791884 162.76386377 53.99056366 162.75030081 C50.3760962 162.7437802 46.76193355 162.74362068 43.14749527 162.76100731 C39.22315554 162.77968992 35.29925853 162.7671596 31.374897 162.75174522 C30.24083365 162.76203235 29.10677029 162.77231948 27.93834138 162.78291833 C19.92792892 162.71349269 12.79912693 161.40458763 6.38606644 156.32758141 C5.87044144 155.68562828 5.35481644 155.04367516 4.82356644 154.38226891 C4.28731644 153.74547203 3.75106644 153.10867516 3.19856644 152.45258141 C-0.1267266 147.14344877 -0.45522763 141.91426801 -0.37174606 135.79633141 C-0.36891617 135.00576347 -0.36608627 134.21519554 -0.36317062 133.40067101 C-0.35204312 130.89437807 -0.32695282 128.38845246 -0.30143356 125.88226891 C-0.29139414 124.17524284 -0.28226997 122.46821114 -0.27408981 120.76117516 C-0.25212819 116.5930665 -0.21765028 112.42522982 -0.17643356 108.25726891 C-0.76738815 108.20900963 -1.35834274 108.16075035 -1.96720505 108.11102867 C-11.75516575 107.19125397 -18.72645094 103.60116448 -25.48502731 96.37836266 C-30.26743232 90.38102797 -32.27671001 84.324934 -32.35343552 76.71356773 C-32.36627075 75.60173622 -32.37910599 74.48990471 -32.39233017 73.34438133 C-32.3997171 72.14645454 -32.40710403 70.94852776 -32.41471481 69.71430016 C-32.42278656 68.47613045 -32.43085831 67.23796074 -32.43917465 65.96227074 C-32.45300539 63.3404842 -32.46373206 60.71867973 -32.47159958 58.09686852 C-32.48044497 55.42085462 -32.50128729 52.74536245 -32.53312302 50.06952477 C-32.57587093 46.20095784 -32.59198033 42.3330742 -32.60221481 38.46430016 C-32.6197229 37.27649452 -32.63723099 36.08868889 -32.65526962 34.86488914 C-32.63679184 27.74305712 -31.71682101 22.46913416 -28.17643356 16.25726891 C-27.50741013 15.06037437 -27.50741013 15.06037437 -26.82487106 13.83930016 C-20.53743576 5.10246521 -10.76897638 0.01437387 0 0 Z " fill="#28D06B" transform="translate(87.17643356323242,312.74273109436035)"/>
<path d="M0 0 C111.54 0 223.08 0 338 0 C338 37 338 37 333 47 C324.68940475 54.38719578 317.82336167 55.29687171 306.956604 55.26742554 C305.7334674 55.27195665 304.51033081 55.27648776 303.25012946 55.28115618 C299.86244909 55.29161782 296.47498122 55.2931275 293.08729982 55.29076743 C289.43072271 55.29035888 285.77417713 55.30140208 282.11761475 55.31088257 C274.95619464 55.32748569 267.79480746 55.33299182 260.63336971 55.33410732 C254.81074829 55.33505819 248.98813771 55.3391704 243.16551971 55.34550858 C226.65036121 55.36311963 210.13522868 55.37234774 193.62006071 55.37084763 C192.72998169 55.37076772 191.83990267 55.3706878 190.92285156 55.37060547 C189.58609909 55.37048283 189.58609909 55.37048283 188.22234151 55.37035771 C173.78321366 55.36954499 159.34419017 55.3886793 144.90509251 55.4168822 C130.07230406 55.44562499 115.23956649 55.45942171 100.40674949 55.45769465 C92.08201677 55.4570312 83.75739345 55.46250375 75.43268585 55.48405075 C68.34407443 55.50228098 61.25562197 55.50659486 54.16699722 55.4930319 C50.55252976 55.48651129 46.93836711 55.48635177 43.32392883 55.5037384 C39.3995891 55.52242102 35.4756921 55.5098907 31.55133057 55.49447632 C30.41726721 55.50476344 29.28320385 55.51505057 28.11477494 55.52564943 C20.10436248 55.45622379 12.9755605 54.14731873 6.5625 49.0703125 C6.046875 48.42835938 5.53125 47.78640625 5 47.125 C4.195625 46.16980469 4.195625 46.16980469 3.375 45.1953125 C-4.72831846 32.25762791 0 12.65868115 0 0 Z " fill="#DEDEE0" transform="translate(87,420)"/>
<path d="M0 0 C1.0174744 -0.00701996 1.0174744 -0.00701996 2.05550385 -0.01418173 C4.33342412 -0.02616884 6.6107469 -0.01666046 8.88867188 -0.00723267 C10.51969759 -0.01129673 12.15072055 -0.01663769 13.78173828 -0.02316284 C18.21557337 -0.03686192 22.6491995 -0.03152715 27.08303833 -0.02202559 C31.71812513 -0.01444238 36.35319376 -0.02147086 40.98828125 -0.02618408 C48.77281921 -0.03164555 56.55727186 -0.02443978 64.34179688 -0.01016235 C73.34809964 0.00616492 82.35419869 0.00087669 91.36049652 -0.01564157 C99.08624773 -0.02924532 106.81193753 -0.03118155 114.53769684 -0.02332556 C119.15496664 -0.01864292 123.77214061 -0.01804039 128.3894043 -0.02793503 C132.72981323 -0.03658628 137.06995893 -0.03061667 141.41033936 -0.01325226 C143.00550906 -0.00927753 144.60070083 -0.01043826 146.19586182 -0.01704025 C148.36915725 -0.02520729 150.54160285 -0.01499405 152.71484375 0 C153.932323 0.00113108 155.14980225 0.00226215 156.4041748 0.00342751 C159.35742188 0.38095093 159.35742188 0.38095093 161.24877357 1.77670097 C162.70809977 3.88839318 162.73781631 5.24717401 162.74560547 7.80477905 C162.75506195 8.69580322 162.76451843 9.58682739 162.77426147 10.50485229 C162.76515244 11.94398987 162.76515244 11.94398987 162.75585938 13.41220093 C162.76016464 14.89339417 162.76016464 14.89339417 162.76455688 16.4045105 C162.76659862 18.49252902 162.76106112 20.58056663 162.74853516 22.66854858 C162.73248338 25.86868976 162.74838047 29.06756789 162.76757812 32.26766968 C162.76559571 34.29501622 162.76175208 36.32236198 162.75585938 38.34970093 C162.76193207 39.30912598 162.76800476 40.26855103 162.77426147 41.25704956 C162.76007675 42.59358582 162.76007675 42.59358582 162.74560547 43.9571228 C162.74321869 44.74083252 162.74083191 45.52454224 162.7383728 46.33200073 C162.23563693 49.03597307 161.57003082 49.7452167 159.35742188 51.38095093 C156.42258549 51.76126766 156.42258549 51.76126766 152.75953674 51.76863098 C152.08600959 51.77401652 151.41248244 51.77940206 150.71854538 51.78495079 C148.45679152 51.79928306 146.1956186 51.79211404 143.93383789 51.78500366 C142.31428556 51.79070452 140.69473725 51.79766767 139.07519531 51.80580139 C134.67229455 51.82377984 130.26959256 51.82255562 125.86666608 51.81685901 C122.19356275 51.81377381 118.52049798 51.81985216 114.84740013 51.82589775 C106.18330916 51.83995685 97.51931675 51.83837029 88.85522461 51.82699585 C79.91138227 51.81551374 70.96783976 51.82958865 62.02403694 51.85639232 C54.35007059 51.87853093 46.67619848 51.88519085 39.00220245 51.87931591 C34.41671983 51.87594065 29.83142942 51.878399 25.24597359 51.89556694 C20.93423169 51.91100474 16.62293475 51.90711605 12.31121063 51.8882618 C10.7277453 51.88456705 9.14424724 51.88771013 7.560812 51.89814758 C5.40078816 51.91129982 3.24224996 51.89986382 1.08229065 51.88215637 C-0.73148402 51.88184245 -0.73148402 51.88184245 -2.5819006 51.88152218 C-6.23998041 51.28324628 -7.41555745 50.28651447 -9.64257812 47.38095093 C-10.14378357 45.24971008 -10.14378357 45.24971008 -10.14428711 42.93539429 C-10.15366806 42.0644664 -10.16304901 41.19353851 -10.17271423 40.29621887 C-10.16148026 39.36382889 -10.15024628 38.4314389 -10.13867188 37.47079468 C-10.14012711 36.50694351 -10.14158234 35.54309235 -10.14308167 34.55003357 C-10.14142341 32.51504489 -10.12987037 30.48004358 -10.10913086 28.44515991 C-10.08015024 25.32621175 -10.08852865 22.20896046 -10.1015625 19.0899353 C-10.09532584 17.11271348 -10.08693547 15.13549704 -10.07617188 13.15829468 C-10.07910751 12.22388046 -10.08204315 11.28946625 -10.08506775 10.32673645 C-10.07238358 9.45896072 -10.0596994 8.591185 -10.04663086 7.69711304 C-10.04122787 6.93418442 -10.03582489 6.1712558 -10.03025818 5.38520813 C-8.96168086 -0.13920247 -4.88603434 0.00453928 0 0 Z " fill="#434542" transform="translate(139.642578125,68.61904907226563)"/>
<path d="M0 0 C6.76378316 -0.8454729 6.76378316 -0.8454729 9.9187088 1.31224251 C10.53951073 1.88967642 11.16031265 2.46711033 11.79992676 3.06204224 C12.8403286 4.02033621 12.8403286 4.02033621 13.90174866 4.99798965 C14.5941716 5.65865307 15.28659454 6.31931648 16 7 C16.94177345 7.89124887 16.94177345 7.89124887 17.90257263 8.80050278 C19.85088214 10.6667147 21.77824912 12.55247411 23.70117188 14.44482422 C24.42410431 15.15315399 25.14703674 15.86148376 25.89187622 16.59127808 C32.48300757 23.05744704 39.04671728 29.55158388 45.60225677 36.05381584 C49.99651721 40.41217759 54.3992438 44.76116471 58.82324219 49.08935547 C63.11875872 53.29216473 67.39189034 57.51655258 71.65003967 61.75720596 C73.27225008 63.36532404 74.90221706 64.96565708 76.5400238 66.55788803 C78.82623021 68.7834705 81.08256601 71.03569313 83.33398438 73.29638672 C84.01337067 73.94498657 84.69275696 74.59358643 85.39273071 75.26184082 C88.82740678 78.77417762 90.39645645 80.96371021 90.41662598 85.98147583 C90.31117401 87.32402865 90.18412841 88.66595918 90 90 C80.62021468 90.09290462 71.24058909 90.1638683 61.86044312 90.20724869 C57.50428959 90.22807492 53.14845213 90.25630099 48.79248047 90.30175781 C44.58439043 90.34539387 40.37660337 90.3691744 36.16830444 90.37950897 C34.56720209 90.38686863 32.9661153 90.4012402 31.36514282 90.42292023 C14.50765127 90.64200863 14.50765127 90.64200863 7.01171875 84.32421875 C6.57472656 83.78410156 6.13773437 83.24398437 5.6875 82.6875 C5.01267578 81.88892578 5.01267578 81.88892578 4.32421875 81.07421875 C0.80558767 75.56273467 -0.37500464 71.12587994 -0.34057617 64.59594727 C-0.34101425 63.892668 -0.34145233 63.18938873 -0.34190369 62.46479797 C-0.33983155 60.16504094 -0.31657679 57.86603421 -0.29296875 55.56640625 C-0.28736715 53.96215717 -0.28309972 52.35790292 -0.28010559 50.75364685 C-0.26870111 46.54991257 -0.23927236 42.34649373 -0.20599365 38.1428833 C-0.17519746 33.84594997 -0.16157993 29.54896522 -0.14648438 25.25195312 C-0.11439795 16.83449134 -0.0632555 8.41728501 0 0 Z " fill="#2ACF6C" transform="translate(334,37)"/>
<path d="M0 0 C0.95857344 -0.00782324 1.91714687 -0.01564648 2.90476799 -0.02370679 C4.48777041 -0.01366855 4.48777041 -0.01366855 6.10275269 -0.00342751 C7.22209261 -0.00810748 8.34143253 -0.01278745 9.49469185 -0.01760924 C13.26504304 -0.0296252 17.03503518 -0.02007604 20.8053894 -0.01066017 C23.50044831 -0.01472294 26.19548203 -0.01995415 28.89053345 -0.02659035 C35.46249385 -0.03994994 42.03435162 -0.03704008 48.60631609 -0.02835242 C53.94614029 -0.02158502 59.28593568 -0.02065506 64.62576294 -0.02392387 C65.76452745 -0.02461342 65.76452745 -0.02461342 66.92629731 -0.0253169 C68.46841352 -0.02627605 70.01052973 -0.02724869 71.55264592 -0.02823468 C86.02265971 -0.03679509 100.49261653 -0.02694424 114.96262097 -0.01083358 C127.38615044 0.00257021 139.80959583 0.00024229 152.23312378 -0.01358986 C166.65036085 -0.02963419 181.06754796 -0.03597105 195.48479271 -0.02675307 C197.02132542 -0.02579739 198.55785814 -0.02485428 200.09439087 -0.02392387 C200.85044998 -0.02346105 201.6065091 -0.02299822 202.38547909 -0.02252137 C207.72063145 -0.01992803 213.0557522 -0.02430986 218.39089966 -0.03136253 C224.89018524 -0.03976502 231.38936208 -0.03752388 237.88863516 -0.0215203 C241.20648584 -0.01362057 244.52411695 -0.01218193 247.84197235 -0.02046776 C251.43396544 -0.02861374 255.02544137 -0.01844553 258.61740112 -0.00342751 C259.67273607 -0.01011967 260.72807102 -0.01681184 261.81538582 -0.02370679 C263.25324597 -0.01197193 263.25324597 -0.01197193 264.72015381 0 C265.54973539 0.00048706 266.37931698 0.00097411 267.2340374 0.00147593 C269.87333238 0.46830651 270.76036682 1.26005565 272.3600769 3.37752342 C272.7350769 5.87752342 272.7350769 5.87752342 272.3600769 8.37752342 C270.76036682 10.49499119 269.87333238 11.28674033 267.2340374 11.75357091 C266.40445581 11.75405797 265.57487423 11.75454503 264.72015381 11.75504684 C263.76158037 11.76287009 262.80300694 11.77069333 261.81538582 11.77875364 C260.76005087 11.77206147 259.70471592 11.76536931 258.61740112 11.75847435 C257.4980612 11.76315432 256.37872128 11.76783429 255.22546196 11.77265608 C251.45511077 11.78467204 247.68511863 11.77512289 243.9147644 11.76570702 C241.2197055 11.76976979 238.52467178 11.77500099 235.82962036 11.78163719 C229.25765996 11.79499678 222.68580219 11.79208692 216.11383772 11.78339927 C210.77401351 11.77663186 205.43421813 11.77570191 200.09439087 11.77897072 C198.95562636 11.77966027 198.95562636 11.77966027 197.7938565 11.78036375 C196.25174029 11.78132289 194.70962408 11.78229553 193.16750789 11.78328152 C178.6974941 11.79184193 164.22753728 11.78199109 149.75753284 11.76588042 C137.33400337 11.75247664 124.91055798 11.75480455 112.48703003 11.7686367 C98.06979296 11.78468104 83.65260585 11.7910179 69.2353611 11.78179991 C67.69882839 11.78084424 66.16229567 11.77990113 64.62576294 11.77897072 C63.86970383 11.77850789 63.11364471 11.77804507 62.33467472 11.77756821 C56.99952236 11.77497488 51.66440161 11.7793567 46.32925415 11.78640938 C39.82996857 11.79481187 33.33079173 11.79257073 26.83151865 11.77656715 C23.51366797 11.76866741 20.19603686 11.76722878 16.87818146 11.7755146 C13.28618837 11.78366059 9.69471244 11.77349237 6.10275269 11.75847435 C4.51975026 11.7685126 4.51975026 11.7685126 2.90476799 11.77875364 C1.46690784 11.76701878 1.46690784 11.76701878 0 11.75504684 C-0.82958158 11.75455979 -1.65916317 11.75407273 -2.51388359 11.75357091 C-5.15317858 11.28674033 -6.04021301 10.49499119 -7.6399231 8.37752342 C-8.0149231 5.87752342 -8.0149231 5.87752342 -7.6399231 3.37752342 C-5.35639494 0.35491494 -3.70962291 0.00217796 0 0 Z " fill="#4B4D4A" transform="translate(123.63992309570313,227.6224765777588)"/>
<path d="M0 0 C0.96416588 -0.00521549 1.92833176 -0.01043099 2.92171478 -0.01580453 C4.52178249 -0.00911236 4.52178249 -0.00911236 6.1541748 -0.002285 C7.28153297 -0.00540498 8.40889114 -0.00852497 9.57041168 -0.01173949 C13.37377547 -0.01976021 17.17698151 -0.01337999 20.98034668 -0.00710678 C23.69657728 -0.00871395 26.41280104 -0.01330196 29.12902832 -0.0177269 C35.7562515 -0.02663861 42.38342947 -0.024691 49.01065445 -0.01890162 C54.39484275 -0.0143921 59.77901836 -0.01376913 65.16320801 -0.01594925 C65.92835928 -0.01625572 66.69351056 -0.01656218 67.48184824 -0.01687793 C69.03604571 -0.01751736 70.59024318 -0.01816579 72.14444065 -0.01882312 C86.73172303 -0.02453162 101.31898032 -0.01796038 115.90625858 -0.00722238 C128.43357136 0.0017136 140.96084707 0.0001617 153.48815918 -0.00905991 C168.02183391 -0.01975337 182.55548662 -0.02398225 197.08916473 -0.01783538 C198.6377716 -0.01719825 200.18637848 -0.01656951 201.73498535 -0.01594925 C202.8780199 -0.01548642 202.8780199 -0.01548642 204.04414606 -0.01501425 C209.42433353 -0.01328453 214.80450707 -0.01620835 220.18469238 -0.02090836 C226.73780697 -0.02650695 233.29087363 -0.02502236 239.8439827 -0.01434687 C243.19003021 -0.00907628 246.53593112 -0.00812624 249.88198853 -0.01364517 C253.50274636 -0.01906867 257.12327549 -0.01230547 260.74401855 -0.002285 C261.81073036 -0.00674645 262.87744217 -0.01120789 263.97647858 -0.01580453 C265.42272739 -0.00798129 265.42272739 -0.00798129 266.89819336 0 C268.15306171 0.00048706 268.15306171 0.00048706 269.43328094 0.00098395 C271.44909668 0.25168228 271.44909668 0.25168228 273.44909668 2.25168228 C273.80796604 5.05086329 273.94461451 6.59212849 272.21956062 8.88824332 C269.94070959 10.64319252 268.66846364 10.62752698 265.80917358 10.6292057 C264.85060015 10.63702895 263.89202671 10.64485219 262.90440559 10.6529125 C261.84907064 10.64622033 260.79373569 10.63952817 259.7064209 10.63263321 C258.58708097 10.63731318 257.46774105 10.64199315 256.31448174 10.64681494 C252.54413054 10.6588309 248.7741384 10.64928174 245.00378418 10.63986588 C242.30872528 10.64392865 239.61369156 10.64915985 236.91864014 10.65579605 C230.34667974 10.66915564 223.77482196 10.66624578 217.20285749 10.65755813 C211.86303329 10.65079072 206.5232379 10.64986077 201.18341064 10.65312958 C200.04464613 10.65381913 200.04464613 10.65381913 198.88287628 10.65452261 C197.34076006 10.65548175 195.79864386 10.65645439 194.25652766 10.65744038 C179.78651388 10.66600079 165.31655705 10.65614995 150.84655261 10.64003928 C138.42302314 10.6266355 125.99957776 10.62896341 113.5760498 10.64279556 C99.15881273 10.6588399 84.74162562 10.66517676 70.32438087 10.65595877 C68.78784816 10.6550031 67.25131544 10.65405998 65.71478271 10.65312958 C64.9587236 10.65266675 64.20266449 10.65220392 63.42369449 10.65172707 C58.08854213 10.64913374 52.75342139 10.65351556 47.41827393 10.66056824 C40.91898835 10.66897073 34.4198115 10.66672959 27.92053843 10.65072601 C24.60268774 10.64282627 21.28505663 10.64138764 17.96720123 10.64967346 C14.37520814 10.65781945 10.78373222 10.64765123 7.19177246 10.63263321 C5.60877004 10.64267146 5.60877004 10.64267146 3.99378777 10.6529125 C2.55592761 10.64117763 2.55592761 10.64117763 1.08901978 10.6292057 C0.25943819 10.62871865 -0.57014339 10.62823159 -1.42486382 10.62772977 C-4.06511797 10.16072954 -4.95573728 9.37491126 -6.55090332 7.25168228 C-6.86340332 4.68918228 -6.86340332 4.68918228 -6.55090332 2.25168228 C-4.08063444 -0.2185866 -3.39883517 0.0013192 0 0 Z " fill="#414340" transform="translate(122.5509033203125,201.74831771850586)"/>
<path d="M0 0 C0.95857344 -0.00782324 1.91714687 -0.01564648 2.90476799 -0.02370679 C4.48777041 -0.01366855 4.48777041 -0.01366855 6.10275269 -0.00342751 C7.22209261 -0.00810748 8.34143253 -0.01278745 9.49469185 -0.01760924 C13.26504304 -0.0296252 17.03503518 -0.02007604 20.8053894 -0.01066017 C23.50044831 -0.01472294 26.19548203 -0.01995415 28.89053345 -0.02659035 C35.46249385 -0.03994994 42.03435162 -0.03704008 48.60631609 -0.02835242 C53.94614029 -0.02158502 59.28593568 -0.02065506 64.62576294 -0.02392387 C65.76452745 -0.02461342 65.76452745 -0.02461342 66.92629731 -0.0253169 C68.46841352 -0.02627605 70.01052973 -0.02724869 71.55264592 -0.02823468 C86.02265971 -0.03679509 100.49261653 -0.02694424 114.96262097 -0.01083358 C127.38615044 0.00257021 139.80959583 0.00024229 152.23312378 -0.01358986 C166.65036085 -0.02963419 181.06754796 -0.03597105 195.48479271 -0.02675307 C197.02132542 -0.02579739 198.55785814 -0.02485428 200.09439087 -0.02392387 C200.85044998 -0.02346105 201.6065091 -0.02299822 202.38547909 -0.02252137 C207.72063145 -0.01992803 213.0557522 -0.02430986 218.39089966 -0.03136253 C224.89018524 -0.03976502 231.38936208 -0.03752388 237.88863516 -0.0215203 C241.20648584 -0.01362057 244.52411695 -0.01218193 247.84197235 -0.02046776 C251.43396544 -0.02861374 255.02544137 -0.01844553 258.61740112 -0.00342751 C259.67273607 -0.01011967 260.72807102 -0.01681184 261.81538582 -0.02370679 C263.25324597 -0.01197193 263.25324597 -0.01197193 264.72015381 0 C265.54973539 0.00048706 266.37931698 0.00097411 267.2340374 0.00147593 C269.88395005 0.47018453 270.80573044 1.20197773 272.3600769 3.37752342 C271.9252943 8.81230603 271.9252943 8.81230603 270.3600769 10.37752342 C268.88679305 10.47604767 267.40879542 10.50491512 265.93222141 10.50615788 C264.97004658 10.50938232 264.00787175 10.51260677 263.01654011 10.51592892 C261.94691546 10.51438032 260.87729081 10.51283172 259.7752533 10.51123619 C258.64874955 10.51350175 257.52224581 10.5157673 256.36160558 10.51810151 C252.55517764 10.52447408 248.74878501 10.52361007 244.94235229 10.52278709 C242.22627119 10.52523108 239.51019263 10.52914986 236.79411316 10.53296471 C230.16342386 10.54128774 223.53274345 10.54402029 216.90204937 10.54457708 C211.51497923 10.54505146 206.12791203 10.54710226 200.74084282 10.55027771 C185.48372296 10.55908875 170.22661015 10.56369638 154.96948773 10.56294724 C154.1461678 10.56290728 153.32284788 10.56286732 152.47457886 10.56282616 C151.6502593 10.56278528 150.82593975 10.5627444 149.97664081 10.56270228 C136.61173323 10.56229566 123.24685381 10.57186781 109.88195438 10.58596452 C96.17486063 10.60030865 82.46778063 10.60723579 68.76067919 10.60637075 C61.05878953 10.6060381 53.35692938 10.60881475 45.65504646 10.6195488 C39.09825256 10.62862803 32.54150154 10.63085039 25.98470408 10.62403937 C22.63663496 10.62076104 19.28871586 10.62183875 15.94064331 10.62939262 C12.31764853 10.63704043 8.69487375 10.63251593 5.07188416 10.62476158 C4.00449023 10.62990514 2.9370963 10.63504871 1.8373571 10.64034814 C0.87257453 10.63574934 -0.09220805 10.63115054 -1.08622646 10.62641239 C-2.34190793 10.62673844 -2.34190793 10.62673844 -3.62295669 10.62707108 C-5.6399231 10.37752342 -5.6399231 10.37752342 -7.6399231 8.37752342 C-7.99879246 5.57834241 -8.13544092 4.03707722 -6.41038704 1.74096239 C-4.13153601 -0.01398682 -2.85929006 0.00167872 0 0 Z " fill="#444643" transform="translate(123.63992309570313,254.6224765777588)"/>
<path d="M0 0 C1.43487358 -0.00576172 1.43487358 -0.00576172 2.89873451 -0.01163983 C3.9569823 -0.01077335 5.01523009 -0.00990687 6.105546 -0.00901413 C7.2240315 -0.01198525 8.342517 -0.01495637 9.49489599 -0.01801753 C13.26824205 -0.02673629 17.04155649 -0.02821544 20.81491184 -0.02970505 C23.5098139 -0.03433091 26.20471303 -0.03933434 28.89961338 -0.04475021 C36.23830365 -0.05834436 43.57698846 -0.06435974 50.91568923 -0.06876087 C55.49510518 -0.07152108 60.07451901 -0.07575799 64.65393353 -0.08026505 C77.32510178 -0.0924584 89.99626833 -0.10275805 102.66744232 -0.10614014 C103.47874288 -0.1063597 104.29004343 -0.10657927 105.12592885 -0.10680549 C106.34583861 -0.10713291 106.34583861 -0.10713291 107.59039301 -0.10746694 C109.23847481 -0.10791041 110.88655661 -0.10835697 112.5346384 -0.10880661 C113.35214892 -0.10902804 114.16965943 -0.10924947 115.01194299 -0.10947761 C128.26619375 -0.1134278 141.52038961 -0.13088826 154.77461915 -0.15416613 C168.37213837 -0.17785484 181.96963001 -0.19034083 195.5671702 -0.19150805 C203.20593795 -0.19242614 210.84463414 -0.19821197 218.48338223 -0.21632767 C224.98633774 -0.23169514 231.48919958 -0.23686901 237.99216979 -0.22858956 C241.31204858 -0.22467126 244.63169818 -0.22728757 247.95156193 -0.23964691 C251.54577979 -0.25224733 255.13950632 -0.24655458 258.73371983 -0.23606491 C259.78973689 -0.24412132 260.84575396 -0.25217772 261.93377155 -0.26047826 C262.89296169 -0.25388841 263.85215182 -0.24729857 264.84040833 -0.24050903 C265.67053198 -0.24110612 266.50065564 -0.24170321 267.35593456 -0.24231839 C270.00820593 0.22368425 270.92504867 0.95700011 272.48312473 3.13142776 C272.29562473 6.25642776 272.29562473 6.25642776 271.48312473 9.13142776 C269.09456003 10.32571012 267.63290805 10.25885054 264.96624947 10.26285553 C263.53137588 10.26861725 263.53137588 10.26861725 262.06751496 10.27449536 C261.00926717 10.27362888 259.95101937 10.2727624 258.86070347 10.27186966 C257.74221797 10.27484078 256.62373247 10.2778119 255.47135347 10.28087306 C251.69800742 10.28959182 247.92469297 10.29107097 244.15133762 10.29256058 C241.45643557 10.29718644 238.76153644 10.30218987 236.06663609 10.30760574 C228.72794582 10.32119989 221.389261 10.32721527 214.05056024 10.3316164 C209.47114429 10.33437661 204.89173046 10.33861352 200.31231594 10.34312057 C187.64114769 10.35531393 174.96998114 10.36561358 162.29880714 10.36899567 C161.08185631 10.36932502 161.08185631 10.36932502 159.84032061 10.36966102 C159.02704744 10.3698793 158.21377427 10.37009757 157.37585646 10.37032247 C155.72777466 10.37076594 154.07969286 10.3712125 152.43161106 10.37166214 C151.61410055 10.37188357 150.79659003 10.372105 149.95430648 10.37233314 C136.70005571 10.37628333 123.44585985 10.39374379 110.19163031 10.41702166 C96.59411109 10.44071037 82.99661946 10.45319636 69.39907926 10.45436358 C61.76031152 10.45528167 54.12161533 10.4610675 46.48286724 10.4791832 C39.97991173 10.49455067 33.47704989 10.49972454 26.97407968 10.49144509 C23.65420089 10.48752679 20.33455128 10.4901431 17.01468754 10.50250244 C13.42046967 10.51510286 9.82674314 10.50941011 6.23252964 10.49892044 C4.64850404 10.51100505 4.64850404 10.51100505 3.03247792 10.52333379 C2.07328778 10.51674394 1.11409764 10.5101541 0.12584114 10.50336456 C-1.11934435 10.5042602 -1.11934435 10.5042602 -2.38968509 10.50517392 C-5.04195646 10.03917128 -5.9587992 9.30585542 -7.51687527 7.13142776 C-7.32937527 4.00642776 -7.32937527 4.00642776 -6.51687527 1.13142776 C-4.12831056 -0.06285459 -2.66665858 0.00400499 0 0 Z " fill="#414340" transform="translate(123.51687526702881,281.8685722351074)"/>
<path d="M0 0 C1.43487358 -0.00576172 1.43487358 -0.00576172 2.89873451 -0.01163983 C3.9569823 -0.01077335 5.01523009 -0.00990687 6.105546 -0.00901413 C7.2240315 -0.01198525 8.342517 -0.01495637 9.49489599 -0.01801753 C13.26824205 -0.02673629 17.04155649 -0.02821544 20.81491184 -0.02970505 C23.5098139 -0.03433091 26.20471303 -0.03933434 28.89961338 -0.04475021 C36.23830365 -0.05834436 43.57698846 -0.06435974 50.91568923 -0.06876087 C55.49510518 -0.07152108 60.07451901 -0.07575799 64.65393353 -0.08026505 C77.32510178 -0.0924584 89.99626833 -0.10275805 102.66744232 -0.10614014 C103.47874288 -0.1063597 104.29004343 -0.10657927 105.12592885 -0.10680549 C106.34583861 -0.10713291 106.34583861 -0.10713291 107.59039301 -0.10746694 C109.23847481 -0.10791041 110.88655661 -0.10835697 112.5346384 -0.10880661 C113.35214892 -0.10902804 114.16965943 -0.10924947 115.01194299 -0.10947761 C128.26619375 -0.1134278 141.52038961 -0.13088826 154.77461915 -0.15416613 C168.37213837 -0.17785484 181.96963001 -0.19034083 195.5671702 -0.19150805 C203.20593795 -0.19242614 210.84463414 -0.19821197 218.48338223 -0.21632767 C224.98633774 -0.23169514 231.48919958 -0.23686901 237.99216979 -0.22858956 C241.31204858 -0.22467126 244.63169818 -0.22728757 247.95156193 -0.23964691 C251.54577979 -0.25224733 255.13950632 -0.24655458 258.73371983 -0.23606491 C259.78973689 -0.24412132 260.84575396 -0.25217772 261.93377155 -0.26047826 C262.89296169 -0.25388841 263.85215182 -0.24729857 264.84040833 -0.24050903 C265.67053198 -0.24110612 266.50065564 -0.24170321 267.35593456 -0.24231839 C270.00820593 0.22368425 270.92504867 0.95700011 272.48312473 3.13142776 C272.29562473 6.25642776 272.29562473 6.25642776 271.48312473 9.13142776 C269.09456003 10.32571012 267.63290805 10.25885054 264.96624947 10.26285553 C263.53137588 10.26861725 263.53137588 10.26861725 262.06751496 10.27449536 C261.00926717 10.27362888 259.95101937 10.2727624 258.86070347 10.27186966 C257.74221797 10.27484078 256.62373247 10.2778119 255.47135347 10.28087306 C251.69800742 10.28959182 247.92469297 10.29107097 244.15133762 10.29256058 C241.45643557 10.29718644 238.76153644 10.30218987 236.06663609 10.30760574 C228.72794582 10.32119989 221.389261 10.32721527 214.05056024 10.3316164 C209.47114429 10.33437661 204.89173046 10.33861352 200.31231594 10.34312057 C187.64114769 10.35531393 174.96998114 10.36561358 162.29880714 10.36899567 C161.08185631 10.36932502 161.08185631 10.36932502 159.84032061 10.36966102 C159.02704744 10.3698793 158.21377427 10.37009757 157.37585646 10.37032247 C155.72777466 10.37076594 154.07969286 10.3712125 152.43161106 10.37166214 C151.61410055 10.37188357 150.79659003 10.372105 149.95430648 10.37233314 C136.70005571 10.37628333 123.44585985 10.39374379 110.19163031 10.41702166 C96.59411109 10.44071037 82.99661946 10.45319636 69.39907926 10.45436358 C61.76031152 10.45528167 54.12161533 10.4610675 46.48286724 10.4791832 C39.97991173 10.49455067 33.47704989 10.49972454 26.97407968 10.49144509 C23.65420089 10.48752679 20.33455128 10.4901431 17.01468754 10.50250244 C13.42046967 10.51510286 9.82674314 10.50941011 6.23252964 10.49892044 C4.64850404 10.51100505 4.64850404 10.51100505 3.03247792 10.52333379 C2.07328778 10.51674394 1.11409764 10.5101541 0.12584114 10.50336456 C-1.11934435 10.5042602 -1.11934435 10.5042602 -2.38968509 10.50517392 C-5.04195646 10.03917128 -5.9587992 9.30585542 -7.51687527 7.13142776 C-7.32937527 4.00642776 -7.32937527 4.00642776 -6.51687527 1.13142776 C-4.12831056 -0.06285459 -2.66665858 0.00400499 0 0 Z " fill="#414340" transform="translate(123.51687526702881,174.86857223510742)"/>
<path d="M0 0 C0.95658239 -0.00583219 1.91316478 -0.01166439 2.89873451 -0.01767331 C3.9569823 -0.01389399 5.01523009 -0.01011467 6.105546 -0.00622082 C7.78327425 -0.01195914 7.78327425 -0.01195914 9.49489599 -0.01781338 C13.26828149 -0.02818826 17.04151609 -0.02414273 20.81491184 -0.02018261 C23.50981755 -0.0245266 26.20471193 -0.02964368 28.89961338 -0.03567028 C35.4750303 -0.04844432 42.05040644 -0.05020761 48.62583368 -0.04787002 C53.96853827 -0.0460897 59.31123043 -0.04783034 64.65393353 -0.05209446 C65.79290127 -0.05298724 65.79290127 -0.05298724 66.95487847 -0.05389806 C68.49723621 -0.05510977 70.03959395 -0.0563239 71.58195169 -0.05754044 C86.05862277 -0.06842642 100.53527059 -0.0662485 115.01194299 -0.06015559 C128.26619772 -0.05498558 141.52037897 -0.0662422 154.77461915 -0.08525381 C168.37214315 -0.10460886 181.96963234 -0.11289232 195.5671702 -0.10913056 C203.20593213 -0.10721495 210.8446315 -0.10974096 218.48338223 -0.1238451 C224.98634466 -0.13573021 231.48920604 -0.13719623 237.99216979 -0.12505493 C241.31204365 -0.11914588 244.63169321 -0.11973477 247.95156193 -0.13005733 C251.54578886 -0.14043056 255.13951171 -0.13250001 258.73371983 -0.11974621 C259.78973689 -0.12712049 260.84575396 -0.13449478 261.93377155 -0.14209253 C262.89296169 -0.13488598 263.85215182 -0.12767944 264.84040833 -0.12025452 C265.67053198 -0.12030953 266.50065564 -0.12036455 267.35593456 -0.12042123 C270.00723253 0.34684456 270.92841559 1.07787687 272.48312473 3.25447559 C272.04834212 8.6892582 272.04834212 8.6892582 270.48312473 10.25447559 C269.00987354 10.35389383 267.53186947 10.38370423 266.05526924 10.38590336 C264.612007 10.39166508 264.612007 10.39166508 263.13958794 10.39754319 C262.06996329 10.39667671 261.00033864 10.39581023 259.89830112 10.39491749 C258.77179738 10.39788861 257.64529364 10.40085973 256.48465341 10.40392089 C252.6782283 10.41265068 248.87183448 10.41411972 245.06540012 10.41560841 C242.3493185 10.41969309 239.63324023 10.42523672 236.91716099 10.43065357 C229.51649714 10.44425631 222.11583869 10.45026451 214.71516442 10.45466423 C210.09807199 10.45742315 205.48098166 10.46165983 200.86389065 10.4661684 C188.09153627 10.47836317 175.31918358 10.48866236 162.5468235 10.4920435 C161.72880104 10.49226306 160.91077858 10.49248263 160.06796756 10.49270885 C159.24794093 10.49292712 158.42791431 10.4931454 157.58303839 10.49337029 C155.92123449 10.49381377 154.25943059 10.49426033 152.59762669 10.49470997 C151.36114735 10.49504211 151.36114735 10.49504211 150.09968864 10.49538097 C136.734768 10.49933123 123.36990181 10.51679125 110.00500221 10.54006949 C96.29790829 10.56375194 82.59084173 10.57624391 68.88372701 10.57741141 C61.1818193 10.57832988 53.47998253 10.58412526 45.77809429 10.60223103 C39.2212874 10.61759014 32.66457337 10.62277738 26.10775191 10.61449292 C22.7596192 10.6105715 19.41182669 10.61320174 16.06369114 10.62555027 C12.44060706 10.63813444 8.81801156 10.63246703 5.19493198 10.62196827 C4.12753806 10.63002467 3.06014413 10.63808108 1.96040493 10.64638162 C0.99562236 10.63979177 0.03083978 10.63320193 -0.96317863 10.62641239 C-2.2188601 10.62730802 -2.2188601 10.62730802 -3.49990886 10.62822175 C-4.16550778 10.50488552 -4.83110669 10.38154929 -5.51687527 10.25447559 C-7.51687527 7.25447559 -7.51687527 7.25447559 -7.26687527 4.69197559 C-5.93515091 0.36387143 -4.19507635 0.00438116 0 0 Z " fill="#444643" transform="translate(123.51687526702881,147.7455244064331)"/>
<path d="M0 0 C111.54 0 223.08 0 338 0 C337.67 2.64 337.34 5.28 337 8 C225.79 8 114.58 8 0 8 C0 5.36 0 2.72 0 0 Z " fill="#AEB8B6" transform="translate(87,420)"/>
<path d="M0 0 C3.97674638 -0.63470067 7.96850082 -0.55738479 11.99169922 -0.5559082 C13.96489914 -0.56238479 15.93774499 -0.61767056 17.91015625 -0.67382812 C26.36260321 -0.71252193 32.47996184 0.3784549 39 6 C45.15686291 13.25202171 47.52984496 20.60988381 47.30859375 30.09765625 C46.46634945 38.01901722 43.36506689 44.29449017 38.171875 50.24609375 C30.62042703 56.34429544 23.71699543 56.59522256 14.1875 56.4375 C12.96095703 56.44458984 11.73441406 56.45167969 10.47070312 56.45898438 C1.5327086 56.39510646 1.5327086 56.39510646 -0.64498901 54.77992249 C-2.42637983 52.43991373 -2.374424 51.04152576 -2.37231445 48.1171875 C-2.37854324 47.12605957 -2.38477203 46.13493164 -2.39118958 45.11376953 C-2.38197983 44.04497559 -2.37277008 42.97618164 -2.36328125 41.875 C-2.36377975 40.77655762 -2.36427826 39.67811523 -2.36479187 38.54638672 C-2.36245037 36.22296338 -2.35271748 33.89953755 -2.33618164 31.57617188 C-2.31259332 28.01409286 -2.31561985 24.45276223 -2.32226562 20.890625 C-2.31668887 18.63541219 -2.309579 16.38020254 -2.30078125 14.125 C-2.30169266 13.05620605 -2.30260406 11.98741211 -2.30354309 10.88623047 C-2.29401108 9.89510254 -2.28447906 8.90397461 -2.2746582 7.8828125 C-2.27005081 7.01027832 -2.26544342 6.13774414 -2.26069641 5.23876953 C-2 3 -2 3 0 0 Z " fill="#FAFEFC" transform="translate(135,339)"/>
<path d="M0 0 C111.21 0 222.42 0 337 0 C337 2.31 337 4.62 337 7 C225.79 7 114.58 7 0 7 C0 4.69 0 2.38 0 0 Z " fill="#B4B7BA" transform="translate(87,306)"/>
<path d="M0 0 C5.95444252 5.95444252 9.23064601 12.971291 9.6875 21.375 C9.50944798 29.54313656 6.54269564 37.20342293 1 43.25 C-5.57609868 49.03413841 -12.17824674 50.97851217 -20.89453125 50.625 C-29.01189483 49.5589714 -34.80152746 44.56696605 -39.75 38.25 C-44.079844 31.13494736 -45.01030928 23.41795861 -43.75 15.25 C-40.91108973 6.81352107 -36.71109342 0.56030932 -28.9140625 -3.76953125 C-18.61322665 -8.37337421 -9.08148566 -5.77912724 0 0 Z " fill="#F9FDFB" transform="translate(237.75,344.75)"/>
<path d="M0 0 C5.83935768 1.0279813 9.52815322 6.13621301 13.40234375 10.25390625 C14.22927734 11.10791016 15.05621094 11.96191406 15.90820312 12.84179688 C17.94131415 14.94542042 19.95908745 17.06173978 21.96484375 19.19140625 C25.33959859 17.74601979 27.36253244 15.94183781 29.828125 13.2421875 C30.55064453 12.47712891 31.27316406 11.71207031 32.01757812 10.92382812 C33.52451782 9.31008717 35.01938593 7.68498876 36.50195312 6.04882812 C41.95636813 0.33306582 41.95636813 0.33306582 45.06787109 -0.10400391 C47.0078125 0.171875 47.0078125 0.171875 49.96484375 1.19140625 C50.72998047 3.88574219 50.72998047 3.88574219 50.96484375 7.19140625 C49.25830078 9.67675781 49.25830078 9.67675781 46.72265625 12.08203125 C45.82160156 12.95601563 44.92054688 13.83 43.9921875 14.73046875 C43.03441406 15.62507813 42.07664062 16.5196875 41.08984375 17.44140625 C39.21583032 19.23659415 37.34335279 21.03338721 35.47265625 22.83203125 C34.6336377 23.62125977 33.79461914 24.41048828 32.93017578 25.22363281 C30.90877714 27.04050712 30.90877714 27.04050712 29.96484375 29.19140625 C30.54532471 29.44954102 31.12580566 29.70767578 31.72387695 29.97363281 C35.81766447 32.19825555 38.86680191 35.68214874 42.15234375 38.94140625 C42.88904297 39.64523437 43.62574219 40.3490625 44.38476562 41.07421875 C49.69752089 46.33321108 49.69752089 46.33321108 51.0234375 50.58984375 C50.96484375 53.19140625 50.96484375 53.19140625 49.83984375 55.06640625 C47.29481822 56.59342157 45.90762738 56.56791142 42.96484375 56.19140625 C40.5612793 54.35546875 40.5612793 54.35546875 38.1015625 51.81640625 C37.21533203 50.9140625 36.32910156 50.01171875 35.41601562 49.08203125 C34.50400391 48.128125 33.59199219 47.17421875 32.65234375 46.19140625 C31.71275383 45.22672823 30.77201028 44.2631724 29.83007812 43.30078125 C27.53006646 40.94179492 25.24250341 38.57194838 22.96484375 36.19140625 C19.26321806 39.2682051 15.72254787 42.36046974 12.39453125 45.83984375 C11.80800781 46.45214844 11.22148437 47.06445312 10.6171875 47.6953125 C9.41686106 48.95895286 8.22430489 50.23001322 7.0390625 51.5078125 C2.64072283 56.06150191 2.64072283 56.06150191 -0.83984375 56.73046875 C-3.03515625 56.19140625 -3.03515625 56.19140625 -5.03515625 54.19140625 C-5.53465577 50.51932412 -5.47970821 48.80957242 -3.29101562 45.76611328 C-2.49501953 45.00153809 -1.69902344 44.23696289 -0.87890625 43.44921875 C-0.02167969 42.61132812 0.83554687 41.7734375 1.71875 40.91015625 C2.62496094 40.05421875 3.53117187 39.19828125 4.46484375 38.31640625 C5.37105469 37.43726563 6.27726562 36.558125 7.2109375 35.65234375 C9.44936462 33.4846038 11.70056464 31.3320755 13.96484375 29.19140625 C12.52017557 25.83234261 10.71725219 23.77453171 8.05078125 21.29296875 C6.90996094 20.20242188 6.90996094 20.20242188 5.74609375 19.08984375 C4.14167917 17.57398452 2.52965714 16.06613697 0.91015625 14.56640625 C0.1521875 13.83679688 -0.60578125 13.1071875 -1.38671875 12.35546875 C-2.08619629 11.7001416 -2.78567383 11.04481445 -3.50634766 10.36962891 C-5.53300222 7.48208307 -5.46072525 5.64481332 -5.03515625 2.19140625 C-3.03515625 0.19140625 -3.03515625 0.19140625 0 0 Z " fill="#F8FDFA" transform="translate(328.03515625,338.80859375)"/>
<path d="M0 0 C4.41422557 2.68484282 8.65896149 6.26392904 11.625 10.5 C11.96875 13.12890625 11.96875 13.12890625 11.625 15.5 C9.625 17.5 9.625 17.5 7 18.0625 C2.53753416 17.31875569 0.56165485 15.20086076 -2.640625 12.12890625 C-5.89289195 9.07441229 -8.69728578 9.16051137 -12.9921875 9.22265625 C-17.01047299 9.69035833 -19.11477171 11.0708103 -22.375 13.5 C-26.32546766 18.59402409 -27.80798228 22.73182034 -27.71484375 29.0859375 C-27.0243494 33.9908284 -24.48097146 37.72418084 -20.73046875 40.88671875 C-16.60269115 43.54228673 -13.17732982 44.11120561 -8.375 43.5 C-5.12441676 42.08376759 -5.12441676 42.08376759 -2.375 40.5 C-1.715 40.5 -1.055 40.5 -0.375 40.5 C-0.106875 39.9225 0.16125 39.345 0.4375 38.75 C2.74264706 34.38235294 2.74264706 34.38235294 4.625 32.5 C7.6875 32.125 7.6875 32.125 10.625 32.5 C12.625 34.5 12.625 34.5 12.6875 37.625 C11.58216466 43.65410186 7.18354918 47.64493983 2.39453125 51.1171875 C-4.29034364 54.97762096 -10.7862665 55.55776464 -18.375 54.5 C-21.37200824 53.55078678 -23.79174198 52.27560456 -26.375 50.5 C-27.7053125 49.63375 -27.7053125 49.63375 -29.0625 48.75 C-35.33323687 42.6487425 -38.36422059 35.35354405 -38.6875 26.625 C-38.46387167 17.94295899 -35.46166761 10.73611704 -29.375 4.5 C-21.12168506 -1.79940516 -9.89001723 -4.48110561 0 0 Z " fill="#F9FDFB" transform="translate(297.375,340.5)"/>
<path d="M0 0 C1.98 0 3.96 0 6 0 C6.00142502 0.87981537 6.00285004 1.75963074 6.00431824 2.66610718 C6.02221159 10.99259194 6.06401194 19.31854955 6.13209057 27.64478111 C6.16625599 31.92455306 6.19145416 36.203972 6.19555664 40.48388672 C6.19986221 44.62098006 6.22850966 48.75727851 6.27343178 52.89412308 C6.28633517 54.46556579 6.29074005 56.03710399 6.28615379 57.60859299 C6.26446918 67.30262791 6.61974926 76.05112926 13.47770691 83.63388062 C18.66942774 88.29297715 23.45837823 89.24827335 30.26879883 89.31884766 C30.98153961 89.32889328 31.6942804 89.3389389 32.42861938 89.34928894 C34.77141556 89.38004241 37.11409786 89.39713396 39.45703125 89.4140625 C41.08657302 89.43278048 42.71610517 89.45235437 44.34562683 89.4727478 C48.62480994 89.52400851 52.90402445 89.56366657 57.18334961 89.60089111 C61.55395233 89.64096884 65.9244251 89.69204397 70.29492188 89.7421875 C78.86319238 89.83887499 87.43152735 89.92330262 96 90 C96 87.36 96 84.72 96 82 C96.33 82 96.66 82 97 82 C97 86.62 97 91.24 97 96 C87.13317655 96.11330357 77.26679054 96.20488951 67.39946175 96.25906086 C62.8168417 96.28507041 58.23469274 96.32030869 53.65234375 96.37719727 C49.22377823 96.43182783 44.79566364 96.46148542 40.36678696 96.47438622 C38.68358138 96.48357076 37.00039837 96.50150543 35.31738663 96.52865028 C24.87278553 96.69029243 16.00690915 96.45364007 7.87234497 89.0683136 C0.73536386 81.89793712 -0.31514765 73.68692863 -0.34805107 63.98014545 C-0.33965087 61.63112406 -0.31657292 59.28250745 -0.29296875 56.93359375 C-0.28736446 55.28736256 -0.2830983 53.64112632 -0.28010559 51.99488831 C-0.26872229 47.68925853 -0.23931229 43.38393862 -0.20599365 39.07843018 C-0.17515125 34.6740742 -0.16157015 30.26966752 -0.14648438 25.86523438 C-0.11443543 17.24334834 -0.06331929 8.62171286 0 0 Z " fill="#B4B8BA" transform="translate(328,37)"/>
<path d="M0 0 C2.990625 -0.12375 5.98125 -0.2475 9.0625 -0.375 C10.45480835 -0.45693604 10.45480835 -0.45693604 11.87524414 -0.54052734 C16.47060721 -0.63185521 19.3619237 -0.23069561 22.99609375 2.7109375 C27.57777535 7.28522278 28.31770326 11.42099171 28.4375 17.8125 C28.34661237 24.00584246 27.51759198 28.57164441 23 33 C18 36 18 36 0 36 C0 24.12 0 12.24 0 0 Z " fill="#2CD16E" transform="translate(143,349)"/>
<path d="M0 0 C4.9710149 2.53240382 8.49430567 5.98861134 11 11 C11.65298597 18.65385198 11.94895305 24.87892649 7 31 C3.04159284 34.49812726 -0.57910969 35.79789159 -5.7578125 36.1640625 C-10.740279 35.79949178 -13.92612212 33.13192533 -17.3125 29.5625 C-20.83442769 24.21438759 -22.03891874 19.36072699 -21 13 C-16.97783996 3.55955825 -10.1932105 -1.23762421 0 0 Z " fill="#2AD06D" transform="translate(225,349)"/>
</svg>
