<svg width="18" height="18" viewBox="0 0 18 18" fill="none" xmlns="http://www.w3.org/2000/svg">
<path d="M8.5 1.83008H2.66667C2.22464 1.83008 1.80072 2.00567 1.48816 2.31823C1.17559 2.63079 1 3.05472 1 3.49674V15.1634C1 15.6054 1.17559 16.0294 1.48816 16.3419C1.80072 16.6545 2.22464 16.8301 2.66667 16.8301H14.3333C14.7754 16.8301 15.1993 16.6545 15.5118 16.3419C15.8244 16.0294 16 15.6054 16 15.1634V9.33008" stroke="#257FA0" stroke-width="2" stroke-linecap="round" stroke-linejoin="round"/>
<path d="M13.8132 1.51777C14.1447 1.18625 14.5944 1 15.0632 1C15.5321 1 15.9817 1.18625 16.3132 1.51777C16.6448 1.84929 16.831 2.29893 16.831 2.76777C16.831 3.23661 16.6448 3.68625 16.3132 4.01777L8.8024 11.5294C8.60452 11.7271 8.36007 11.8719 8.09156 11.9503L5.6974 12.6503C5.62569 12.6712 5.54968 12.6724 5.47732 12.6539C5.40496 12.6354 5.33892 12.5977 5.2861 12.5449C5.23328 12.4921 5.19564 12.426 5.1771 12.3537C5.15856 12.2813 5.15981 12.2053 5.18073 12.1336L5.88073 9.73943C5.9595 9.47114 6.10451 9.22698 6.3024 9.02943L13.8132 1.51777Z" stroke="#257FA0" stroke-width="2" stroke-linecap="round" stroke-linejoin="round"/>
</svg>
