<?xml version="1.0" encoding="UTF-8"?>
<svg version="1.1" xmlns="http://www.w3.org/2000/svg" width="512" height="512">
<path d="M0 0 C1.28307008 -0.00445784 2.56614016 -0.00891569 3.88809115 -0.01350862 C5.31507529 -0.01341932 6.74205942 -0.01322947 8.16904354 -0.01294994 C9.68258364 -0.01624941 11.19612285 -0.01997516 12.70966095 -0.02409142 C16.8751673 -0.03411019 21.04065923 -0.03782802 25.20617592 -0.04048073 C29.69648007 -0.04438417 34.1867728 -0.05396252 38.67706966 -0.0626936 C49.52463929 -0.08245734 60.37220986 -0.09252431 71.21979299 -0.10142139 C76.32836477 -0.10580462 81.43693552 -0.11117135 86.54550648 -0.11641026 C103.52822212 -0.13342279 120.51093712 -0.14791675 137.49365997 -0.155159 C141.90091166 -0.15706889 146.30816334 -0.15898922 150.715415 -0.16094494 C151.81081382 -0.16142868 152.90621263 -0.16191242 154.03480535 -0.16241082 C171.77776725 -0.17071032 189.52066171 -0.19604579 207.26359416 -0.22852562 C225.48070518 -0.26160151 243.69778193 -0.27960826 261.91492313 -0.28280324 C272.1428158 -0.28496789 282.37061015 -0.29370997 292.59847355 -0.31926441 C301.30946962 -0.34097867 310.02034348 -0.34901826 318.73136354 -0.33929763 C323.17425925 -0.33475499 327.61690283 -0.33663705 332.05976391 -0.35605907 C336.13187081 -0.37370623 340.20354196 -0.37268061 344.27565359 -0.35716178 C345.7440968 -0.35478805 347.21257031 -0.35909709 348.68096728 -0.37099043 C362.32490719 -0.47460166 373.5869836 2.45917544 383.72884274 11.94672108 C392.48900356 21.31103092 396.10339397 32.10814824 396.05876827 44.70287037 C396.06329939 45.6477687 396.0678305 46.59266703 396.07249892 47.56619865 C396.08512777 50.72263063 396.0835235 53.87888972 396.08187008 57.03534412 C396.08785633 59.30259389 396.0946621 61.56984162 396.1022253 63.83708668 C396.1198842 69.99018513 396.12458069 76.14322794 396.12585688 82.29634929 C396.12727928 86.14334709 396.13155061 89.99033079 396.13685131 93.8373251 C396.15439789 106.57349907 396.1636916 119.30962677 396.16219036 132.04580989 C396.16211045 132.73168236 396.16203054 133.41755483 396.1619482 134.12421131 C396.16186644 134.8109277 396.16178468 135.49764409 396.16170044 136.20517007 C396.16088815 147.32556858 396.18001345 158.44583145 396.20822494 169.56619074 C396.23700672 181.00221289 396.25039667 192.43814153 396.24903738 203.87420589 C396.24852827 210.28752008 396.2541837 216.70068079 396.27539349 223.11396313 C396.29480857 229.14935418 396.2948777 235.18444585 396.28036022 241.21984768 C396.278275 243.42885877 396.28295582 245.63788876 396.29508114 247.84686756 C396.3805719 264.50715157 395.35623836 277.11316159 383.79134274 290.13422108 C372.45913793 300.69776858 360.06425887 302.43706208 345.09793758 302.40164661 C343.59886849 302.40538636 342.09980135 302.40998917 340.60073727 302.41537726 C336.49371468 302.42758273 332.3867737 302.42734969 328.27973711 302.42498851 C323.84535545 302.42457972 319.41099973 302.43562547 314.97663021 302.44510365 C306.2931325 302.46170146 297.60966195 302.46721265 288.9261497 302.4683284 C281.86552091 302.46927951 274.80490106 302.47339294 267.74427509 302.47972965 C247.71452902 302.49733919 227.68480436 302.50656904 207.65505049 302.5050687 C206.03605885 302.50494884 206.03605885 302.50494884 204.38436031 302.50482655 C203.30371058 302.50474478 202.22306086 302.50466302 201.10966416 302.50457878 C183.60109796 302.5037661 166.09261782 302.52290016 148.5840765 302.55110328 C130.59508692 302.57985103 112.60613929 302.59364251 94.61712617 302.59191573 C84.52225623 302.59125245 74.42747651 302.59671732 64.3326273 302.61827183 C55.73669518 302.63650856 47.14089417 302.64081054 38.54495106 302.62725298 C34.1625415 302.62073575 29.7803833 302.62056092 25.39799786 302.63795948 C21.3789817 302.65375072 17.36041494 302.65076541 13.34140935 302.63339122 C11.89458756 302.63033455 10.44773173 302.63390296 9.00095014 302.64511137 C-5.43783516 302.74948033 -17.31442944 299.95336063 -28.20865726 290.13422108 C-36.86763499 280.82582002 -40.52043852 270.0840988 -40.4760828 257.56557178 C-40.48061391 256.62067345 -40.48514503 255.67577512 -40.48981345 254.70224351 C-40.5024423 251.54581153 -40.50083803 248.38955243 -40.49918461 245.23309803 C-40.50517086 242.96584826 -40.51197663 240.69860053 -40.51953983 238.43135548 C-40.53719873 232.27825702 -40.54189522 226.12521421 -40.54317141 219.97209287 C-40.54459381 216.12509506 -40.54886514 212.27811136 -40.55416584 208.43111706 C-40.57171242 195.69494308 -40.58100613 182.95881538 -40.57950489 170.22263227 C-40.57942498 169.5367598 -40.57934507 168.85088733 -40.57926273 168.14423084 C-40.57918097 167.45751445 -40.57909921 166.77079806 -40.57901497 166.06327208 C-40.57820268 154.94287357 -40.59732798 143.82261071 -40.62553947 132.70225141 C-40.65432125 121.26622926 -40.6677112 109.83030062 -40.66635191 98.39423627 C-40.6658428 91.98092207 -40.67149823 85.56776136 -40.69270802 79.15447903 C-40.7121231 73.11908798 -40.71219222 67.0839963 -40.69767475 61.04859447 C-40.69558953 58.83958338 -40.70027035 56.63055339 -40.71239567 54.42157459 C-40.79982942 37.382644 -39.40195349 24.19135597 -27.36490726 11.13422108 C-19.80435815 3.94550224 -10.37044172 0.0167039 0 0 Z M-4.20865726 19.13422108 C1.11309616 24.06482048 6.43861061 28.91116322 12.10384274 33.44672108 C17.8511272 38.08242474 23.20102708 43.09190008 28.58431149 48.13812733 C33.25527594 52.51538822 38.08881814 56.68564997 42.96321774 60.83343983 C49.8016013 66.66020573 56.52295791 72.57802709 63.11946774 78.67718983 C65.974566 81.30271147 68.87899518 83.86089948 71.81087399 86.39984608 C74.10267429 88.40686646 76.35131026 90.45824959 78.60384274 92.50922108 C82.00217826 95.58168881 85.46724797 98.5186473 89.04134274 101.38422108 C94.80575502 106.04480973 100.17986227 111.07201388 105.58431149 116.13812733 C110.25527594 120.51538822 115.08881814 124.68564997 119.96321774 128.83343983 C126.80652753 134.66440321 133.53117491 140.58830442 140.13509274 146.68890858 C144.65433121 150.84926635 149.29312882 154.86107643 153.97103024 158.84125233 C161.72924244 165.44974059 169.32994819 172.19211773 176.79134274 179.13422108 C180.87711836 177.49006558 183.72586784 174.56629499 186.85384274 171.57172108 C190.86970728 167.7901951 194.91434301 164.14063926 199.22884274 160.69672108 C204.94207789 156.11109813 210.24336211 151.13676566 215.58431149 146.13031483 C220.25527594 141.75305394 225.08881814 137.58279218 229.96321774 133.43500233 C236.80652753 127.60403894 243.53117491 121.68013773 250.13509274 115.57953358 C254.65433121 111.41917581 259.29312882 107.40736572 263.97103024 103.42718983 C270.81253981 97.59973048 277.53386381 91.67765376 284.13509274 85.57953358 C288.65433121 81.41917581 293.29312882 77.40736572 297.97103024 73.42718983 C304.81253981 67.59973048 311.53386381 61.67765376 318.13509274 55.57953358 C322.65433121 51.41917581 327.29312882 47.40736572 331.97103024 43.42718983 C341.52476888 35.29024606 350.95962453 27.06176263 359.79134274 18.13422108 C357.07976551 16.77843246 354.96608388 17.0075465 351.92858028 17.00558662 C350.67180918 17.00236218 349.41503807 16.99913773 348.12018299 16.99581558 C346.71255515 16.99728694 345.30492741 16.99885468 343.89729977 17.00050831 C342.41207032 16.99864166 340.92684137 16.99634155 339.4416132 16.99364299 C335.34542097 16.98750055 331.24924907 16.98766143 327.15305328 16.98883736 C322.74128114 16.98904075 318.32951563 16.98352858 313.91774654 16.97877979 C305.26920547 16.97045959 296.62067122 16.96772435 287.97212648 16.96716741 C280.94606428 16.96669295 273.92000433 16.96464173 266.89394283 16.96146679 C246.99437909 16.95265692 227.09482075 16.948048 207.19525504 16.94879726 C206.12159289 16.94883722 205.04793073 16.94887718 203.94173336 16.94891834 C202.32928482 16.94897966 202.32928482 16.94897966 200.68426156 16.94904222 C183.25197524 16.94944892 165.8197105 16.93987441 148.38743043 16.92577998 C130.50829971 16.91143774 112.62917953 16.90450858 94.75004292 16.90537375 C84.70408753 16.90570644 74.65815477 16.90292795 64.61220455 16.8921957 C56.06085773 16.88311901 47.50954379 16.88089204 38.95819426 16.88770512 C34.59143497 16.89098458 30.22473888 16.89097606 25.8579855 16.88235188 C21.86594268 16.87454847 17.87401381 16.87585443 13.88197398 16.88463601 C12.43247834 16.8861847 10.98297444 16.88430404 9.53348851 16.87877593 C7.57370529 16.87179261 5.61388773 16.87816084 3.65410519 16.88533211 C2.01647874 16.88500606 2.01647874 16.88500606 0.34576893 16.88467342 C-2.37535313 16.87758031 -2.37535313 16.87758031 -4.20865726 19.13422108 Z M-19.20865726 29.13422108 C-22.67953058 35.77415264 -23.35589086 40.60409708 -23.34237003 48.05426502 C-23.34463559 48.96549263 -23.34690115 49.87672025 -23.34923536 50.81556082 C-23.35557654 53.87556975 -23.35474592 56.93553441 -23.35392094 59.9955492 C-23.3569123 62.18666612 -23.36031478 64.37778251 -23.36409855 66.5688982 C-23.37294382 72.52535433 -23.37527685 78.48179611 -23.37591434 84.43825817 C-23.37686293 89.40625457 -23.38054056 94.37424761 -23.38408643 99.34224272 C-23.39176711 110.3893913 -23.39475486 121.43653317 -23.39408108 132.48368424 C-23.39404112 133.14647175 -23.39400117 133.80925926 -23.39396 134.49213123 C-23.39391912 135.15572708 -23.39387824 135.81932293 -23.39383612 136.50302774 C-23.39342945 147.26361949 -23.40300474 158.02417628 -23.41709837 168.78475791 C-23.43145329 179.83190791 -23.43818581 190.87904 -23.43750459 201.92619944 C-23.43724918 208.1291059 -23.44012438 214.33197279 -23.45068264 220.5348711 C-23.46033665 226.36575305 -23.46046139 232.19655736 -23.45316601 238.02744198 C-23.45211688 240.17046757 -23.45450237 242.31349793 -23.46052647 244.45651531 C-23.46820295 247.37582833 -23.46363051 250.29487028 -23.45589542 253.21417713 C-23.46103899 254.06747876 -23.46618255 254.92078038 -23.47148198 255.79993963 C-23.4529528 261.26889202 -23.4529528 261.26889202 -21.20865726 266.13422108 C-15.89993481 260.44843049 -10.64201545 254.76738624 -5.77115726 248.69672108 C-1.92691087 243.91720186 2.16223318 239.44101763 6.35188961 234.96820545 C9.44899739 231.64284831 12.38748649 228.24711301 15.22884274 224.69672108 C19.25581018 219.6758016 23.58348977 215.01000291 27.99202633 210.32806873 C32.03402861 206.0119523 35.78729691 201.52918476 39.48274899 196.91156483 C42.62935981 193.12604825 45.98821939 189.55916946 49.35237789 185.96771717 C52.44928976 182.64249785 55.38763266 179.24693037 58.22884274 175.69672108 C62.25581018 170.6758016 66.58348977 166.01000291 70.99202633 161.32806873 C75.02132483 157.0255176 78.76455243 152.55833395 82.44759274 147.95453358 C86.99926013 142.47736048 91.91622295 137.32280035 96.79134274 132.13422108 C92.50023049 126.87760858 87.972416 122.49853279 82.79134274 118.13422108 C80.53785699 116.22162887 78.28879054 114.30390339 76.04134274 112.38422108 C75.44047848 111.87133533 74.83961422 111.35844959 74.22054195 110.83002186 C69.1941481 106.52072507 64.31025392 102.07158993 59.44759274 97.57953358 C54.92835427 93.41917581 50.28955665 89.40736572 45.61165524 85.42718983 C38.77507292 79.60392741 32.05703947 73.68792964 25.46321774 67.59125233 C22.60811947 64.96573068 19.70369029 62.40754267 16.77181149 59.86859608 C14.48001118 57.86157569 12.23137521 55.81019256 9.97884274 53.75922108 C6.53756069 50.64893257 3.02812976 47.66943796 -0.58365726 44.75922108 C-5.37937363 40.88839286 -9.92380807 36.80527029 -14.41324711 32.58783436 C-16.49258325 30.19045659 -16.49258325 30.19045659 -19.20865726 29.13422108 Z M367.72884274 34.69672108 C366.52898563 35.81332014 365.32846818 36.92921005 364.12728024 38.04437733 C363.54687984 38.58336658 362.96647945 39.12235584 362.36849117 39.67767811 C358.21657551 43.51209434 353.91918157 47.17543882 349.61556149 50.83734608 C342.77315218 56.66655795 336.05016613 62.58954639 329.44759274 68.68890858 C324.94047545 72.83810772 320.31614542 76.84122911 315.64681149 80.80609608 C309.69211525 85.87072192 303.8137162 90.98133014 298.10384274 96.32172108 C294.29134729 99.8875122 290.43099716 103.30522894 286.35384274 106.57172108 C281.28739464 110.63674825 276.54467938 114.98582974 271.82479 119.44257069 C267.91353942 123.13022345 263.90172778 126.66986447 259.79134274 130.13422108 C261.16840215 132.97838685 262.5368535 135.16784236 264.66634274 137.50922108 C268.03825207 141.27370197 271.32873173 145.09832284 274.60384274 148.94672108 C278.32425696 153.30780561 282.0975518 157.60187517 285.97884274 161.82172108 C289.14965015 165.27437804 292.17169305 168.78953074 295.10384274 172.44672108 C299.17882719 177.50258674 303.54366267 182.21609331 307.99153805 186.93988514 C312.03374072 191.25613545 315.78715073 195.73907474 319.48274899 200.35687733 C322.14413623 203.55864777 324.94595101 206.59658518 327.79134274 209.63422108 C331.42084882 213.50894871 334.90882232 217.42321851 338.22884274 221.57172108 C341.73777413 225.9467408 345.44978779 230.05443016 349.29134274 234.13422108 C353.90474796 239.03372895 358.24145713 244.05623907 362.44759274 249.31390858 C366.99926013 254.79108168 371.91622295 259.94564181 376.79134274 265.13422108 C379.40106382 261.21963945 379.07527642 257.91662876 379.05876827 253.3748064 C379.06556494 252.01559671 379.06556494 252.01559671 379.07249892 250.62892824 C379.08520154 247.57977867 379.08351875 244.53080637 379.08187008 241.48163319 C379.08785187 239.30039711 379.09465661 237.11916316 379.1022253 234.93793201 C379.11993306 229.00166586 379.12458284 223.06545733 379.12585688 217.12916732 C379.12775398 212.17420864 379.13510978 207.21926344 379.14220107 202.26430994 C379.15757074 191.23844222 379.16353737 180.21260144 379.16219036 169.18672376 C379.16207049 168.19405891 379.16207049 168.19405891 379.1619482 167.18134022 C379.16182556 166.18745899 379.16182556 166.18745899 379.16170044 165.17349935 C379.160939 155.11551245 379.17650591 145.05764993 379.20296383 134.99969959 C379.23359377 123.31559788 379.25047939 111.63158805 379.24903738 99.94744402 C379.24852778 93.76440421 379.25420944 87.5815235 379.27539349 81.39851665 C379.29478862 75.57822449 379.29489131 69.7582429 379.28036022 63.93793964 C379.27827228 61.80549445 379.28297211 59.67302977 379.29508114 57.54061794 C379.31058228 54.62089032 379.30119293 51.70222695 379.28581905 48.78252125 C379.29610618 47.94601455 379.30639331 47.10950786 379.31699216 46.24765247 C379.2434643 39.89336036 377.4536866 34.87200461 374.79134274 29.13422108 C372.37431938 29.13422108 369.51531849 33.01953036 367.72884274 34.69672108 Z M109.79134274 143.13422108 C105.74721584 146.94428275 102.08197396 150.92425095 98.60384274 155.25922108 C95.15373118 159.54981977 91.55364022 163.62090595 87.79134274 167.63422108 C84.16167373 171.50878478 80.67384857 175.42323672 77.35384274 179.57172108 C73.32687529 184.59264056 68.9991957 189.25843925 64.59065914 193.94037342 C60.54865686 198.25648985 56.79538856 202.73925739 53.09993649 207.35687733 C49.95332566 211.1423939 46.59446608 214.7092727 43.23030758 218.30072498 C40.13339571 221.62594431 37.19505282 225.02151178 34.35384274 228.57172108 C30.32687529 233.59264056 25.9991957 238.25843925 21.59065914 242.94037342 C17.55189737 247.25302959 13.80187072 251.73260879 10.10774899 256.34515858 C6.44669607 260.75323915 2.52019346 264.90730333 -1.38834476 269.09515858 C-4.74896564 272.6992047 -7.99998131 276.39453185 -11.20865726 280.13422108 C-4.02990443 286.45152358 5.10577656 285.42106757 14.08769894 285.39491749 C15.55575699 285.39793977 17.02381348 285.40182963 18.49186718 285.40651006 C22.51766371 285.41678896 26.54337117 285.41460851 30.569175 285.41032946 C34.91419608 285.40786204 39.25919572 285.4168766 43.60420895 285.42436695 C52.11338182 285.43711556 60.62252314 285.43890744 69.13170396 285.43656669 C76.0484166 285.43478354 82.96511967 285.4365331 89.88183117 285.44079113 C91.35855367 285.44168391 91.35855367 285.44168391 92.86510894 285.44259473 C94.86509863 285.44380649 96.86508831 285.44502062 98.86507799 285.44623711 C117.62063534 285.45711328 136.37617471 285.45494979 155.13173307 285.44885226 C172.28739185 285.44368311 189.44299384 285.45493839 206.59864138 285.47395048 C224.21693516 285.49332551 241.83520208 285.50158547 259.45350659 285.49782723 C269.34368357 285.49591467 279.23381223 285.49840811 289.12398052 285.51254177 C297.54363548 285.52445226 305.96321237 285.52586418 314.38286839 285.5137516 C318.67764789 285.50786058 322.97228455 285.50676965 327.26705456 285.51875401 C331.20133683 285.52960475 335.13535686 285.52651915 339.06962682 285.51249232 C340.49016038 285.50984316 341.91071444 285.51221885 343.33122788 285.52022818 C350.82435526 285.55953257 357.96859653 285.59572626 364.79134274 282.13422108 C365.45134274 281.47422108 366.11134274 280.81422108 366.79134274 280.13422108 C361.00215879 273.30439848 355.20107891 266.50468089 349.10384274 259.94672108 C345.71596046 256.30021725 342.47235735 252.57803782 339.35384274 248.69672108 C335.50959634 243.91720186 331.42045229 239.44101763 327.23079586 234.96820545 C324.13368808 231.64284831 321.19519898 228.24711301 318.35384274 224.69672108 C314.84491134 220.32170136 311.13289768 216.21401199 307.29134274 212.13422108 C302.66515683 207.22113993 298.31863586 202.18300386 294.09993649 196.91156483 C291.43854924 193.70979438 288.63673446 190.67185698 285.79134274 187.63422108 C282.16183665 183.75949344 278.67386315 179.84522365 275.35384274 175.69672108 C271.33328229 170.68379 267.01713194 166.0201415 262.60823727 161.35223866 C258.36857856 156.83580883 254.4769699 152.15242446 250.69368649 147.24359608 C248.81340581 145.15868527 247.3731935 144.16926147 244.79134274 143.13422108 C243.63118649 144.20349842 243.63118649 144.20349842 242.44759274 145.29437733 C235.60021148 151.59560104 228.69963445 157.81047025 221.61165524 163.84125233 C214.77718541 169.66271536 208.06302053 175.57914766 201.46712399 181.66937733 C196.47154004 186.27114881 191.37569682 190.72583963 186.10384274 195.00922108 C185.39872555 195.58414295 184.69360836 196.15906483 183.96712399 196.75140858 C181.41173908 198.37547726 179.82534917 198.99775902 176.79134274 199.13422108 C171.99509348 197.32767627 168.560654 194.38928594 164.91634274 190.88422108 C163.85442105 189.88751082 162.79192168 188.89141568 161.72884274 187.89593983 C161.22095211 187.41689198 160.71306149 186.93784412 160.18978024 186.44427967 C156.12148968 182.63309826 151.85643023 179.03884164 147.61165524 175.42718983 C141.79912986 170.47619839 136.02811212 165.50029177 130.41634274 160.32172108 C129.92271236 159.86619862 129.42908199 159.41067616 128.92049313 158.94134998 C128.44345943 158.50097401 127.96642574 158.06059803 127.47493649 157.60687733 C121.80654832 152.38403933 116.14679688 147.5035958 109.79134274 143.13422108 Z " fill="#000000" transform="translate(78.20865726470947,98.86577892303467)"/>
</svg>
