<?xml version="1.0" encoding="UTF-8"?>
<svg version="1.1" xmlns="http://www.w3.org/2000/svg" width="512" height="512">
<path d="M0 0 C4.57786448 2.50706428 7.56400697 5.51669856 10.8125 9.5625 C11.45469482 10.35358154 11.45469482 10.35358154 12.10986328 11.16064453 C13.41356239 12.7682676 14.70694749 14.3838098 16 16 C26.58875752 29.04520038 37.33492497 41.68012019 49.26391602 53.5246582 C51.07221608 55.32215805 52.86945977 57.13022316 54.66601562 58.93945312 C61.46829024 65.75020909 68.40751043 72.06829649 76 78 C76.69585205 78.56050049 77.3917041 79.12100098 78.10864258 79.69848633 C119.8351555 113.30060482 169.51687998 131.54040199 223.359375 125.74609375 C262.46995654 121.14865784 297.78986829 102.62498699 328 78 C328.78697266 77.36747314 328.78697266 77.36747314 329.58984375 76.72216797 C339.13853861 68.98532078 347.81765026 60.36576706 356.5 51.6875 C357.06657318 51.12192383 357.63314636 50.55634766 358.21688843 49.97363281 C364.35908329 43.83021372 370.39665276 37.64607185 376 31 C376.91229906 29.94361182 377.82503865 28.88760386 378.73828125 27.83203125 C384.30185756 21.30601534 389.61283029 14.67428143 394.7109375 7.77734375 C397.4103543 4.50211279 400.18824503 1.90587748 404 0 C409.53042052 -0.50502343 414.41030524 -0.73807257 419.5 1.625 C425.22592658 7.06463025 426.45501397 10.96789805 426.7265625 18.70703125 C424.96488268 26.69141884 418.32759553 33.29143975 413.1875 39.4375 C412.57511475 40.17540771 411.96272949 40.91331543 411.33178711 41.67358398 C407.31395459 46.49191636 403.21425184 51.21330276 398.9765625 55.83984375 C395.92517728 59.17465803 392.96423556 62.58779315 390 66 C391.5913587 69.96903581 394.35983383 72.58326873 397.375 75.5 C398.16269775 76.27633789 398.16269775 76.27633789 398.96630859 77.06835938 C400.63946456 78.71715141 402.31888599 80.35932516 404 82 C406.21412603 84.16086526 408.42151397 86.32829176 410.625 88.5 C411.13337402 88.99177734 411.64174805 89.48355469 412.16552734 89.99023438 C416.74555452 94.50641214 418.29336177 97.45823524 418.375 103.875 C418.27363418 109.08266907 417.69948398 112.10580633 414 116 C409.35351746 120.41415841 405.11206934 120.46758261 399 120.53125 C392.76072623 119.4263786 388.45855187 114.74360102 384.1640625 110.359375 C383.37773941 109.56880707 383.37773941 109.56880707 382.57553101 108.76226807 C380.92055166 107.09619309 379.27270711 105.42326417 377.625 103.75 C376.49656019 102.61151665 375.36765819 101.47349122 374.23828125 100.3359375 C371.48681792 97.56255488 368.74172617 94.78300766 366 92 C362.01735704 93.86091825 359.01164108 96.47469219 355.75 99.375 C343.91661588 109.68690425 331.3403501 118.74565838 318 127 C322.09433213 134.63064267 326.37823622 142.12486941 330.8125 149.5625 C331.96541019 151.50096531 333.11778232 153.43975075 334.26953125 155.37890625 C334.77073486 156.2201001 335.27193848 157.06129395 335.78833008 157.92797852 C338.80958748 163.09449303 338.54800819 168.10312309 338 174 C335.73212562 178.8846525 332.8846525 181.73212562 328 184 C322.57103646 184.73082201 317.7797769 184.73877532 312.6875 182.625 C305.31547165 175.42441417 300.30888563 165.78344836 295.0625 157 C294.37196926 155.85793717 293.68121512 154.71600937 292.99023438 153.57421875 C292.34505859 152.49785156 291.69988281 151.42148437 291.03515625 150.3125 C290.15935913 148.85263672 290.15935913 148.85263672 289.26586914 147.36328125 C288 145 288 145 288 143 C287.48429443 143.21092285 286.96858887 143.4218457 286.43725586 143.63916016 C265.00630447 152.31701216 241.42383731 160.29196561 218 160 C218.02094727 161.11971191 218.04189453 162.23942383 218.06347656 163.39306641 C218.13610426 167.56383377 218.18188211 171.73454568 218.21972656 175.90576172 C218.23979033 177.70794081 218.26704813 179.51005521 218.30175781 181.31201172 C218.35050829 183.90869136 218.37302082 186.50450729 218.390625 189.1015625 C218.41127014 189.9017984 218.43191528 190.7020343 218.45318604 191.52651978 C218.45529705 196.83916147 217.48340331 199.76422625 214 204 C210.18069828 207.62833663 207.11720994 208.31000458 202 208.5 C196.88279006 208.31000458 193.81930172 207.62833663 190 204 C185.84170859 198.94357099 185.44784789 195.36258981 185.609375 189.1015625 C185.61503479 188.26660248 185.62069458 187.43164246 185.62652588 186.57138062 C185.64879777 183.92198734 185.69897477 181.27397984 185.75 178.625 C185.77007698 176.82163421 185.78832565 175.01824708 185.8046875 173.21484375 C185.84863214 168.80936731 185.91759399 164.40491806 186 160 C185.12714355 159.95174072 184.25428711 159.90348145 183.35498047 159.85375977 C175.47947591 159.36360301 167.85692889 158.50624194 160.125 156.9375 C158.54356201 156.61966553 158.54356201 156.61966553 156.93017578 156.29541016 C142.90755071 153.32104008 129.09713711 148.84110547 116 143 C115.75088867 143.68320312 115.50177734 144.36640625 115.24511719 145.0703125 C113.78484156 148.50625515 111.97852374 151.67074778 110.078125 154.875 C109.50442169 155.84542236 109.50442169 155.84542236 108.91912842 156.83544922 C108.11090922 158.19816588 107.30058474 159.55963587 106.48828125 160.91992188 C105.25752099 162.98736617 104.04278594 165.06369259 102.828125 167.140625 C102.03743303 168.46933051 101.24579658 169.79747452 100.453125 171.125 C100.09663879 171.73972168 99.74015259 172.35444336 99.37286377 172.98779297 C96.4644449 177.79400114 93.07602907 181.46198547 88 184 C82.46957948 184.50502343 77.58969476 184.73807257 72.5 182.375 C67.90684717 178.01150481 65.75630132 174.94201879 65.484375 168.53515625 C65.59403021 161.0526013 68.65539534 156.09957242 72.625 149.9375 C73.86862519 147.9266697 75.11082208 145.91495532 76.3515625 143.90234375 C77.26276855 142.44803955 77.26276855 142.44803955 78.19238281 140.96435547 C80.97235238 136.40541563 83.49940848 131.71657701 86 127 C85.52804199 126.69408936 85.05608398 126.38817871 84.56982422 126.07299805 C68.71432588 115.75559054 54.25381307 104.41251503 40 92 C36.03096419 93.5913587 33.41673127 96.35983383 30.5 99.375 C29.98244141 99.90013184 29.46488281 100.42526367 28.93164062 100.96630859 C27.28284859 102.63946456 25.64067484 104.31888599 24 106 C21.83913474 108.21412603 19.67170824 110.42151397 17.5 112.625 C16.76233398 113.38756104 16.76233398 113.38756104 16.00976562 114.16552734 C11.49358786 118.74555452 8.54176476 120.29336177 2.125 120.375 C-3.08266907 120.27363418 -6.10580633 119.69948398 -10 116 C-14.41415841 111.35351746 -14.46758261 107.11206934 -14.53125 101 C-13.4263786 94.76072623 -8.74360102 90.45855187 -4.359375 86.1640625 C-3.83232971 85.63984711 -3.30528442 85.11563171 -2.76226807 84.57553101 C-1.09619309 82.92055166 0.57673583 81.27270711 2.25 79.625 C3.38848335 78.49656019 4.52650878 77.36765819 5.6640625 76.23828125 C8.43744512 73.48681792 11.21699234 70.74172617 14 68 C12.2249281 64.19858569 9.80919036 61.45099016 6.9375 58.4375 C1.69472113 52.82299004 -3.20027819 46.99965226 -8 41 C-9.05145934 39.70522219 -10.10358402 38.4109845 -11.15625 37.1171875 C-12.25030875 35.76587491 -13.34406093 34.41431406 -14.4375 33.0625 C-14.95820068 32.4233667 -15.47890137 31.7842334 -16.01538086 31.12573242 C-16.50401611 30.51834229 -16.99265137 29.91095215 -17.49609375 29.28515625 C-17.93107178 28.74769775 -18.3660498 28.21023926 -18.81420898 27.65649414 C-22.79001117 22.10248594 -22.71312551 16.64989535 -22 10 C-17.64759647 0.6255924 -9.723547 -1.72187812 0 0 Z " fill="#000000" transform="translate(54,240)"/>
</svg>
