<svg width="23" height="16" viewBox="0 0 23 16" fill="none" xmlns="http://www.w3.org/2000/svg">
<path d="M11.3344 15.4875C3.90938 15.4875 0.234375 8.4 0.084375 8.1C-0.028125 7.875 -0.028125 7.575 0.084375 7.35C0.234375 7.05 3.90938 0 11.3344 0C18.7594 0 22.4344 7.05 22.5844 7.35C22.6969 7.575 22.6969 7.875 22.5844 8.1C22.4344 8.4 18.7594 15.4875 11.3344 15.4875ZM1.80937 7.725C2.63437 9.1125 5.85938 13.8 11.3344 13.8C16.8094 13.8 20.0344 9.1125 20.8594 7.725C20.0344 6.3375 16.8094 1.65 11.3344 1.65C5.85938 1.65 2.63437 6.3375 1.80937 7.725Z" fill="white"/>
<path d="M11.3359 10.9121C9.57344 10.9121 8.14844 9.48711 8.14844 7.72461C8.14844 5.96211 9.57344 4.53711 11.3359 4.53711C13.0984 4.53711 14.5234 5.96211 14.5234 7.72461C14.5234 9.48711 13.0984 10.9121 11.3359 10.9121ZM11.3359 6.22461C10.5109 6.22461 9.83594 6.89961 9.83594 7.72461C9.83594 8.54961 10.5109 9.22461 11.3359 9.22461C12.1609 9.22461 12.8359 8.54961 12.8359 7.72461C12.8359 6.89961 12.1609 6.22461 11.3359 6.22461Z" fill="white"/>
</svg>
