<svg width="16" height="16" viewBox="0 0 16 16" fill="none" xmlns="http://www.w3.org/2000/svg">
<g clip-path="url(#clip0_7185_2037)">
<path d="M8.00098 6.25806C8.96679 6.25816 9.74219 7.0344 9.74219 8.00024C9.74208 8.96599 8.96673 9.74135 8.00098 9.74146C7.03514 9.74146 6.25889 8.96606 6.25879 8.00024C6.25879 7.03434 7.03507 6.25806 8.00098 6.25806ZM8.00098 6.71704C7.29188 6.71704 6.71777 7.29115 6.71777 8.00024C6.71788 8.70925 7.29195 9.28345 8.00098 9.28345C8.70992 9.28334 9.28407 8.70918 9.28418 8.00024C9.28418 7.29121 8.70998 6.71715 8.00098 6.71704Z" fill="#6B7280" stroke="#6B7280" stroke-width="0.666667"/>
<path d="M8 3.18311C9.88299 3.18311 11.2857 3.70032 12.3887 4.46436C13.4973 5.23232 14.3194 6.26082 15.0225 7.30908V7.31006C15.2961 7.72054 15.3007 8.25239 15.0186 8.6958C14.3158 9.73046 13.4946 10.7571 12.3877 11.5269C11.2843 12.2941 9.88195 12.8169 8 12.8169C6.11805 12.8169 4.71565 12.2941 3.6123 11.5269C2.50316 10.7555 1.68024 9.72673 0.976562 8.68994H0.977539C0.702243 8.27692 0.701227 7.72209 0.976562 7.30908C1.67971 6.26066 2.50257 5.23243 3.61133 4.46436C4.71427 3.70032 6.11701 3.18311 8 3.18311ZM8 3.64209C6.58937 3.64209 5.39046 3.92728 4.30469 4.57275C3.22351 5.21553 2.2781 6.20111 1.34961 7.56201L1.34766 7.56494C1.17301 7.82691 1.17301 8.17309 1.34766 8.43506L1.34961 8.43799C2.27812 9.79896 3.22348 10.7845 4.30469 11.4272C5.39048 12.0728 6.58933 12.3589 8 12.3589C9.41067 12.3589 10.6095 12.0728 11.6953 11.4272C12.7765 10.7845 13.7219 9.79896 14.6504 8.43799L14.6631 8.41943L14.6729 8.39893C14.7947 8.1551 14.7948 7.84489 14.6729 7.60107L14.6631 7.58057L14.6504 7.56201L14.3008 7.06982C13.483 5.96061 12.6414 5.13522 11.6953 4.57275C10.6095 3.92728 9.41063 3.64209 8 3.64209Z" fill="#6B7280" stroke="#6B7280" stroke-width="0.666667"/>
</g>
<defs>
<clipPath id="clip0_7185_2037">
<rect width="16" height="16" fill="white"/>
</clipPath>
</defs>
</svg>
