<svg width="22" height="24" viewBox="0 0 22 24" fill="none" xmlns="http://www.w3.org/2000/svg">
<path d="M8.38974 23.6328C8.15537 23.6328 7.92099 23.5547 7.68662 23.4375C7.29599 23.2031 7.10068 22.8125 7.10068 22.3828V9.96094L0.264745 2.03125C-0.0086929 1.64062 -0.0868179 1.13281 0.108495 0.703125C0.303807 0.273437 0.772557 0 1.28037 0H20.0304C20.5382 0 21.0069 0.3125 21.2022 0.78125C21.3976 1.25 21.3194 1.71875 20.9679 2.10937L14.2491 9.92187V19.0234C14.2491 19.2578 14.171 19.6094 13.8194 19.9609L13.7413 20.0391L9.05381 23.5156C8.85849 23.5938 8.62412 23.6328 8.38974 23.6328ZM8.58506 8.94531C8.78037 9.17969 8.89756 9.53125 8.89756 9.76562V21.4453L12.5304 18.75V9.76562C12.5304 9.57031 12.5304 9.21875 12.8429 8.90625L18.9366 1.79688H2.37412L8.58506 8.94531ZM7.21787 10.0781L7.25693 10.1172L7.21787 10.0781Z" fill="#637381"/>
</svg>
