<svg width="661" height="673" viewBox="0 0 661 673" fill="none" xmlns="http://www.w3.org/2000/svg">
<path d="M661 514.71H0V515.046H661V514.71Z" fill="#EBEBEB"/>
<path d="M417.314 523.876H383.656V524.213H417.314V523.876Z" fill="#EBEBEB"/>
<path d="M602.092 531.158H522.336V531.495H602.092V531.158Z" fill="#EBEBEB"/>
<path d="M376.494 524.038H294.094V524.375H376.494V524.038Z" fill="#EBEBEB"/>
<path d="M240.657 534.106H223.418V534.442H240.657V534.106Z" fill="#EBEBEB"/>
<path d="M335.907 534.106H257.406V534.442H335.907V534.106Z" fill="#EBEBEB"/>
<path d="M120.182 528.426H69.3516V528.762H120.182V528.426Z" fill="#EBEBEB"/>
<path d="M313.312 454.679H58.0471C56.0474 454.675 54.1308 453.864 52.718 452.423C51.3052 450.982 50.5117 449.029 50.5117 446.993V81.6481C50.5291 79.6238 51.3303 77.6882 52.7412 76.2617C54.1521 74.8353 56.0588 74.0333 58.0471 74.0298H313.312C315.314 74.0298 317.234 74.8395 318.65 76.2809C320.065 77.7222 320.861 79.6771 320.861 81.7154V446.993C320.861 449.031 320.065 450.986 318.65 452.428C317.234 453.869 315.314 454.679 313.312 454.679ZM58.0471 74.299C56.135 74.3026 54.3025 75.0784 52.9517 76.4563C51.6009 77.8341 50.8422 79.7014 50.8422 81.6481V446.993C50.8422 448.94 51.6009 450.807 52.9517 452.185C54.3025 453.563 56.135 454.339 58.0471 454.342H313.312C315.225 454.339 317.059 453.563 318.412 452.186C319.765 450.808 320.527 448.941 320.53 446.993V81.6481C320.527 79.7001 319.765 77.8329 318.412 76.4554C317.059 75.078 315.225 74.3025 313.312 74.299H58.0471Z" fill="#EBEBEB"/>
<path d="M599.276 454.679H343.998C341.997 454.675 340.079 453.864 338.664 452.424C337.249 450.983 336.453 449.03 336.449 446.993V81.6481C336.47 79.6226 337.274 77.687 338.687 76.2609C340.1 74.8348 342.008 74.0332 343.998 74.0298H599.276C601.262 74.0368 603.165 74.8404 604.573 76.2665C605.982 77.6925 606.781 79.6261 606.798 81.6481V446.993C606.798 449.027 606.007 450.977 604.597 452.418C603.187 453.859 601.273 454.671 599.276 454.679ZM343.998 74.299C342.085 74.3025 340.251 75.078 338.898 76.4554C337.545 77.8329 336.783 79.7001 336.78 81.6481V446.993C336.783 448.941 337.545 450.808 338.898 452.186C340.251 453.563 342.085 454.339 343.998 454.342H599.276C601.189 454.339 603.023 453.563 604.376 452.186C605.729 450.808 606.491 448.941 606.494 446.993V81.6481C606.491 79.7001 605.729 77.8329 604.376 76.4554C603.023 75.078 601.189 74.3025 599.276 74.299H343.998Z" fill="#EBEBEB"/>
<path d="M259.058 397.972H171.277L165.949 335.383H253.73L259.058 397.972Z" fill="#E6E6E6"/>
<path d="M263.608 397.972H175.828L170.5 335.383H258.281L263.608 397.972Z" fill="#F0F0F0"/>
<path d="M187.829 384.525L184.895 348.815H246.275L249.21 384.525H187.829Z" fill="white"/>
<path d="M278.798 397.972H268.5V514.71H278.798V397.972Z" fill="#E6E6E6"/>
<path d="M282.05 397.972H274.898V514.71H282.05V397.972Z" fill="#F0F0F0"/>
<path d="M182.355 410.853H282.047V397.972H182.355V410.853Z" fill="#F0F0F0"/>
<path d="M185.873 410.853H175.574V514.71H185.873V410.853Z" fill="#E6E6E6"/>
<path d="M189.125 410.853H181.973V514.71H189.125V410.853Z" fill="#F0F0F0"/>
<path d="M112.568 410.853H102.27V514.71H112.568V410.853Z" fill="#E6E6E6"/>
<path d="M115.82 410.853H108.668V514.71H115.82V410.853Z" fill="#F0F0F0"/>
<path d="M213.623 410.853H203.324V514.71H213.623V410.853Z" fill="#E6E6E6"/>
<path d="M216.859 410.853H209.707V514.71H216.859V410.853Z" fill="#F0F0F0"/>
<path d="M182.356 397.972H102.27V410.853H182.356V397.972Z" fill="#E6E6E6"/>
<path d="M480.995 106.886H171.211V282.485H480.995V106.886Z" fill="#E0E0E0"/>
<path d="M498.012 106.886H172.773V282.485H498.012V106.886Z" fill="#F5F5F5"/>
<path d="M492.695 277.074V112.296L178.086 112.296V277.074H492.695Z" fill="white"/>
<path d="M305.476 277.074L364.873 112.296H266.847L207.449 277.074H305.476Z" fill="#F5F5F5"/>
<path d="M399.824 277.074L459.221 112.296H385.269L325.871 277.074H399.824Z" fill="#F5F5F5"/>
<path d="M579.182 346.999H552.848V514.71H579.182V346.999Z" fill="#E6E6E6"/>
<path d="M572.254 514.71H579.181V501.802H564.996L572.254 514.71Z" fill="#FAFAFA"/>
<path d="M336.381 346.999H310.047V514.71H336.381V346.999Z" fill="#E6E6E6"/>
<path d="M579.18 346.999H330.34V511.224H579.18V346.999Z" fill="#FAFAFA"/>
<path d="M574.477 399.991H335.062V353.607H574.477V399.991ZM336.385 398.645H573.155V354.953H336.385V398.645Z" fill="#E6E6E6"/>
<path d="M532.331 376.126H381.848C374.868 376.126 368.139 370.392 363.34 360.378L362.891 359.422H551.276L550.826 360.378C545.988 370.392 539.378 376.126 532.331 376.126ZM365.059 360.728C369.527 369.652 375.635 374.74 381.848 374.74H532.331C538.571 374.74 544.652 369.652 549.121 360.728H365.059Z" fill="#E6E6E6"/>
<path d="M337.267 514.71H330.34V501.802H344.525L337.267 514.71Z" fill="#FAFAFA"/>
<path d="M574.477 452.256H335.062V405.926H574.477V452.256ZM336.385 450.91H573.155V407.272H336.385V450.91Z" fill="#E6E6E6"/>
<path d="M532.331 428.445H381.848C374.868 428.445 368.139 422.697 363.34 412.697L362.891 411.728H551.276L550.826 412.697C545.988 422.644 539.378 428.445 532.331 428.445ZM365.059 413.074C369.527 421.998 375.635 427.099 381.848 427.099H532.331C538.571 427.099 544.652 421.998 549.121 413.074H365.059Z" fill="#E6E6E6"/>
<path d="M574.477 504.615H335.062V458.232H574.477V504.615ZM336.385 503.269H573.155V459.578H336.385V503.269Z" fill="#E6E6E6"/>
<path d="M532.331 480.751H381.848C374.868 480.751 368.139 475.017 363.34 465.016L362.891 464.047H551.276L550.826 465.016C545.988 475.017 539.378 480.751 532.331 480.751ZM365.059 465.393C369.527 474.317 375.635 479.405 381.848 479.405H532.331C538.571 479.405 544.652 474.317 549.121 465.393H365.059Z" fill="#E6E6E6"/>
<path d="M159.937 369.181V372.438H157.901L156.209 397.972H131.302L129.623 372.438H127.574V369.181H159.937Z" fill="#E6E6E6"/>
<path d="M151.739 305.824C149.703 290.615 129.543 286.28 103.962 285.715C79.624 285.19 71.8242 276.428 71.8242 276.428C71.8242 276.428 71.9035 311.922 106.976 324.79C140.277 336.984 153.788 321.061 151.739 305.824Z" fill="#E6E6E6"/>
<path d="M139.312 340.295C139.735 334.05 149.544 322.555 173.142 327.778C190.196 331.56 196.541 322.555 196.541 322.555C196.541 322.555 194.955 347.968 169.308 355.599C144.944 362.854 138.559 351.306 139.312 340.295Z" fill="#E6E6E6"/>
<path d="M144.692 378.764C144.825 378.766 144.957 378.737 145.078 378.682C145.199 378.626 145.306 378.544 145.393 378.441C147.098 376.382 145.697 371.456 143.767 364.631C141.282 355.882 138.188 344.98 140.806 337.079C142.257 332.905 143.952 328.824 145.882 324.857C149.584 316.889 152.783 310.051 150.113 302.81C150.071 302.694 150.007 302.589 149.925 302.499C149.843 302.409 149.744 302.336 149.635 302.285C149.525 302.234 149.406 302.206 149.286 302.202C149.165 302.198 149.045 302.219 148.933 302.262C148.82 302.306 148.717 302.372 148.629 302.456C148.542 302.541 148.471 302.642 148.423 302.754C148.374 302.866 148.347 302.987 148.345 303.11C148.342 303.233 148.363 303.355 148.407 303.469C150.8 309.916 147.905 316.162 144.23 324.076C142.275 328.107 140.553 332.251 139.074 336.486C136.284 344.939 139.457 356.151 142.009 365.143C143.516 370.527 145.076 375.911 144.005 377.257C143.92 377.35 143.855 377.46 143.814 377.58C143.773 377.7 143.757 377.827 143.767 377.953C143.777 378.08 143.812 378.203 143.872 378.315C143.931 378.427 144.012 378.525 144.111 378.603C144.28 378.725 144.486 378.783 144.692 378.764Z" fill="#E6E6E6"/>
<path d="M330.498 575.496C472.061 575.496 586.821 568.674 586.821 560.259C586.821 551.844 472.061 545.022 330.498 545.022C188.935 545.022 74.1758 551.844 74.1758 560.259C74.1758 568.674 188.935 575.496 330.498 575.496Z" fill="#F5F5F5"/>
<path d="M330.449 485.973H142.725L132.453 178.587H320.177L330.449 485.973Z" fill="#3758F9"/>
<path d="M339.822 476.43H152.098L141.812 169.044H329.536L339.822 476.43Z" fill="#3758F9"/>
<path opacity="0.3" d="M339.822 476.43H152.098L141.812 169.044H329.536L339.822 476.43Z" fill="white"/>
<path d="M276.924 295.533C297.024 274.715 296.169 240.674 275.014 219.501C253.859 198.327 220.416 198.039 200.316 218.857C180.216 239.675 181.071 273.715 202.226 294.889C223.381 316.062 256.824 316.351 276.924 295.533Z" fill="#3758F9"/>
<path d="M282.21 257.207C282.48 264.531 280.911 271.805 277.649 278.339C274.129 285.381 268.751 291.284 262.12 295.388C255.488 299.492 247.864 301.633 240.104 301.571C232.162 301.527 224.37 299.358 217.511 295.28C210.652 291.202 204.967 285.36 201.026 278.339C197.351 271.905 195.298 264.645 195.05 257.207C194.807 251.439 195.717 245.681 197.726 240.283C199.735 234.885 202.802 229.959 206.739 225.805C210.675 221.65 215.401 218.354 220.628 216.117C225.854 213.879 231.473 212.747 237.143 212.789C248.823 212.873 260.023 217.535 268.415 225.807C276.808 234.078 281.748 245.323 282.21 257.207Z" fill="white"/>
<path opacity="0.6" d="M277.623 278.339C274.103 285.381 268.726 291.285 262.094 295.388C255.462 299.492 247.839 301.633 240.078 301.571C232.136 301.528 224.344 299.358 217.485 295.28C210.626 291.203 204.941 285.36 201 278.339C212.18 270.578 225.41 266.453 238.941 266.508C252.691 266.538 266.133 270.65 277.623 278.339Z" fill="#3758F9"/>
<path opacity="0.6" d="M252.2 256.1C259.591 248.445 259.277 235.928 251.498 228.142C243.719 220.357 231.422 220.251 224.031 227.906C216.64 235.561 216.954 248.078 224.733 255.863C232.512 263.649 244.81 263.755 252.2 256.1Z" fill="#3758F9"/>
<path d="M302.104 365.116H182.357L181.551 340.888H301.298L302.104 365.116Z" fill="white"/>
<path d="M303.559 408.416H183.799L182.992 384.188H302.752L303.559 408.416Z" fill="white"/>
<path d="M257.344 387.527L228.485 391.565C228.21 391.597 227.944 391.686 227.704 391.828C227.464 391.97 227.256 392.16 227.092 392.388C226.928 392.615 226.812 392.875 226.752 393.15C226.691 393.426 226.687 393.711 226.74 393.988L230.534 413.68C230.658 414.258 230.99 414.767 231.465 415.109C231.94 415.45 232.522 415.598 233.099 415.524L261.958 411.486C262.233 411.45 262.497 411.358 262.736 411.214C262.974 411.07 263.181 410.878 263.343 410.65C263.505 410.422 263.62 410.162 263.68 409.886C263.739 409.611 263.743 409.326 263.69 409.049L259.909 389.357C259.785 388.78 259.452 388.272 258.977 387.933C258.502 387.594 257.919 387.449 257.344 387.527ZM249.055 407.475L243.767 408.188L243.252 401.835C242.707 401.595 242.227 401.225 241.852 400.757C241.477 400.288 241.218 399.735 241.097 399.143C241 398.684 240.998 398.21 241.092 397.751C241.186 397.292 241.374 396.858 241.643 396.478C241.912 396.097 242.257 395.778 242.655 395.542C243.053 395.305 243.495 395.156 243.952 395.105C244.891 394.982 245.842 395.222 246.615 395.778C247.389 396.333 247.929 397.164 248.13 398.106C248.245 398.675 248.209 399.265 248.028 399.816C247.847 400.366 247.527 400.859 247.099 401.243L249.055 407.475Z" fill="#3758F9"/>
<path d="M254.487 386.463C253.977 386.529 253.461 386.399 253.04 386.098C252.619 385.796 252.324 385.346 252.213 384.835L251.843 382.91C251.315 380.283 249.868 377.941 247.773 376.317C245.677 374.693 243.075 373.898 240.447 374.08C239.121 374.157 237.827 374.524 236.653 375.155C235.479 375.786 234.452 376.667 233.641 377.739C232.831 378.81 232.257 380.046 231.958 381.363C231.658 382.681 231.641 384.048 231.907 385.373L232.33 387.594C232.379 387.84 232.378 388.094 232.325 388.339C232.272 388.585 232.17 388.816 232.024 389.019C231.879 389.221 231.693 389.391 231.479 389.517C231.266 389.642 231.029 389.721 230.783 389.747C230.272 389.82 229.753 389.692 229.331 389.39C228.909 389.087 228.615 388.633 228.51 388.119L228.153 386.248C227.79 384.499 227.778 382.694 228.117 380.941C228.457 379.187 229.141 377.522 230.129 376.045C231.117 374.567 232.388 373.309 233.866 372.344C235.344 371.38 236.998 370.729 238.729 370.432C242.482 369.791 246.333 370.645 249.484 372.818C252.635 374.991 254.843 378.316 255.65 382.102L256.073 384.31C256.123 384.559 256.12 384.816 256.065 385.064C256.01 385.312 255.904 385.545 255.754 385.748C255.604 385.952 255.414 386.12 255.195 386.244C254.977 386.367 254.736 386.442 254.487 386.463Z" fill="#3758F9"/>
<path d="M283.794 442.349H205.836L205.32 426.574H283.265L283.794 442.349Z" fill="#3758F9"/>
<path d="M246.184 353.002C246.208 353.577 246.116 354.151 245.915 354.69C245.714 355.228 245.407 355.719 245.014 356.133C244.621 356.547 244.149 356.875 243.628 357.098C243.106 357.321 242.546 357.434 241.98 357.43C240.815 357.421 239.697 356.956 238.858 356.132C238.019 355.308 237.523 354.187 237.472 353.002C237.449 352.426 237.541 351.852 237.742 351.314C237.943 350.776 238.249 350.285 238.643 349.871C239.036 349.457 239.507 349.128 240.029 348.905C240.55 348.682 241.111 348.569 241.676 348.573C242.843 348.579 243.962 349.043 244.802 349.868C245.642 350.692 246.137 351.815 246.184 353.002Z" fill="#263238"/>
<path d="M227.386 353.002C227.411 353.578 227.321 354.153 227.12 354.692C226.92 355.231 226.613 355.723 226.22 356.137C225.826 356.552 225.354 356.88 224.832 357.102C224.309 357.325 223.748 357.436 223.182 357.43C222.018 357.421 220.901 356.956 220.065 356.131C219.228 355.307 218.735 354.186 218.687 353.002C218.664 352.426 218.756 351.852 218.957 351.314C219.158 350.776 219.464 350.285 219.857 349.871C220.25 349.457 220.722 349.128 221.244 348.905C221.765 348.682 222.326 348.569 222.891 348.573C224.056 348.579 225.174 349.043 226.012 349.868C226.849 350.694 227.342 351.816 227.386 353.002Z" fill="#263238"/>
<path d="M208.706 353.002C208.729 353.577 208.638 354.151 208.437 354.69C208.235 355.228 207.929 355.719 207.536 356.133C207.143 356.547 206.671 356.875 206.15 357.098C205.628 357.321 205.068 357.434 204.502 357.43C203.337 357.424 202.219 356.96 201.381 356.135C200.544 355.31 200.052 354.187 200.007 353.002C199.984 352.426 200.076 351.852 200.277 351.314C200.478 350.776 200.785 350.285 201.178 349.871C201.571 349.457 202.042 349.128 202.564 348.905C203.085 348.682 203.646 348.569 204.211 348.573C205.377 348.579 206.495 349.043 207.332 349.868C208.17 350.694 208.662 351.816 208.706 353.002Z" fill="#263238"/>
<path d="M264.916 353.002C264.939 353.577 264.848 354.151 264.647 354.689C264.445 355.228 264.139 355.719 263.746 356.133C263.353 356.547 262.881 356.875 262.36 357.098C261.838 357.321 261.278 357.434 260.712 357.43C259.547 357.424 258.429 356.96 257.591 356.135C256.754 355.31 256.262 354.187 256.217 353.002C256.198 352.428 256.293 351.856 256.496 351.321C256.7 350.786 257.008 350.298 257.403 349.888C257.797 349.478 258.269 349.153 258.79 348.934C259.311 348.715 259.871 348.606 260.435 348.614C261.591 348.623 262.7 349.083 263.534 349.899C264.367 350.715 264.862 351.825 264.916 353.002Z" fill="#263238"/>
<path d="M283.652 353.002C283.677 353.578 283.586 354.153 283.386 354.692C283.185 355.231 282.879 355.723 282.486 356.137C282.092 356.552 281.62 356.88 281.097 357.102C280.575 357.325 280.014 357.436 279.448 357.43C278.283 357.421 277.167 356.956 276.33 356.131C275.493 355.307 275 354.186 274.953 353.002C274.929 352.426 275.021 351.852 275.222 351.314C275.424 350.776 275.73 350.285 276.123 349.871C276.516 349.457 276.988 349.128 277.509 348.905C278.031 348.682 278.591 348.569 279.157 348.573C280.322 348.579 281.44 349.043 282.278 349.868C283.115 350.694 283.607 351.816 283.652 353.002Z" fill="#263238"/>
<path d="M441.429 234.581C443.188 237.461 444.655 240.207 446.162 243.074C447.669 245.941 449.031 248.821 450.366 251.769C453.09 257.738 455.345 263.917 457.108 270.25C457.346 271.044 457.518 271.892 457.716 272.713L458.007 273.965L458.153 274.584L458.324 275.607C458.623 277.927 458.483 280.284 457.915 282.552C457.002 286.073 455.614 289.447 453.79 292.58C450.527 298.272 446.584 303.53 442.051 308.234L436.485 303.953C439.279 298.725 441.764 293.331 443.928 287.801C444.892 285.365 445.571 282.821 445.95 280.223C446.072 279.43 446.036 278.62 445.845 277.841L445.316 276.199C445.104 275.526 444.906 274.853 444.655 274.166C442.644 268.614 440.318 263.185 437.688 257.907C435.044 252.523 432.202 247.139 429.359 241.997L441.429 234.581Z" fill="#FF8B7B"/>
<path d="M437.901 302.083L431.82 305.353L438.8 313.672C438.8 313.672 443.163 310.67 443.361 306.094L437.901 302.083Z" fill="#FF8B7B"/>
<path d="M423.664 310.482L431.133 316.525L438.801 313.672L431.821 305.354L423.664 310.482Z" fill="#FF8B7B"/>
<path d="M398.12 190.54C397.974 191.293 397.459 191.818 396.983 191.724C396.507 191.63 396.229 190.93 396.375 190.19C396.52 189.449 397.036 188.844 397.525 189.005C398.014 189.167 398.265 189.786 398.12 190.54Z" fill="#263238"/>
<path d="M397.528 191.832C396.197 193.94 394.586 195.851 392.742 197.512C393.178 197.971 393.706 198.329 394.29 198.562C394.874 198.794 395.5 198.895 396.127 198.858L397.528 191.832Z" fill="#FF5652"/>
<path d="M395.148 218.24V209.411L406.623 210.757C406.623 210.757 406.438 218.348 400.013 220.582L395.148 218.24Z" fill="#FF8B7B"/>
<path d="M398.451 203.058L406.529 205.427L406.674 210.824L395.199 209.411L398.451 203.058Z" fill="#FF8B7B"/>
<path opacity="0.2" d="M406.53 205.427L398.452 203.058L396.879 206.126C396.965 208.545 397.707 210.891 399.023 212.906C400.339 214.921 402.178 216.525 404.335 217.541C405.723 215.567 406.534 213.234 406.675 210.811L406.53 205.427Z" fill="black"/>
<path d="M401.638 186.946C401.723 186.944 401.806 186.917 401.876 186.869C401.947 186.821 402.002 186.754 402.037 186.675C402.071 186.596 402.083 186.509 402.071 186.424C402.059 186.338 402.024 186.258 401.969 186.192C401.505 185.658 400.921 185.245 400.268 184.988C399.615 184.73 398.911 184.635 398.215 184.712C398.101 184.731 397.999 184.796 397.932 184.892C397.865 184.988 397.838 185.107 397.858 185.223C397.877 185.34 397.94 185.444 398.034 185.515C398.128 185.585 398.245 185.616 398.36 185.6C398.912 185.545 399.468 185.625 399.983 185.833C400.498 186.042 400.957 186.372 401.321 186.798C401.362 186.843 401.411 186.879 401.465 186.905C401.52 186.93 401.579 186.944 401.638 186.946Z" fill="#263238"/>
<path d="M418.534 204.161C417.212 211.093 416.393 220.69 421.178 225.307C421.178 225.307 419.327 232.333 406.636 232.333C392.742 232.333 399.96 226.168 399.96 226.168C405.737 224.338 405.684 217.648 404.362 212.264L418.534 204.161Z" fill="#FF8B7B"/>
<path d="M423.756 229.937C424.999 228.16 424.946 222.52 423.624 221.524C421.495 219.923 412.36 219.546 400.079 222.426C401.401 227.891 398.559 230.744 398.559 230.744L423.756 229.937Z" fill="#3758F9"/>
<path d="M465.082 549.491C464.705 549.626 464.305 549.684 463.906 549.661C463.506 549.638 463.115 549.534 462.755 549.357C462.619 549.227 462.525 549.058 462.488 548.873C462.45 548.687 462.469 548.494 462.544 548.32C462.585 548.175 462.658 548.04 462.756 547.926C462.854 547.812 462.976 547.722 463.112 547.661C464.368 547.041 467.25 548.239 467.382 548.293C467.422 548.309 467.455 548.337 467.479 548.373C467.503 548.409 467.515 548.452 467.515 548.495C467.514 548.538 467.503 548.581 467.482 548.618C467.462 548.656 467.432 548.688 467.396 548.71C466.65 549.044 465.876 549.305 465.082 549.491ZM463.562 547.97C463.475 547.991 463.39 548.023 463.311 548.064C463.228 548.095 463.154 548.145 463.094 548.211C463.034 548.276 462.991 548.355 462.967 548.441C462.848 548.845 462.967 548.98 463.046 549.02C463.549 549.451 465.399 549.02 466.708 548.522C465.713 548.103 464.638 547.914 463.562 547.97Z" fill="#3758F9"/>
<path d="M467.34 548.724H467.234C466.176 548.414 463.929 546.785 463.902 545.722C463.901 545.553 463.957 545.389 464.061 545.257C464.164 545.124 464.309 545.032 464.471 544.995C464.628 544.936 464.795 544.912 464.962 544.926C465.129 544.94 465.291 544.991 465.436 545.076C466.679 545.722 467.472 548.333 467.498 548.454C467.517 548.487 467.527 548.524 467.527 548.562C467.527 548.6 467.517 548.637 467.498 548.67C467.478 548.691 467.453 548.707 467.425 548.716C467.398 548.725 467.368 548.728 467.34 548.724ZM464.696 545.372H464.59C464.325 545.466 464.325 545.601 464.325 545.668C464.325 546.301 465.832 547.58 466.969 548.091C466.692 547.337 466.084 545.843 465.277 545.399C465.098 545.316 464.895 545.307 464.709 545.372H464.696Z" fill="#3758F9"/>
<path d="M396.416 551.079C395.227 551.079 394.076 550.904 393.693 550.366C393.593 550.222 393.539 550.051 393.539 549.875C393.539 549.699 393.593 549.527 393.693 549.383C393.769 549.252 393.87 549.137 393.99 549.047C394.111 548.957 394.248 548.893 394.394 548.858C395.94 548.428 399.193 550.312 399.325 550.393C399.365 550.413 399.398 550.447 399.417 550.488C399.436 550.53 399.441 550.577 399.431 550.622C399.426 550.668 399.406 550.711 399.375 550.745C399.344 550.779 399.303 550.802 399.259 550.81C398.321 550.985 397.37 551.075 396.416 551.079ZM394.949 549.235C394.809 549.212 394.666 549.212 394.526 549.235C394.436 549.254 394.352 549.291 394.277 549.344C394.202 549.398 394.138 549.466 394.09 549.545C393.931 549.827 393.997 549.962 394.09 550.043C394.526 550.662 396.866 550.675 398.598 550.42C397.467 549.791 396.228 549.389 394.949 549.235Z" fill="#3758F9"/>
<path d="M399.244 550.81H399.151C398.027 550.298 395.806 548.252 395.978 547.176C395.978 546.92 396.19 546.61 396.798 546.556C397.015 546.53 397.235 546.551 397.445 546.615C397.654 546.68 397.848 546.788 398.014 546.933C398.861 547.965 399.37 549.24 399.468 550.581C399.468 550.619 399.459 550.657 399.443 550.692C399.428 550.727 399.404 550.758 399.376 550.783C399.335 550.804 399.289 550.813 399.244 550.81ZM396.97 546.974H396.837C396.441 546.974 396.414 547.162 396.414 547.216C396.309 547.862 397.816 549.477 398.966 550.177C398.865 549.097 398.435 548.076 397.736 547.256C397.519 547.068 397.242 546.967 396.956 546.974H396.97Z" fill="#3758F9"/>
<path d="M409.45 550.594H400.156L399.23 528.668H408.524L409.45 550.594Z" fill="#FF8B7B"/>
<path d="M477.705 546.207L468.623 548.212L459.488 527.794L468.584 525.788L477.705 546.207Z" fill="#FF8B7B"/>
<path d="M467.738 547.283L477.957 545.035C478.136 544.997 478.322 545.021 478.485 545.104C478.649 545.187 478.779 545.324 478.856 545.493L482.399 553.327C482.493 553.517 482.542 553.726 482.542 553.939C482.541 554.151 482.491 554.361 482.395 554.55C482.3 554.739 482.162 554.902 481.993 555.027C481.823 555.151 481.627 555.233 481.421 555.265C477.851 555.978 476.067 556.153 471.585 557.136C468.822 557.755 462.582 559.303 458.762 560.138C454.941 560.972 453.632 557.244 455.126 556.557C461.802 553.448 464.579 550.716 466.39 548.172C466.717 547.717 467.197 547.401 467.738 547.283Z" fill="#263238"/>
<path d="M400.225 549.491H410.378C410.562 549.492 410.741 549.556 410.885 549.674C411.029 549.791 411.13 549.954 411.171 550.137L413.009 558.549C413.063 558.753 413.069 558.966 413.027 559.172C412.985 559.378 412.896 559.572 412.768 559.737C412.639 559.902 412.474 560.034 412.287 560.122C412.099 560.21 411.893 560.253 411.687 560.245C408.025 560.178 402.737 559.963 398.136 559.963C392.742 559.963 388.102 560.259 381.783 560.259C377.963 560.259 376.905 556.328 378.505 555.965C385.776 554.35 391.725 554.175 398.004 550.231C398.664 549.781 399.432 549.525 400.225 549.491Z" fill="#263238"/>
<path d="M437.809 227.474C446.521 229.507 453.673 252.16 453.673 252.16L436.263 265.714C431.744 260.794 428.555 254.765 427.009 248.216C423.928 236.344 428.899 225.374 437.809 227.474Z" fill="#3758F9"/>
<path opacity="0.4" d="M437.809 227.474C446.521 229.507 453.673 252.16 453.673 252.16L436.263 265.714C431.744 260.794 428.555 254.765 427.009 248.216C423.928 236.344 428.899 225.374 437.809 227.474Z" fill="black"/>
<path d="M391.974 254.488C389.806 256.871 387.638 258.997 385.364 261.218C384.24 262.295 383.103 263.372 381.94 264.408L380.182 265.983L379.745 266.373L378.992 266.992C378.216 267.623 377.357 268.14 376.44 268.527C375.42 268.968 374.323 269.197 373.215 269.2C372.268 269.204 371.327 269.035 370.439 268.702C369.453 268.32 368.553 267.738 367.795 266.992C366.826 266.029 366.116 264.829 365.732 263.506C365.531 262.854 365.403 262.182 365.349 261.501C365.28 260.704 365.28 259.902 365.349 259.105C365.415 258.459 365.494 257.894 365.6 257.369C365.962 255.533 366.475 253.732 367.134 251.985C367.728 250.323 368.412 248.697 369.183 247.112C370.029 245.403 370.835 244.151 371.642 242.724C374.917 237.261 378.655 232.1 382.812 227.299C386.928 222.527 391.464 218.147 396.363 214.216L401.228 219.317C397.817 223.974 394.459 228.968 391.353 233.881C388.261 238.766 385.436 243.821 382.892 249.023C382.323 250.289 381.57 251.715 381.213 252.738C380.74 253.927 380.33 255.14 379.983 256.373C379.65 257.483 379.398 258.616 379.23 259.764C379.221 259.944 379.221 260.124 379.23 260.303C379.23 260.411 379.23 260.464 379.23 260.182C379.208 259.88 379.15 259.581 379.058 259.293C378.772 258.339 378.248 257.477 377.538 256.79C376.905 256.198 376.164 255.741 375.356 255.444C374.647 255.17 373.894 255.029 373.135 255.027C372.406 255.018 371.681 255.16 371.007 255.444C370.779 255.539 370.558 255.651 370.346 255.78L370.848 255.309L372.448 253.829L375.608 250.814C377.696 248.808 379.798 246.668 381.781 244.676L391.974 254.488Z" fill="#FF8B7B"/>
<path opacity="0.2" d="M430.337 244.11C435.07 248.875 436.616 257.57 436.947 265.108L436.18 265.714C431.661 260.794 428.472 254.765 426.926 248.216C426.754 247.516 426.596 246.87 426.477 246.102L430.337 244.11Z" fill="black"/>
<path d="M382.732 236.896C380.828 247.126 379.638 268.137 385.151 309.728H434.937C435.281 301.962 430.482 264.031 437.846 227.407C432.344 226.331 426.78 225.616 421.189 225.267C414.144 224.855 407.082 224.855 400.037 225.267C397.71 225.482 395.41 225.832 393.427 226.195C390.789 226.666 388.355 227.942 386.445 229.852C384.535 231.763 383.24 234.219 382.732 236.896Z" fill="#3758F9"/>
<path opacity="0.4" d="M382.732 236.896C380.828 247.126 379.638 268.137 385.151 309.728H434.937C435.281 301.962 430.482 264.031 437.846 227.407C432.344 226.331 426.78 225.616 421.189 225.267C414.144 224.855 407.082 224.855 400.037 225.267C397.71 225.482 395.41 225.832 393.427 226.195C390.789 226.666 388.355 227.942 386.445 229.852C384.535 231.763 383.24 234.219 382.732 236.896Z" fill="black"/>
<path opacity="0.2" d="M390.349 252.065L381.36 249.871C381.082 255.417 381.055 262.281 381.452 270.774C385.59 265.983 390.878 258.499 390.349 252.065Z" fill="black"/>
<path opacity="0.2" d="M399.23 528.668L399.706 539.974H409.013L408.537 528.668H399.23Z" fill="black"/>
<path opacity="0.2" d="M468.584 525.788L459.488 527.794L464.195 538.319L473.29 536.314L468.584 525.788Z" fill="black"/>
<path d="M422.95 194.039C420.57 203.111 419.619 208.549 414.119 212.318C405.857 218.052 395.545 211.483 395.281 201.9C394.99 193.245 398.942 179.852 408.501 178.022C410.601 177.62 412.767 177.77 414.795 178.457C416.823 179.144 418.645 180.345 420.091 181.948C421.537 183.55 422.558 185.501 423.058 187.617C423.558 189.732 423.521 191.942 422.95 194.039Z" fill="#FF8B7B"/>
<path d="M402.086 194.376C401.636 193.164 399.587 183.783 401.517 181.347C403.447 178.91 425.459 180.673 428.711 183.931C434.118 189.315 430.363 194.16 424.454 200.392C420.012 205.076 419.84 210.353 417.593 211.16C413.627 212.506 407.572 211.241 406.356 206.974C405.139 202.708 402.086 194.376 402.086 194.376Z" fill="#263238"/>
<path d="M426.042 173.257C418.269 169.892 403.687 173.62 395.808 171.682C395.708 174.665 396.671 177.584 398.52 179.9C400.37 182.216 402.98 183.772 405.868 184.281C412.404 185.549 419.045 186.175 425.698 186.152C434.344 185.748 432.652 176.124 426.042 173.257Z" fill="#263238"/>
<path d="M427.258 184.214C430.097 184.498 432.957 183.942 435.494 182.612C436.948 186.192 428.95 187.175 427.258 184.214Z" fill="#263238"/>
<path d="M406.316 194.753C406.137 197.087 405.208 199.296 403.672 201.039C401.636 203.313 399.521 201.887 399.164 199.127C398.846 196.624 399.507 192.397 401.993 191.186C404.478 189.974 406.488 191.94 406.316 194.753Z" fill="#FF8B7B"/>
<path d="M402.801 309.768C402.801 309.768 413.377 382.116 419.154 409.224C425.486 438.903 459.515 537.094 459.515 537.094L476.159 533.419C476.159 533.419 452.363 453.386 447.075 411.889C442.976 380.016 434.925 309.741 434.925 309.741L402.801 309.768Z" fill="#3758F9"/>
<path d="M455.521 531.454C455.454 531.454 458.627 537.592 458.627 537.592L477.347 533.46L475.774 527.726L455.521 531.454Z" fill="#263238"/>
<path opacity="0.3" d="M409.476 335.544C421.678 337.98 420.383 384.31 418.915 408.147C415.399 391.295 410.243 358.884 406.727 335.88C407.579 335.452 408.549 335.333 409.476 335.544Z" fill="black"/>
<path d="M385.151 309.768C385.151 309.768 383.829 380.554 384.887 409.372C385.944 439.401 396.243 537.727 396.243 537.727H412.001C412.001 537.727 412.569 441.151 413.323 411.66C414.09 379.518 417.897 309.714 417.897 309.714L385.151 309.768Z" fill="#3758F9"/>
<path d="M393.216 531.4C393.136 531.4 394.101 538.05 394.101 538.05H413.257L413.786 532.114L393.216 531.4Z" fill="#263238"/>
<path d="M402.221 240.045C406.676 252.28 380.487 266.696 380.487 266.696L369.145 251.89C369.145 251.89 376.772 236.519 386.026 229.6C397.462 221.067 398.823 230.731 402.221 240.045Z" fill="#3758F9"/>
<path opacity="0.4" d="M402.221 240.045C406.676 252.28 380.487 266.696 380.487 266.696L369.145 251.89C369.145 251.89 376.772 236.519 386.026 229.6C397.462 221.067 398.823 230.731 402.221 240.045Z" fill="black"/>
<path d="M504.832 147.158C531.182 147.158 552.543 133.298 552.543 116.2C552.543 99.1026 531.182 85.2422 504.832 85.2422C478.482 85.2422 457.121 99.1026 457.121 116.2C457.121 133.298 478.482 147.158 504.832 147.158Z" fill="#3758F9"/>
<path d="M487.619 131.787C484.476 131.777 481.437 130.639 479.036 128.574C476.635 126.508 475.026 123.648 474.491 120.494C473.965 117.078 474.722 113.586 476.611 110.713C478.5 107.839 481.382 105.796 484.684 104.988C487.393 104.352 490.231 104.597 492.796 105.689C495.362 106.78 497.528 108.663 498.988 111.072L529.619 104.638C530.796 104.376 532.027 104.575 533.066 105.196C534.105 105.818 534.876 106.815 535.224 107.99C535.384 108.607 535.419 109.252 535.326 109.883C535.234 110.515 535.016 111.121 534.685 111.664C534.355 112.207 533.919 112.676 533.405 113.041C532.891 113.407 532.309 113.662 531.694 113.791L530.901 113.953C530.783 113.974 530.672 114.023 530.575 114.095C530.479 114.168 530.401 114.262 530.346 114.37C530.297 114.48 530.271 114.599 530.271 114.72C530.271 114.84 530.297 114.96 530.346 115.07L530.888 116.496C531.069 116.959 531.087 117.471 530.937 117.946C530.788 118.42 530.48 118.826 530.068 119.094C529.743 119.299 529.468 119.576 529.264 119.905C529.06 120.234 528.933 120.606 528.891 120.992C528.853 121.436 528.677 121.856 528.39 122.192C528.102 122.528 527.718 122.763 527.292 122.863L526.67 122.998C526.24 123.079 525.795 123.018 525.4 122.824C525.006 122.631 524.682 122.314 524.476 121.921C524.202 121.451 523.79 121.081 523.299 120.861C522.808 120.641 522.262 120.582 521.736 120.693C521.211 120.804 520.733 121.08 520.368 121.481C520.004 121.882 519.772 122.388 519.704 122.93C519.667 123.371 519.493 123.789 519.208 124.123C518.923 124.457 518.541 124.69 518.117 124.788L517.496 124.922C517.065 125.001 516.621 124.94 516.227 124.746C515.833 124.553 515.509 124.238 515.301 123.846C515.103 123.512 514.836 123.226 514.519 123.007C514.202 122.789 513.842 122.643 513.464 122.58C512.955 122.518 512.487 122.269 512.146 121.88C511.805 121.491 511.616 120.988 511.613 120.467V118.933C511.608 118.813 511.577 118.695 511.523 118.588C511.469 118.482 511.393 118.388 511.3 118.314C511.207 118.24 511.099 118.187 510.985 118.159C510.87 118.131 510.75 118.129 510.635 118.152L500.865 120.198C500.467 122.954 499.244 125.518 497.363 127.541C495.483 129.564 493.036 130.948 490.355 131.504C489.455 131.692 488.538 131.787 487.619 131.787ZM484.975 106.213C481.976 106.926 479.354 108.77 477.637 111.372C475.92 113.974 475.235 117.142 475.721 120.238C476.241 123.119 477.756 125.714 479.992 127.556C482.228 129.398 485.038 130.363 487.913 130.279C490.788 130.194 493.539 129.065 495.667 127.095C497.795 125.125 499.161 122.444 499.517 119.538V119.054L510.291 116.833C510.6 116.757 510.922 116.752 511.233 116.818C511.544 116.884 511.837 117.02 512.09 117.216C512.343 117.412 512.551 117.663 512.697 117.951C512.843 118.238 512.924 118.555 512.935 118.879V120.413C512.938 120.596 513.003 120.772 513.118 120.912C513.234 121.052 513.393 121.147 513.569 121.181C514.147 121.265 514.699 121.482 515.182 121.815C515.665 122.149 516.068 122.59 516.359 123.105C516.429 123.251 516.542 123.37 516.681 123.447C516.821 123.524 516.981 123.555 517.139 123.536L517.747 123.401C517.901 123.361 518.038 123.271 518.138 123.145C518.238 123.019 518.296 122.863 518.302 122.702C518.386 121.864 518.728 121.074 519.281 120.448C519.834 119.821 520.568 119.39 521.377 119.216C522.187 119.042 523.03 119.135 523.784 119.481C524.538 119.827 525.165 120.408 525.573 121.14C525.641 121.284 525.751 121.403 525.889 121.481C526.026 121.558 526.184 121.589 526.34 121.571L526.975 121.436C527.126 121.393 527.261 121.303 527.358 121.177C527.456 121.051 527.511 120.897 527.517 120.736C527.582 120.145 527.779 119.577 528.093 119.076C528.407 118.574 528.829 118.153 529.328 117.842C529.473 117.735 529.58 117.582 529.63 117.406C529.68 117.231 529.672 117.043 529.605 116.873L529.063 115.447C528.951 115.152 528.904 114.837 528.924 114.522C528.944 114.207 529.031 113.901 529.18 113.624C529.328 113.347 529.534 113.106 529.784 112.919C530.033 112.732 530.32 112.602 530.623 112.539L531.43 112.364C531.866 112.27 532.279 112.086 532.644 111.825C533.01 111.564 533.319 111.231 533.555 110.845C533.791 110.459 533.948 110.029 534.016 109.58C534.085 109.131 534.064 108.673 533.955 108.232C533.697 107.385 533.134 106.669 532.378 106.227C531.623 105.785 530.732 105.65 529.883 105.85L498.393 112.512L498.155 112.095C496.89 109.802 494.926 107.99 492.56 106.934C490.194 105.878 487.555 105.634 485.041 106.24L484.975 106.213ZM487.619 126.78C485.976 126.799 484.364 126.331 482.978 125.434C481.339 124.338 480.124 122.697 479.54 120.791C478.956 118.885 479.039 116.832 479.775 114.982C480.512 113.131 481.856 111.598 483.578 110.643C485.301 109.689 487.295 109.372 489.221 109.747C491.147 110.122 492.886 111.166 494.141 112.7C495.396 114.235 496.089 116.165 496.103 118.161C496.117 120.158 495.45 122.097 494.216 123.649C492.982 125.201 491.258 126.27 489.337 126.672C488.775 126.776 488.203 126.821 487.632 126.807L487.619 126.78ZM487.619 110.884C487.126 110.887 486.635 110.936 486.151 111.032C485.23 111.231 484.357 111.614 483.581 112.157C482.805 112.701 482.142 113.394 481.63 114.199C481.117 115.003 480.765 115.902 480.594 116.845C480.423 117.788 480.436 118.756 480.632 119.693C480.828 120.631 481.204 121.52 481.737 122.31C482.271 123.1 482.952 123.775 483.742 124.297C484.532 124.819 485.415 125.177 486.341 125.351C487.267 125.526 488.218 125.513 489.139 125.313C490.521 125.02 491.788 124.316 492.779 123.292C493.769 122.267 494.44 120.966 494.705 119.554C494.971 118.142 494.82 116.681 494.272 115.356C493.724 114.031 492.802 112.901 491.624 112.109C490.454 111.316 489.077 110.899 487.671 110.911L487.619 110.884Z" fill="white"/>
<path opacity="0.6" d="M466.007 165.316C474.666 165.316 481.686 160.76 481.686 155.14C481.686 149.52 474.666 144.964 466.007 144.964C457.348 144.964 450.328 149.52 450.328 155.14C450.328 160.76 457.348 165.316 466.007 165.316Z" fill="#3758F9"/>
<path opacity="0.3" d="M441.059 169.488C444.615 169.488 447.497 167.62 447.497 165.316C447.497 163.011 444.615 161.143 441.059 161.143C437.504 161.143 434.621 163.011 434.621 165.316C434.621 167.62 437.504 169.488 441.059 169.488Z" fill="#3758F9"/>
</svg>
