<svg width="18" height="13" viewBox="0 0 18 13" fill="none" xmlns="http://www.w3.org/2000/svg">
<path d="M8.75042 0C8.52894 0 8.31019 0.0382812 8.10237 0.112109L0.432452 2.88203C0.172687 2.97773 0.000420882 3.22383 0.000420882 3.5C0.000420882 3.77617 0.172687 4.02227 0.432452 4.11797L2.01566 4.68945C1.56722 5.39492 1.31292 6.22891 1.31292 7.10664V7.875C1.31292 8.65156 1.01761 9.45273 0.703155 10.0844C0.525421 10.4398 0.323077 10.7898 0.0879209 11.1125C0.000420883 11.2301 -0.0241885 11.3832 0.0250303 11.5227C0.074249 11.6621 0.189093 11.766 0.33128 11.8016L2.08128 12.2391C2.19612 12.2691 2.31917 12.2473 2.42034 12.1844C2.52151 12.1215 2.59261 12.0176 2.61448 11.9C2.84964 10.7297 2.73206 9.67969 2.55706 8.92773C2.46956 8.53945 2.35198 8.14297 2.18792 7.7793V7.10664C2.18792 6.28086 2.46683 5.50156 2.95081 4.87812C3.30355 4.4543 3.76019 4.1125 4.29612 3.90195L8.58909 2.21484C8.81331 2.12734 9.06761 2.23672 9.15511 2.46094C9.24261 2.68516 9.13323 2.93945 8.90901 3.02695L4.61605 4.71406C4.27698 4.84805 3.97894 5.05312 3.73558 5.30469L8.09964 6.87969C8.30745 6.95352 8.5262 6.9918 8.74769 6.9918C8.96917 6.9918 9.18792 6.95352 9.39573 6.87969L17.0684 4.11797C17.3282 4.025 17.5004 3.77617 17.5004 3.5C17.5004 3.22383 17.3282 2.97773 17.0684 2.88203L9.39847 0.112109C9.19065 0.0382812 8.9719 0 8.75042 0ZM3.50042 10.2812C3.50042 11.2465 5.85198 12.25 8.75042 12.25C11.6489 12.25 14.0004 11.2465 14.0004 10.2812L13.5821 6.30547L9.69378 7.71094C9.39026 7.82031 9.07034 7.875 8.75042 7.875C8.4305 7.875 8.10784 7.82031 7.80706 7.71094L3.91878 6.30547L3.50042 10.2812Z" fill="white"/>
</svg>
