<svg width="42" height="36" viewBox="0 0 42 36" fill="none" xmlns="http://www.w3.org/2000/svg">
<path d="M36.5062 6.01563H31.35L30.1125 3.20312C29.2187 1.25 27.5 0 25.575 0H15.95C14.025 0 12.3062 1.25 11.4125 3.20312L10.175 6.01563H5.01875C2.26875 6.01563 0 8.59375 0 11.7188V29.6094C0 32.7344 2.26875 35.3125 5.01875 35.3125H36.5062C39.2562 35.3125 41.525 32.7344 41.525 29.6094V11.7969C41.5937 8.59375 39.325 6.01563 36.5062 6.01563ZM38.5 29.6875C38.5 30.9375 37.6062 31.875 36.575 31.875H5.01875C3.91875 31.875 3.09375 30.8594 3.09375 29.6875V11.7969C3.09375 10.5469 3.9875 9.60938 5.01875 9.60938H11.1375C11.7562 9.60938 12.2375 9.21875 12.5125 8.67188L14.1625 4.92188C14.5062 4.14063 15.1937 3.67188 15.8812 3.67188H25.575C26.3312 3.67188 27.0187 4.14063 27.2937 4.92188L28.9437 8.67188C29.2187 9.29688 29.7687 9.60938 30.3187 9.60938H36.4375C37.5375 9.60938 38.3625 10.625 38.3625 11.7969V29.6875H38.5Z" fill="#111928"/>
<path d="M20.7633 12.0312C16.982 12.0312 13.957 15.4687 13.957 19.7656C13.957 24.0625 16.982 27.5 20.7633 27.5C24.5445 27.5 27.5695 24.0625 27.5695 19.7656C27.5695 15.4687 24.5445 12.0312 20.7633 12.0312ZM20.7633 23.9063C18.7008 23.9063 17.0508 22.0312 17.0508 19.6875C17.0508 17.3438 18.7008 15.4688 20.7633 15.4688C22.8258 15.4688 24.4758 17.3438 24.4758 19.6875C24.4758 22.0312 22.8258 23.9063 20.7633 23.9063Z" fill="#111928"/>
<path d="M10.2438 12.0312H6.7375C5.9125 12.0312 5.15625 12.8125 5.15625 13.8281C5.15625 14.8438 5.84375 15.625 6.7375 15.625H10.2438C11.0688 15.625 11.825 14.8438 11.825 13.8281C11.825 12.8125 11.1375 12.0312 10.2438 12.0312Z" fill="#111928"/>
</svg>
