<svg width="16" height="19" viewBox="0 0 16 19" fill="none" xmlns="http://www.w3.org/2000/svg">
<path d="M12.4344 5.86271V5.09084C12.4344 2.71584 10.6531 0.697088 8.39688 0.518963C7.15 0.400213 5.90312 0.845526 4.98281 1.67678C4.0625 2.50803 3.52812 3.69553 3.52812 4.91271V5.86271C1.80625 6.18928 0.5 7.70334 0.5 9.54396V14.9174C0.5 16.8768 2.10313 18.4502 4.03281 18.4502H11.8703C13.8297 18.4502 15.4328 16.8471 15.4328 14.8877V9.48459C15.4625 7.70334 14.1563 6.21896 12.4344 5.86271ZM5.87344 2.65646C6.52656 2.06271 7.3875 1.76584 8.27813 1.8549C9.85156 2.00334 11.0984 3.42834 11.0984 5.09084V5.77365H4.86406V4.88303C4.86406 4.05178 5.22031 3.25021 5.87344 2.65646ZM14.1266 14.9174C14.1266 16.1346 13.1172 17.144 11.9 17.144H4.0625C2.84531 17.144 1.86562 16.1643 1.86562 14.9471V9.54396C1.86562 8.20803 2.93437 7.13928 4.27031 7.13928H11.6922C13.0281 7.13928 14.1266 8.20803 14.1266 9.48459V14.9174Z" fill="#F56060" stroke="#F56060"/>
<path d="M7.97969 10.2266C7.62344 10.2266 7.29688 10.5234 7.29688 10.9094V14.0266C7.29688 14.3828 7.59375 14.7094 7.97969 14.7094C8.33594 14.7094 8.6625 14.4125 8.6625 14.0266V10.8797C8.6625 10.5234 8.33594 10.2266 7.97969 10.2266Z" fill="#F56060" stroke="#F56060"/>
</svg>
