<svg width="20" height="18" viewBox="0 0 20 18" fill="none" xmlns="http://www.w3.org/2000/svg">
<path d="M10.0005 0C9.74735 0 9.49735 0.0546874 9.25985 0.160156L0.494231 4.11719C0.197356 4.25391 0.000481008 4.60547 0.000481008 5C0.000481008 5.39453 0.197356 5.74609 0.494231 5.88281L2.30361 6.69922C1.79111 7.70703 1.50048 8.89844 1.50048 10.1523V11.25C1.50048 12.3594 1.16298 13.5039 0.803606 14.4062C0.600481 14.9141 0.369231 15.4141 0.100481 15.875C0.000481009 16.043 -0.027644 16.2617 0.028606 16.4609C0.084856 16.6602 0.216106 16.8086 0.378606 16.8594L2.37861 17.4844C2.50986 17.5273 2.65048 17.4961 2.76611 17.4062C2.88173 17.3164 2.96298 17.168 2.98798 17C3.25673 15.3281 3.12236 13.8281 2.92236 12.7539C2.82236 12.1992 2.68798 11.6328 2.50048 11.1133V10.1523C2.50048 8.97266 2.81923 7.85937 3.37236 6.96875C3.77548 6.36328 4.29736 5.875 4.90986 5.57422L9.8161 3.16406C10.0724 3.03906 10.363 3.19531 10.463 3.51562C10.563 3.83594 10.438 4.19922 10.1817 4.32422L5.27548 6.73438C4.88798 6.92578 4.54736 7.21875 4.26923 7.57812L9.25673 9.82812C9.49423 9.93359 9.74423 9.98828 9.99735 9.98828C10.2505 9.98828 10.5005 9.93359 10.738 9.82812L19.5067 5.88281C19.8036 5.75 20.0005 5.39453 20.0005 5C20.0005 4.60547 19.8036 4.25391 19.5067 4.11719L10.7411 0.160156C10.5036 0.0546874 10.2536 0 10.0005 0ZM4.00048 14.6875C4.00048 16.0664 6.68798 17.5 10.0005 17.5C13.313 17.5 16.0005 16.0664 16.0005 14.6875L15.5224 9.00781L11.0786 11.0156C10.7317 11.1719 10.3661 11.25 10.0005 11.25C9.63485 11.25 9.2661 11.1719 8.92235 11.0156L4.47861 9.00781L4.00048 14.6875Z" fill="white"/>
</svg>
