<?xml version="1.0" encoding="UTF-8"?>
<svg version="1.1" xmlns="http://www.w3.org/2000/svg" width="512" height="512">
<path d="M0 0 C1.12483301 -0.00525911 1.12483301 -0.00525911 2.27238992 -0.01062447 C4.78736654 -0.01993481 7.30211143 -0.0150161 9.81709766 -0.01015663 C11.63760006 -0.01389308 13.45810084 -0.01849458 15.27859908 -0.02388728 C20.28332023 -0.03613347 25.28797461 -0.03585489 30.29270732 -0.03349853 C35.6896012 -0.03309076 41.08647355 -0.04412567 46.48335743 -0.05361366 C57.05811333 -0.0702339 67.63284693 -0.07572369 78.2076148 -0.07683842 C86.80339589 -0.07778848 95.39916962 -0.08189667 103.99494839 -0.08823967 C128.36296849 -0.10585545 152.73097098 -0.1150781 177.0989975 -0.11357872 C178.41296716 -0.11349881 179.72693683 -0.1134189 181.08072376 -0.11333656 C183.05408372 -0.11321392 183.05408372 -0.11321392 185.06730954 -0.1130888 C206.38613792 -0.11227597 227.70487328 -0.13141198 249.02368429 -0.1596133 C270.91114258 -0.18833844 292.79856641 -0.20215377 314.68604404 -0.20042574 C326.97516794 -0.19976168 339.26421777 -0.20526113 351.5533247 -0.22678185 C362.01730715 -0.24498882 372.48118197 -0.24934495 382.94517341 -0.235763 C388.28323059 -0.22923076 393.62108127 -0.22912555 398.95911884 -0.2464695 C403.84901567 -0.26219382 408.73854211 -0.25934293 413.62842987 -0.24190123 C415.39425047 -0.23882993 417.16009866 -0.24246861 418.92588671 -0.25362138 C433.84948801 -0.34161127 444.89489822 2.15698144 456.38956165 12.25726891 C461.11174373 17.27732518 464.78417387 22.87345146 467.38956165 29.25726891 C467.73104551 30.04849553 468.07252937 30.83972216 468.42436123 31.65492535 C469.79234581 36.76054934 469.67176307 41.65031388 469.65698719 46.9142971 C469.6615183 48.09589261 469.66604942 49.27748812 469.67071784 50.49488956 C469.6811771 53.76659545 469.68268953 57.03816287 469.68032908 60.30988014 C469.67992045 63.84173137 469.69096465 67.37354999 469.70044422 70.90538597 C469.71704596 77.82249657 469.72255342 84.73957309 469.72366898 91.65670194 C469.72461999 97.28146976 469.72873295 102.90622634 469.73507023 108.5309906 C469.75268158 124.48770835 469.76190944 140.44439922 469.76040928 156.40112676 C469.76028941 157.69104627 469.76028941 157.69104627 469.76016712 159.00702477 C469.76008536 159.86802462 469.7600036 160.72902448 469.75991936 161.61611525 C469.75910683 175.56311312 469.77823636 189.5100029 469.80644386 203.45696952 C469.83519651 217.78690754 469.84898279 232.11679289 469.8472563 246.44676048 C469.84659315 254.48815749 469.85205247 262.52944124 469.8736124 270.57081223 C469.89185574 277.41894921 469.89614588 284.26692159 469.88259356 291.11507239 C469.87607926 294.60612644 469.87589027 298.096865 469.89330006 301.58788872 C469.9087625 305.38064684 469.89943613 309.17258177 469.88403797 312.96532249 C469.8943251 314.05756353 469.90461222 315.14980456 469.91521108 316.2751438 C469.80554134 328.53735727 465.44056229 338.09480269 457.38956165 347.25726891 C448.82064494 355.31773332 438.66590547 360.58533068 426.77912331 360.51453781 C426.02923463 360.51804389 425.27934596 360.52154996 424.50673339 360.52516228 C421.99175676 360.53447263 419.47701188 360.52955392 416.96202564 360.52469444 C415.14152325 360.52843089 413.32102246 360.53303239 411.50052422 360.53842509 C406.49580308 360.55067129 401.4911487 360.5503927 396.48641598 360.54803634 C391.08952211 360.54762858 385.69264975 360.55866348 380.29576588 360.56815147 C369.72100998 360.58477171 359.14627637 360.5902615 348.5715085 360.59137623 C339.97572741 360.59232629 331.37995368 360.59643448 322.78417492 360.60277748 C298.41615481 360.62039326 274.04815233 360.62961591 249.68012581 360.62811653 C248.36615614 360.62803662 247.05218647 360.62795671 245.69839954 360.62787437 C244.38282624 360.62779261 243.06725293 360.62771085 241.71181377 360.62762661 C220.39298538 360.62681378 199.07425002 360.6459498 177.75543902 360.67415111 C155.86798073 360.70287625 133.9805569 360.71669158 112.09307927 360.71496356 C99.80395537 360.71429949 87.51490553 360.71979894 75.22579861 360.74131966 C64.76181615 360.75952663 54.29794133 360.76388276 43.8339499 360.75030081 C38.49589271 360.74376857 33.15804204 360.74366336 27.82000446 360.76100731 C22.93010764 360.77673163 18.04058119 360.77388074 13.15069344 360.75643905 C11.38487284 360.75336775 9.61902464 360.75700642 7.85323659 360.7681592 C-7.0703647 360.85614909 -18.11577491 358.35755637 -29.61043835 348.25726891 C-34.33262043 343.23721263 -38.00505057 337.64108635 -40.61043835 331.25726891 C-40.95192221 330.46604228 -41.29340607 329.67481565 -41.64523792 328.85961246 C-43.0132225 323.75398847 -42.89263977 318.86422393 -42.87786388 313.60024071 C-42.882395 312.4186452 -42.88692611 311.23704969 -42.89159453 310.01964825 C-42.90205379 306.74794236 -42.90356623 303.47637494 -42.90120578 300.20465767 C-42.90079714 296.67280644 -42.91184134 293.14098782 -42.92132092 289.60915184 C-42.93792266 282.69204124 -42.94343012 275.77496473 -42.94454567 268.85783587 C-42.94549668 263.23306806 -42.94960964 257.60831147 -42.95594692 251.98354721 C-42.97355828 236.02682946 -42.98278614 220.07013859 -42.98128597 204.11341105 C-42.98120606 203.25346471 -42.98112615 202.39351837 -42.98104382 201.50751305 C-42.98096205 200.64651319 -42.98088029 199.78551333 -42.98079605 198.89842256 C-42.97998353 184.95142469 -42.99911305 171.00453491 -43.02732055 157.05756829 C-43.0560732 142.72763027 -43.06985948 128.39774492 -43.068133 114.06777734 C-43.06746984 106.02638032 -43.07292916 97.98509657 -43.0944891 89.94372559 C-43.11273243 83.09558861 -43.11702258 76.24761622 -43.10347025 69.39946542 C-43.09695596 65.90841137 -43.09676696 62.41767281 -43.11417675 58.92664909 C-43.12963919 55.13389097 -43.12031283 51.34195604 -43.10491467 47.54921532 C-43.11520179 46.45697429 -43.12548892 45.36473325 -43.13608778 44.23939401 C-43.02641804 31.97718054 -38.66143898 22.41973512 -30.61043835 13.25726891 C-22.04152164 5.1968045 -11.88678216 -0.07079287 0 0 Z M10.38956165 30.25726891 C14.29105695 34.80901341 18.1429399 39.15571113 22.37219715 43.36688805 C23.22896618 44.22599706 23.22896618 44.22599706 24.10304368 45.10246181 C25.99811288 47.00148713 27.89669713 48.89695666 29.79532337 50.79242516 C31.16272795 52.16118618 32.52992001 53.53015954 33.89691639 54.89932823 C37.59712572 58.60408333 41.30047561 62.30568387 45.00454569 66.00657845 C48.88870832 69.8882022 52.77042237 73.77227337 56.65253162 77.65595055 C63.17228947 84.17752585 69.69414857 90.69699423 76.21719837 97.21527672 C83.74668418 104.73932301 91.27256395 112.26696179 98.79657638 119.79648113 C105.26795942 126.27241011 111.74129919 132.7463783 118.21626198 139.21872807 C122.07843718 143.07934835 125.93994336 146.94063129 129.79968357 150.80368614 C133.43027927 154.43718199 137.06333456 158.06820087 140.6982584 161.69736671 C142.0277439 163.025536 143.35639039 164.35454577 144.68410969 165.68448067 C153.52633409 174.57077732 153.52633409 174.57077732 162.85574055 182.93788719 C165.22711607 184.9777271 167.34947438 187.23075673 169.49112415 189.50726891 C182.71361115 203.32472022 193.9761209 214.68891325 214.38956165 215.25726891 C231.92557001 214.71907939 243.39707342 204.24615097 254.76456165 192.25726891 C256.58127505 190.37503151 258.40315906 188.49796406 260.22711658 186.62274742 C261.34788492 185.46698136 262.46373802 184.30641635 263.57324696 183.13983727 C266.18649735 180.41150918 268.84290953 177.83989439 271.73309803 175.40579796 C278.17334899 169.79662121 284.11854642 163.66766862 290.14932728 157.62689781 C291.52959358 156.24798826 292.91007216 154.86929117 294.29074574 153.49078941 C298.01976064 149.76631316 301.74563009 146.03870535 305.47078609 142.31036997 C309.37169523 138.40692232 313.27505118 134.50592264 317.1780138 130.60452843 C323.7229851 124.06137296 330.26585234 117.51611909 336.8075304 110.96967125 C344.38001104 103.3917332 351.95610893 95.81742582 359.53406477 88.24496329 C366.04131819 81.74223875 372.54663233 75.23757899 379.05031061 68.73127878 C382.93472265 64.84530477 386.81981429 60.96001671 390.70665455 57.07647133 C394.35326216 53.4327397 397.99743912 49.78659487 401.63970661 46.13852501 C402.98048628 44.79641695 404.322129 43.45517047 405.66466999 42.1148243 C407.48824188 40.29396042 409.3087447 38.47008446 411.12845325 36.64536095 C411.66772906 36.10831586 412.20700486 35.57127078 412.76262236 35.01795161 C415.27217564 32.98315542 415.27217564 32.98315542 416.38956165 30.25726891 C282.40956165 30.25726891 148.42956165 30.25726891 10.38956165 30.25726891 Z M-12.61043835 53.25726891 C-12.61043835 137.40726891 -12.61043835 221.55726891 -12.61043835 308.25726891 C-8.26215095 304.53016542 -4.19147385 300.96273837 -0.1750288 296.94211388 C0.32506201 296.44287749 0.82515282 295.94364111 1.34039789 295.42927635 C2.99319638 293.77810746 4.64242674 292.12342275 6.29166126 290.46869469 C7.48458186 289.27549164 8.67772344 288.08250949 9.871068 286.88973045 C13.09386752 283.66721668 16.31358445 280.4416391 19.5327394 277.2154851 C22.90350838 273.83844541 26.27712817 270.46425605 29.65044117 267.08975792 C36.03063288 260.70646383 42.40827218 254.32062592 48.78498894 247.93386066 C56.0478434 240.65981107 63.31355312 233.38861633 70.57949913 226.11765504 C85.51935649 211.16735805 100.45564069 196.21349564 115.38956165 181.25726891 C113.83357286 177.53950652 111.55676785 175.17299831 108.7231493 172.33688927 C108.2452258 171.85584578 107.7673023 171.3748023 107.27489626 170.87918174 C105.67380118 169.270116 104.06566007 167.66828581 102.45743275 166.06635094 C101.30715572 164.91336349 100.15730452 163.75995108 99.00784779 162.60614586 C95.88410738 159.47328115 92.75406485 156.34678448 89.6225934 153.22164965 C86.34283438 149.94695524 83.06795939 146.66738244 79.79230213 143.38858604 C74.28616225 137.87880581 68.77581585 132.37325889 63.26309681 126.87006187 C56.90082633 120.51865446 50.54576361 114.16010354 44.19443929 107.79775155 C38.73559055 102.32980607 33.27282764 96.86579404 27.80681765 91.40500724 C24.5449364 88.14623536 21.28440061 84.88614813 18.02739048 81.6225071 C14.96051552 78.54982538 11.88873281 75.48213354 8.81320667 72.4181118 C7.68926522 71.29680012 6.56699479 70.17381043 5.44658756 69.04896736 C3.90829362 67.50514899 2.36387334 65.96771458 0.81787586 64.43161583 C-0.47242503 63.14244601 -0.47242503 63.14244601 -1.78879261 61.82723236 C-5.19061981 58.72883788 -8.92935358 56.01808248 -12.61043835 53.25726891 Z M431.94229603 59.14813805 C431.23968395 59.80856889 430.53707188 60.46899973 429.81316853 61.14944363 C419.11598949 71.28074933 408.75765397 81.76255046 398.35312939 92.19230723 C395.28674431 95.26503386 392.21744018 98.33484217 389.14847279 101.40498924 C383.3635586 107.19298541 377.58119337 112.98352085 371.79978895 118.77502257 C365.20663655 125.3794346 358.61057234 131.98093534 352.01428795 138.582219 C338.46951917 152.13738107 324.92832691 165.6961107 311.38956165 179.25726891 C312.9773799 183.11467433 315.43790762 185.55459109 318.36882496 188.48377037 C319.13599595 189.25456299 319.13599595 189.25456299 319.91866535 190.04092717 C321.63283761 191.76073312 323.35406225 193.47330042 325.07535267 195.18597984 C326.30595914 196.41765924 327.53613253 197.64977148 328.76590443 198.88228416 C332.10621719 202.22744537 335.45274827 205.56632154 338.80055451 208.90398121 C342.29875034 212.39340077 345.79168042 215.88808395 349.28529835 219.3820858 C355.15055147 225.24640236 361.01966565 231.106832 366.89127064 236.96478844 C373.68951552 243.7472896 380.48250127 250.5350216 387.27251202 257.32576537 C393.79584364 263.84970622 400.32202255 270.3707905 406.8498106 276.89027214 C409.63248558 279.66940744 412.41430134 282.44939867 415.19547176 285.2300396 C418.46557927 288.49914636 421.73821166 291.76570426 425.0128603 295.03026199 C426.21789268 296.23236122 427.42206766 297.43532062 428.62534618 298.63917542 C430.26035943 300.27467555 431.89838902 301.90709106 433.53728199 303.53870201 C434.45555554 304.45529972 435.3738291 305.37189743 436.31992912 306.31627083 C438.03822975 308.37128153 438.03822975 308.37128153 439.38956165 308.25726891 C439.38956165 224.10726891 439.38956165 139.95726891 439.38956165 53.25726891 C436.90411084 53.25726891 433.76570662 57.43273197 431.94229603 59.14813805 Z M135.72549915 204.76117516 C135.07838978 205.44051109 134.4312804 206.11984703 133.76456165 206.81976891 C131.26048804 209.44138067 128.68710318 211.87642553 125.92935658 214.22385216 C120.4771467 218.97998511 115.39952986 224.10717038 110.2919054 229.22553062 C109.1973493 230.31872913 108.10258115 231.41171535 107.0076189 232.50450706 C104.05750949 235.45008848 101.11053441 238.39878658 98.16428089 241.34822416 C95.07616331 244.4388849 91.98559382 247.52709228 88.89542103 250.61569786 C83.71572538 255.79357942 78.53813071 260.9735548 73.36172962 266.15472984 C67.37066598 272.15125479 61.37598122 278.14414166 55.37944221 284.13519084 C50.22674219 289.283362 45.07598189 294.43346777 39.92685699 299.58521473 C36.85286904 302.66076412 33.77820353 305.73562795 30.70178699 308.80874825 C27.81685844 311.69080071 24.93436306 314.57526427 22.05377483 317.46165466 C20.99358005 318.52317759 19.93252248 319.58383958 18.87056637 320.64360046 C17.42798278 322.08347523 15.98874647 323.52670131 14.5497179 324.97012901 C13.33747547 326.18293698 13.33747547 326.18293698 12.10074329 327.42024612 C10.27596167 328.96080028 10.27596167 328.96080028 10.38956165 330.25726891 C144.36956165 330.25726891 278.34956165 330.25726891 416.38956165 330.25726891 C412.79535503 326.06402785 409.37849762 322.12103941 405.5078783 318.24860191 C404.5772205 317.31512428 403.64656269 316.38164665 402.68770313 315.41988182 C401.6738223 314.40794468 400.6598893 313.39605981 399.64590931 312.38422203 C398.56421573 311.30117125 397.48273453 310.21790832 396.40144825 309.13445091 C393.48013464 306.20860042 390.55569308 303.28589565 387.6305213 300.36390305 C384.55914551 297.29507092 381.4902239 294.22378607 378.42090321 291.15289879 C373.26641947 285.99659893 368.10983834 280.84240363 362.95206165 275.68939781 C357.00399131 269.74676612 351.05952791 263.80054466 345.1169306 257.85244036 C340.00010321 252.73106251 334.881314 247.61165161 329.76090562 242.49385405 C326.70915597 239.44365691 323.65807044 236.39280369 320.60875797 233.34016991 C317.7398447 230.46834989 314.86846159 227.59902164 311.99522305 224.73152924 C310.94632428 223.68394323 309.89825785 222.63552302 308.85112667 221.5861702 C299.11180762 211.1075973 299.11180762 211.1075973 287.38956165 203.25726891 C286.82148792 203.84105309 286.25341419 204.42483727 285.66812611 205.02631187 C264.36446172 226.84033394 244.67802929 244.85548156 212.42422962 245.28461266 C184.5397967 244.90987586 165.71768431 229.82478013 147.13956165 211.00726891 C146.39996204 210.24366051 145.66036243 209.48005211 144.89835072 208.69330406 C144.20966908 207.98738121 143.52098743 207.28145836 142.81143665 206.55414391 C142.1988097 205.91831383 141.58618275 205.28248375 140.95499134 204.62738609 C138.7033442 202.6566681 137.93096335 202.76797395 135.72549915 204.76117516 Z " fill="#000000" transform="translate(42.61043834686279,75.74273109436035)"/>
</svg>
