<?xml version="1.0" encoding="UTF-8"?>
<svg version="1.1" xmlns="http://www.w3.org/2000/svg" width="512" height="512">
<path d="M0 0 C0.81918632 0.00733784 1.63837263 0.01467567 2.48238277 0.02223587 C11.47806346 0.24906186 19.95190455 2.11156239 28.66430664 4.22167969 C30.36160155 4.61726343 32.0592788 5.01120978 33.75730896 5.40362549 C37.27706289 6.22149727 40.79324275 7.05278889 44.30712891 7.89550781 C48.78394901 8.96889683 53.26627324 10.01664485 57.7512064 11.05555344 C61.24202116 11.86549129 64.73072392 12.68421918 68.21876335 13.50601959 C69.87081363 13.89508791 71.52323744 14.2825741 73.17605782 14.66835785 C88.71048157 18.31022167 102.69006715 21.84430482 112.03540039 35.86230469 C119.22117067 48.17110649 120.39258511 60.56907582 117.09790039 74.42480469 C116.76790039 75.08480469 116.43790039 75.74480469 116.09790039 76.42480469 C116.80104874 76.53342331 117.50419708 76.64204193 118.22865295 76.75395203 C126.27954604 78.04137359 134.20800242 79.69829693 142.15649414 81.50683594 C143.47583006 81.8059053 144.79517119 82.10495164 146.11451721 82.40397644 C148.8606487 83.02748529 151.60605011 83.65410579 154.35107422 84.2824707 C157.82926613 85.07798218 161.31008939 85.86126615 164.79170132 86.64165211 C167.51221721 87.25370385 170.2306647 87.8745903 172.94865608 88.49774742 C174.84187468 88.92959605 176.7371249 89.35250805 178.63243103 89.77510071 C193.0078288 93.10213269 206.5878056 97.2587482 215.47290039 109.79980469 C223.00055272 122.14686049 224.53632311 134.22626831 221.48852539 148.18652344 C221.32044373 148.98081253 221.15236206 149.77510162 220.97918701 150.59346008 C220.62401982 152.25740343 220.26412123 153.92034342 219.8996582 155.58227539 C219.34771325 158.11316281 218.81973604 160.64828769 218.29321289 163.18457031 C217.94308749 164.81053147 217.59157234 166.43619413 217.23852539 168.06152344 C217.00700775 169.18671638 217.00700775 169.18671638 216.77081299 170.3346405 C215.6863672 175.15954981 214.16077612 178.51809844 211.09790039 182.42480469 C208.57314577 183.687182 206.78589573 183.52336873 203.97290039 183.48730469 C203.06282227 183.47828125 202.15274414 183.46925781 201.21508789 183.45996094 C200.51641602 183.44835937 199.81774414 183.43675781 199.09790039 183.42480469 C194.76281083 227.46582754 190.50292367 271.5135378 186.33796406 315.5709877 C185.79322354 321.33179348 185.24773266 327.09252821 184.70233154 332.85327148 C182.91646937 351.71959115 181.13097301 370.58594231 179.35424805 389.453125 C178.35382561 400.07644029 177.34971538 410.69940001 176.3413738 421.32196665 C175.81438051 426.87529013 175.2892394 432.42877399 174.76875687 437.98271179 C174.28555777 443.13873087 173.79753217 448.29427014 173.30579758 453.44948196 C173.12741975 455.32864521 172.95081186 457.20797748 172.77615356 459.08749008 C169.68261545 492.34051356 169.68261545 492.34051356 157.45336914 503.67089844 C151.33102851 508.22965622 143.64191556 512.53763868 135.87355137 512.56181908 C135.00761311 512.56689362 134.14167485 512.57196816 133.24949604 512.57719648 C131.8216128 512.57794311 131.8216128 512.57794311 130.36488342 512.57870483 C129.3539824 512.58308709 128.34308138 512.58746934 127.30154699 512.59198439 C123.89780682 512.6053902 120.49409255 512.61155534 117.09033203 512.61767578 C114.65618777 512.62557552 112.22204468 512.63384439 109.78790283 512.64245605 C102.46979332 512.66643069 95.15168207 512.68160921 87.83354703 512.69451612 C85.76537392 512.69822905 83.69720148 512.70220223 81.62902904 512.70626879 C68.77820839 512.73151243 55.92738664 512.75355954 43.07654667 512.76599693 C40.0998592 512.76892651 37.12317176 512.77188819 34.14648438 512.77490234 C33.40666553 512.77564839 32.66684668 512.77639445 31.90460908 512.7771631 C19.93359347 512.78980291 7.96272686 512.82300699 -4.00821918 512.86470418 C-16.30742804 512.90719222 -28.6065608 512.9307001 -40.90584284 512.9359175 C-47.80774687 512.93932446 -54.70941832 512.95099418 -61.61124992 512.98402023 C-68.10948511 513.01506431 -74.60742671 513.02039907 -81.10572815 513.00863647 C-83.48567781 513.00841603 -85.86564644 513.01669646 -88.24553108 513.03429031 C-104.4423929 513.14747128 -116.48169852 512.70199288 -128.70678711 500.88964844 C-137.79200518 490.68898545 -139.21815159 480.20127784 -140.46069336 467.05444336 C-140.60618084 465.56626203 -140.75223023 464.07813554 -140.89878845 462.59005928 C-141.3014001 458.48434728 -141.69569479 454.37787266 -142.08855438 450.27121758 C-142.5168315 445.80847979 -142.95246151 441.34645838 -143.38696289 436.88432312 C-144.25550937 427.95041949 -145.11619387 419.01577334 -145.97418594 410.08085054 C-146.71065546 402.41241595 -147.44994052 394.74425676 -148.19067383 387.07623291 C-150.73422052 360.73947306 -153.2621078 334.40125373 -155.77249146 308.06131172 C-157.08880034 294.25093055 -158.40968613 280.4410038 -159.73654556 266.63163215 C-160.68824919 256.72287104 -161.63489533 246.81363462 -162.57777023 236.90402955 C-163.13442995 231.05488118 -163.69320221 225.20595437 -164.25750732 219.35753822 C-164.78212845 213.91932102 -165.30045045 208.4805394 -165.81401634 203.0412674 C-166.0019932 201.06180037 -166.19219283 199.08254285 -166.38488197 197.10352898 C-169.22718549 167.87271008 -169.22718549 167.87271008 -166.86235046 163.50401783 C-164.68368149 161.23322187 -162.2109734 159.51682277 -159.04428327 159.29419416 C-158.28256429 159.29153612 -157.52084531 159.28887808 -156.73604393 159.28613949 C-155.85772954 159.28066504 -154.97941516 159.2751906 -154.07448518 159.26955026 C-153.10368284 159.26857216 -152.1328805 159.26759405 -151.13265991 159.2665863 C-149.59263917 159.25917934 -149.59263917 159.25917934 -148.02150691 159.25162274 C-144.55901738 159.23618555 -141.09654647 159.22787033 -137.6340332 159.21948242 C-135.16086156 159.20990878 -132.68769156 159.19989901 -130.21452332 159.18948364 C-124.8785087 159.16799824 -119.54249673 159.1495648 -114.20646286 159.13387871 C-106.49139632 159.11119385 -98.77635736 159.08304912 -91.06131418 159.05355943 C-78.54503867 159.00586652 -66.02875191 158.96260695 -53.51245117 158.92211914 C-41.35196048 158.88277285 -29.19147981 158.84134871 -17.03100586 158.79711914 C-16.28179542 158.79439487 -15.53258497 158.7916706 -14.76067118 158.78886377 C-11.00221044 158.77518444 -7.24374985 158.76146413 -3.48528934 158.74772346 C27.70908659 158.633732 58.90348349 158.52700215 90.09790039 158.42480469 C72.02997451 154.27486684 53.96180577 150.12598702 35.89346144 145.97787151 C33.77893838 145.49241778 31.6644182 145.0069515 29.54989839 144.52148366 C-2.4585807 137.17281799 -34.46742863 129.82598218 -66.48939359 122.53625119 C-71.63085153 121.36578247 -76.77196351 120.19380605 -81.91281128 119.0206604 C-82.6196824 118.85935713 -83.32655352 118.69805386 -84.05484498 118.53186262 C-86.84336172 117.89550244 -89.63186508 117.25908377 -92.42032647 116.62248111 C-100.12857281 114.86271013 -107.83760582 113.10650754 -115.54833984 111.35766602 C-122.0583967 109.8811147 -128.5670213 108.39843008 -135.07398909 106.90832239 C-138.41529593 106.14338728 -141.75719338 105.38135053 -145.10096169 104.62724113 C-148.69518519 103.81515122 -152.28678375 102.99232367 -155.87792969 102.16674805 C-156.93063553 101.93165024 -157.98334137 101.69655243 -159.06794739 101.45433044 C-164.88114655 100.10400705 -169.6364922 98.91697283 -173.77709961 94.36230469 C-176.76090497 86.57125736 -172.97259938 76.30684733 -171.16552734 68.51220703 C-170.71772652 66.56341275 -170.29321926 64.6093141 -169.86889648 62.65527344 C-166.26918932 47.00091778 -160.56056938 35.69360149 -146.97631836 27.00292969 C-140.10826581 23.4772712 -133.67205241 21.89210462 -125.96728516 22.00488281 C-125.14736682 22.01229744 -124.32744848 22.01971207 -123.48268414 22.02735138 C-114.66740869 22.24786108 -106.39101268 24.05446152 -97.85913086 26.14355469 C-96.22761814 26.5265355 -94.59566432 26.90764141 -92.96330261 27.2869873 C-88.73561308 28.27462025 -84.51427028 29.28703384 -80.29388428 30.30535889 C-75.95926208 31.34636981 -71.61892111 32.36296201 -67.27905273 33.38183594 C-58.81440065 35.37277193 -50.35631686 37.3900157 -41.90209961 39.42480469 C-41.75514648 38.16780762 -41.60819336 36.91081055 -41.45678711 35.61572266 C-40.08172336 23.85380129 -33.64696902 14.92536198 -24.63647461 7.57714844 C-17.07786248 2.19890519 -9.2420702 -0.13211939 0 0 Z M-13.77709961 26.04980469 C-19.10673665 31.10290396 -20.77956946 37.37854668 -21.90209961 44.42480469 C-9.24259195 47.94044625 3.52892924 50.90697019 16.33227539 53.84667969 C18.54570515 54.35649598 20.75910386 54.86644708 22.97247314 55.37652588 C27.57768761 56.43715801 32.18334009 57.49586151 36.78930664 58.55322266 C42.69832991 59.90993112 48.6060986 61.27201887 54.51354599 62.63557053 C59.06820995 63.6861734 63.62357061 64.73372882 68.17914581 65.78037262 C70.35952993 66.28175273 72.53968184 66.78414377 74.71959686 67.28755951 C77.75091143 67.9871642 80.78315065 68.68260894 83.81567383 69.37695312 C84.71639618 69.58573593 85.61711853 69.79451874 86.5451355 70.0096283 C87.3689975 70.1973732 88.1928595 70.3851181 89.04168701 70.57855225 C89.75687374 70.74296688 90.47206047 70.90738152 91.20891953 71.07677841 C93.26949546 71.51540003 93.26949546 71.51540003 96.09790039 71.42480469 C98.1084034 62.06656408 98.91625926 55.48225785 93.71899414 47.23730469 C86.18925091 37.36699066 72.41624417 36.14099849 60.95727539 33.56933594 C59.42022656 33.21926227 57.88330246 32.86864052 56.34649658 32.51750183 C53.14708623 31.78800179 49.94667483 31.06314263 46.74536133 30.34204102 C42.65649273 29.42091217 38.5696719 28.49106044 34.48348618 27.55811024 C31.31835888 26.83592911 28.15253439 26.11684696 24.98645782 25.39883995 C23.47933688 25.05696842 21.97235092 24.7145012 20.46550751 24.37140846 C18.35891559 23.89256649 16.25150016 23.41753518 14.14379883 22.94360352 C12.94897888 22.67365067 11.75415894 22.40369781 10.52313232 22.12556458 C1.29498874 20.23760108 -6.01907182 20.07312663 -13.77709961 26.04980469 Z M-139.90209961 48.42480469 C-147.39188566 55.91459074 -150.8029327 68.67993946 -150.93652344 79.11328125 C-150.92516357 79.87608398 -150.91380371 80.63888672 -150.90209961 81.42480469 C-128.97148187 86.47114859 -107.04085031 91.51743243 -85.11010742 96.56323242 C-84.13734714 96.78704407 -84.13734714 96.78704407 -83.14493513 97.01537716 C-76.51138937 98.5416148 -69.87784084 100.06784046 -63.24428916 101.59405237 C-50.32678592 104.5660449 -37.40930136 107.53811848 -24.49194336 110.51074219 C22.95232924 121.42887875 70.39935298 132.33493342 117.85142517 143.21912766 C121.42842659 144.0396035 125.00541293 144.86014511 128.58239746 145.68069458 C134.2106134 146.97175043 139.83889197 148.2625329 145.46722031 149.55309868 C147.52089826 150.02402614 149.57456163 150.49501718 151.62820816 150.96608162 C153.06921701 151.29660436 153.06921701 151.29660436 154.53933716 151.63380432 C155.48052588 151.84976415 156.42171459 152.06572397 157.39142418 152.28822803 C159.22769747 152.70880991 161.06425017 153.12817407 162.90110207 153.54622173 C167.6876977 154.63632969 172.46779921 155.74857542 177.24224854 156.89080811 C178.24865702 157.12823416 179.2550655 157.36566021 180.29197121 157.61028099 C182.21929343 158.0651762 184.14497691 158.52709036 186.06867027 158.99709511 C187.36373717 159.30033982 187.36373717 159.30033982 188.68496704 159.60971069 C189.44264185 159.79165167 190.20031666 159.97359264 190.98095131 160.16104698 C193.29744102 160.44966612 194.88924318 160.13055282 197.09790039 159.42480469 C197.97675506 155.95140837 198.82131672 152.47050347 199.66040039 148.98730469 C199.90725586 148.01341797 200.15411133 147.03953125 200.40844727 146.03613281 C202.1781675 138.58336731 202.62703216 132.40054729 199.84790039 125.17480469 C193.1466749 114.64430748 182.70283 112.55667821 171.26586914 109.98339844 C169.87249403 109.66196096 168.47932626 109.33962358 167.08634949 109.01646423 C163.29073626 108.13863542 159.49231746 107.27355473 155.69329071 106.4106369 C151.57921147 105.47376608 147.4678865 104.52494759 143.35620117 103.57763672 C135.51584847 101.773175 127.67313118 99.97922607 119.82935715 98.18970108 C111.8325473 96.36506584 103.83766963 94.53206468 95.84309387 92.69766998 C85.41106013 90.30422094 74.97824394 87.91422634 64.54370117 85.53173828 C43.48622562 80.72315813 22.43335422 75.89488909 1.3844471 71.04895306 C-3.96343367 69.81775834 -9.31142421 68.58704149 -14.65948486 67.35662842 C-15.79932799 67.09438146 -15.79932799 67.09438146 -16.96219826 66.82683659 C-20.04115599 66.1184548 -23.12011516 65.41007922 -26.19908428 64.70174694 C-35.36275941 62.59356289 -44.5260381 60.48367379 -53.68869168 58.37105411 C-59.50432251 57.03031588 -65.32044017 55.69170288 -71.13690799 54.35460049 C-74.52916173 53.57470022 -77.92119218 52.79386191 -81.31263161 52.01042747 C-88.45360925 50.36181532 -95.59768032 48.72912337 -102.75025558 47.13151932 C-104.81317454 46.66896629 -106.87491553 46.20112014 -108.93529129 45.7273674 C-111.68243912 45.09821583 -114.4336433 44.49230284 -117.1875 43.89331055 C-117.96511153 43.71059632 -118.74272306 43.5278821 -119.54389858 43.33963108 C-127.35150033 41.69833 -133.57562031 43.36362125 -139.90209961 48.42480469 Z M-145.90209961 180.42480469 C-145.08798001 196.22824855 -145.08798001 196.22824855 -143.8082428 211.97525024 C-143.70262714 213.09586047 -143.59701149 214.21647069 -143.48819536 215.37103879 C-143.14044945 219.05030146 -142.78706711 222.72899839 -142.43359375 226.40771484 C-142.18020916 229.07565309 -141.92713578 231.74361927 -141.67442322 234.41162109 C-141.06305723 240.85803629 -140.44736185 247.30403057 -139.82996041 253.74987026 C-139.32810477 258.98996479 -138.82772756 264.23019856 -138.32836723 269.47053146 C-138.25692078 270.22025691 -138.18547432 270.96998235 -138.11186282 271.74242675 C-137.96667235 273.26600988 -137.82148336 274.78959315 -137.67629581 276.31317656 C-136.32012506 290.5424959 -134.95878809 304.7713174 -133.59580421 318.9999855 C-132.35039984 332.00285161 -131.11136731 345.00631568 -129.87532908 358.01007517 C-128.60268306 371.39839008 -127.32585386 384.78629992 -126.0444631 398.1737808 C-125.32646972 405.67584271 -124.61009761 413.17805068 -123.89808846 420.68068314 C-123.29279669 427.05828462 -122.68352911 433.43549115 -122.0691746 439.81222625 C-121.75621383 443.06174037 -121.44565622 446.31145184 -121.13881302 449.56155014 C-120.80541621 453.08962344 -120.46504906 456.61695794 -120.12294006 460.14419556 C-120.02828321 461.16335765 -119.93362636 462.18251973 -119.83610111 463.23256552 C-118.85922843 473.15051546 -117.98930881 481.33759549 -110.65209961 488.67480469 C-104.38190514 492.66492844 -97.44162446 492.71684267 -90.23770142 492.6855011 C-89.29462108 492.68932665 -88.35154074 492.69315219 -87.37988222 492.69709367 C-84.23570054 492.70737082 -81.09170328 492.70344156 -77.94750977 492.69946289 C-75.68672009 492.70381229 -73.42593189 492.70899619 -71.16514587 492.71495056 C-65.03496174 492.7283273 -58.90483931 492.72892069 -52.77464342 492.72638726 C-47.65291803 492.72531665 -42.53120508 492.73020323 -37.40948236 492.73499268 C-24.63373334 492.74671706 -11.8580289 492.74586541 0.91771968 492.73943587 C11.99735015 492.73426794 23.07689267 492.74552085 34.15650575 492.76453409 C45.5496032 492.7839345 56.94264697 492.79187354 68.33576548 492.78841084 C74.72549614 492.78659935 81.11514624 492.78922091 87.50486374 492.80312538 C93.51478105 492.81571434 99.52452252 492.81374934 105.53443718 492.80071449 C107.73622256 492.79835151 109.93802035 492.80107339 112.13979149 492.80933762 C115.15324195 492.81983016 118.16610511 492.81168406 121.17953491 492.79902649 C122.0437586 492.80640077 122.90798228 492.81377506 123.79839456 492.82137281 C130.68977598 492.76078162 137.83720887 491.78149039 143.53540039 487.66308594 C144.05102539 487.02757812 144.56665039 486.39207031 145.09790039 485.73730469 C145.63415039 485.1146875 146.17040039 484.49207031 146.72290039 483.85058594 C150.46536596 477.24811117 150.67750348 469.18971084 151.36343384 461.7862854 C151.4753986 460.63086034 151.58736336 459.47543528 151.702721 458.28499734 C152.01047813 455.09613524 152.31276857 451.90681071 152.61269236 448.71720409 C152.93816754 445.27020795 153.27072714 441.82389425 153.60237122 438.37748718 C154.25028066 431.63259518 154.8916167 424.88709372 155.5306368 418.14135434 C156.27560327 410.27936336 157.02671408 402.41796302 157.77797072 394.55657105 C159.11863115 380.52485796 160.45313462 366.49256594 161.78442383 352.45996094 C163.0750228 338.85626183 164.37084741 325.253073 165.67211914 311.65039062 C167.09024129 296.82616378 168.50535367 282.00165527 169.91535127 267.17665327 C170.0658533 265.59429428 170.21635729 264.01193548 170.36686325 262.42957687 C170.44090425 261.65110069 170.51494525 260.87262451 170.59122992 260.07055814 C171.11208667 254.59622386 171.6350268 249.1220909 172.158741 243.64802933 C172.79740939 236.97159294 173.43262255 230.29483816 174.06351115 223.61766197 C174.3852125 220.21368945 174.70838421 216.8098745 175.03568077 213.40643501 C175.39027852 209.71045337 175.73903343 206.01396469 176.08633423 202.31729126 C176.24187128 200.71746177 176.24187128 200.71746177 176.40055048 199.08531249 C176.53977791 197.58414572 176.53977791 197.58414572 176.68181801 196.05265236 C176.80322118 194.77532279 176.80322118 194.77532279 176.92707694 193.47218859 C177.17050939 189.12950543 177.09790039 184.77430539 177.09790039 180.42480469 C70.50790039 180.42480469 -36.08209961 180.42480469 -145.90209961 180.42480469 Z " fill="#000000" transform="translate(231.902099609375,-0.4248046875)"/>
<path d="M0 0 C3.5386994 1.65139305 4.81070153 2.71605229 7 6 C8.00691282 12.06682848 8.29256706 18.16196677 8.58927917 24.29873657 C8.64054736 25.30997601 8.69181554 26.32121545 8.74463731 27.3630985 C8.91492888 30.73753273 9.08089812 34.11216501 9.24682617 37.48681641 C9.36821657 39.91173929 9.48984012 42.33665051 9.61167908 44.7615509 C9.97543109 52.02248784 10.33400155 59.28367516 10.69160482 66.54491669 C10.8603189 69.96807826 11.0296618 73.39120871 11.19893837 76.8143425 C11.76155756 88.19630393 12.32274825 99.57833431 12.87957287 110.96058083 C13.02379206 113.90829128 13.16801445 116.85600157 13.31225586 119.80371094 C13.3660256 120.9025869 13.3660256 120.9025869 13.42088161 122.02366237 C14.00267937 133.90821107 14.59433348 145.79224755 15.190106 157.67610307 C15.80211402 169.88688428 16.40553245 182.09806585 17.00045186 194.30969179 C17.33450555 201.162341 17.67230309 208.0147606 18.0196743 214.86674881 C18.34609713 221.30619171 18.66086322 227.74613751 18.96769142 234.18654442 C19.08224005 236.55146267 19.20071109 238.91619463 19.32336426 241.28070641 C19.4900261 244.50513988 19.64262153 247.72994218 19.79167175 250.95523071 C19.86942417 252.36242605 19.86942417 252.36242605 19.94874734 253.79804957 C20.20273666 259.72013773 19.7462754 264.23506396 16.5 269.375 C12.52677399 271.9575969 8.58910416 271.86138525 4 271 C1.02614433 268.87581738 -0.57683065 267.48802419 -1.58510494 263.94254875 C-2.18689423 259.67449522 -2.37493461 255.41015423 -2.57582092 251.10671997 C-2.62567798 250.10283293 -2.67553503 249.09894588 -2.7269029 248.06463802 C-2.89322136 244.69706624 -3.05414146 241.32925826 -3.21508789 237.96142578 C-3.33314138 235.54841576 -3.45152197 233.13542173 -3.57020569 230.72244263 C-3.85836071 224.84608783 -4.14301423 218.96956957 -4.42605288 213.09296669 C-4.7559205 206.24720505 -5.08976817 199.40163924 -5.42378037 192.55607878 C-6.01973989 180.33912985 -6.61208265 168.12200825 -7.20239258 155.90478516 C-7.77494965 144.05504651 -8.35004014 132.20543446 -8.92797852 120.35595703 C-8.96355974 119.62642756 -8.99914096 118.89689809 -9.0358004 118.14526166 C-9.07132094 117.41698359 -9.10684148 116.68870553 -9.1434384 115.93835843 C-9.80161859 102.44338203 -10.45755972 88.94829765 -11.11237364 75.45315752 C-11.34383381 70.6839083 -11.57593003 65.91469026 -11.80821419 61.14548111 C-12.12101077 54.72208363 -12.43187764 48.29859439 -12.74147606 41.87504196 C-12.8553804 39.51716563 -12.96985908 37.15931696 -13.08495331 34.80149841 C-13.24193313 31.58348855 -13.39681765 28.36538447 -13.55116272 25.14724731 C-13.59717198 24.21387452 -13.64318124 23.28050173 -13.69058472 22.31884491 C-14.39998524 7.3714096 -14.39998524 7.3714096 -11 3 C-7.62367204 -0.4969111 -4.72851776 -0.49773871 0 0 Z " fill="#000000" transform="translate(164,200)"/>
<path d="M0 0 C3.47565519 2.01712132 5.70453512 4.11360536 7 8 C7.04426899 9.75033258 7.02172542 11.50263343 6.96322632 13.25254822 C6.92741266 14.37185761 6.89159901 15.49116701 6.85470009 16.64439487 C6.80774183 17.89990619 6.76078358 19.1554175 6.71240234 20.44897461 C6.66438708 21.81637009 6.61645402 23.18376847 6.56859398 24.5511694 C5.77199068 46.64711959 4.66138793 68.73193453 3.6015625 90.81640625 C3.54348529 92.02848086 3.48540809 93.24055547 3.42557096 94.48935962 C2.87667146 105.94407903 2.32606469 117.39871486 1.77063942 128.85311985 C1.06479204 143.4112957 0.36820829 157.96985229 -0.31605089 172.52905613 C-0.80095959 182.83078917 -1.29614873 193.13199688 -1.79904234 203.43286747 C-2.09813095 209.56470367 -2.39270498 215.69667838 -2.67621994 221.82925606 C-2.94191496 227.57162791 -3.22030645 233.31324277 -3.50855446 239.05452538 C-3.61200939 241.15941639 -3.71083972 243.26454055 -3.8047123 245.36988068 C-3.93346322 248.24175117 -4.07881544 251.11231781 -4.22836304 253.98316956 C-4.26174282 254.81611921 -4.29512261 255.64906887 -4.32951391 256.50725943 C-4.6014434 261.32092826 -5.33612594 264.83755943 -8 269 C-11.12934711 271.08623141 -12.24354287 271.36754564 -15.875 271.5 C-16.71804688 271.5515625 -17.56109375 271.603125 -18.4296875 271.65625 C-21.54875698 270.85989184 -22.97172056 269.41800437 -24.95074093 266.92528582 C-26.99257642 263.17872118 -26.5489738 259.22656536 -26.37461853 255.06781006 C-26.35362372 254.10064049 -26.33262892 253.13347091 -26.3109979 252.13699317 C-26.23588863 249.08967808 -26.12213329 246.04576276 -26 243 C-25.96788209 242.06685628 -25.93576418 241.13371256 -25.90267301 240.17229176 C-25.66993866 233.41632266 -25.34522504 226.66637579 -25.00610352 219.91503906 C-24.89890333 217.70146827 -24.79216701 215.48787496 -24.68585205 213.27426147 C-24.39933285 207.33682084 -24.10624049 201.39972215 -23.81171155 195.46267414 C-23.50298128 189.2189221 -23.19999235 182.97489109 -22.89622498 176.730896 C-22.38619527 166.26442717 -21.8721006 155.79816406 -21.35522461 145.33203125 C-20.82469684 134.58937794 -20.29788598 123.84655077 -19.77514648 113.10351562 C-19.74285494 112.43988857 -19.71056339 111.77626152 -19.67729331 111.09252456 C-19.64505449 110.42997388 -19.61281567 109.76742321 -19.57959992 109.08479524 C-18.95135796 96.17415734 -18.3191674 83.2637148 -17.68579364 70.35332775 C-17.50429818 66.64862512 -17.32351441 62.94388833 -17.14288521 59.23914337 C-16.85885396 53.41775737 -16.5721933 47.59650644 -16.28352356 41.77534866 C-16.17824734 39.64454784 -16.07382491 37.51370464 -15.97033501 35.38281631 C-15.82854586 32.46653423 -15.68359223 29.55042557 -15.53785706 26.63433838 C-15.47802567 25.38150948 -15.47802567 25.38150948 -15.41698557 24.1033709 C-14.50531598 6.15444857 -14.50531598 6.15444857 -11 2 C-7.57080428 -0.57189679 -4.16060514 -0.502142 0 0 Z " fill="#000000" transform="translate(338,200)"/>
<path d="M0 0 C3.8298033 1.7021348 5.44433933 3.15694572 7 7 C7.25299966 9.1453442 7.25299966 9.1453442 7.25726891 11.50750637 C7.2637178 12.41110313 7.27016669 13.31469989 7.276811 14.24567837 C7.2737138 15.23448106 7.2706166 16.22328376 7.26742554 17.24205017 C7.27195665 18.29549655 7.27648776 19.34894293 7.28115618 20.43431193 C7.29384936 23.975702 7.29217664 27.51693926 7.29052734 31.05834961 C7.29650946 33.59266865 7.30331427 36.12698586 7.31088257 38.66130066 C7.32674114 44.83739609 7.33299227 51.01343525 7.33410732 57.18954914 C7.33505749 62.208963 7.33916621 67.22836425 7.34550858 72.24777412 C7.36312118 86.47590194 7.37234728 100.70399958 7.37084763 114.93213838 C7.37076772 115.699208 7.3706878 116.46627763 7.37060547 117.2565918 C7.37052371 118.02459685 7.37044195 118.7926019 7.37035771 119.58387984 C7.36954453 132.03482962 7.38869 144.48565851 7.4168822 156.93657332 C7.44559537 169.718303 7.4594234 182.49997368 7.45769465 195.28173643 C7.45703026 202.45889711 7.46254396 209.63593101 7.48405075 216.81306267 C7.50414125 223.56082408 7.50360501 230.3082729 7.48901749 237.0560627 C7.48691978 239.53569555 7.49168708 242.01534489 7.5037384 244.49494934 C7.51910016 247.8739406 7.50994208 251.25199609 7.49447632 254.63096619 C7.50476344 255.61753816 7.51505057 256.60411013 7.52564943 257.62057823 C7.4817531 261.94552052 7.40824794 264.33906697 5.09409523 268.08556461 C1.58053146 271.29768731 -1.11697013 271.3891419 -5.73828125 271.359375 C-9.32520929 270.78943134 -10.86838894 268.79773951 -13 266 C-14.16068446 263.67863108 -14.12925826 262.34175038 -14.13701439 259.75699997 C-14.14208893 258.8614854 -14.14716347 257.96597084 -14.15239179 257.04331946 C-14.15288955 256.05326415 -14.15338731 255.06320884 -14.15390015 254.04315186 C-14.1582824 252.99620344 -14.16266465 251.94925503 -14.1671797 250.87058091 C-14.18060495 247.33917458 -14.1867549 243.80779322 -14.19287109 240.27636719 C-14.20076908 237.75381862 -14.20903784 235.2312712 -14.21765137 232.70872498 C-14.24163818 225.12178018 -14.25680408 217.5348366 -14.26971143 209.94786584 C-14.27342262 207.80546518 -14.27739591 205.66306518 -14.2814641 203.52066517 C-14.30669995 190.22068107 -14.32875616 176.92069597 -14.34119225 163.62069321 C-14.34412201 160.53928371 -14.34708367 157.45787426 -14.35009766 154.37646484 C-14.35084371 153.61058171 -14.35158976 152.84469858 -14.35235842 152.05560687 C-14.36501353 139.64721981 -14.39823798 127.23897599 -14.43989949 114.8306559 C-14.48230892 102.09532289 -14.50588613 89.36006323 -14.51111281 76.62465978 C-14.51452808 69.47254275 -14.52629662 62.32064957 -14.55921555 55.16860199 C-14.59012821 48.44135283 -14.59563853 41.71456228 -14.58383179 34.9872303 C-14.58361034 32.51607116 -14.59197392 30.04489433 -14.60948563 27.57379723 C-14.63207133 24.20365116 -14.62393008 20.8349347 -14.60800171 17.46478271 C-14.6218838 16.48365029 -14.63576588 15.50251787 -14.65006864 14.49165416 C-14.59798332 10.028286 -14.45108914 6.96207553 -11.58699989 3.40845108 C-7.62845211 -0.27688679 -5.38515242 -0.36509508 0 0 Z " fill="#000000" transform="translate(251,200)"/>
</svg>
