<svg width="25" height="25" viewBox="0 0 25 25" fill="none" xmlns="http://www.w3.org/2000/svg">
<path d="M24.6557 23.1949L17.8385 17.148C20.648 12.9513 20.3588 6.94946 16.8469 3.15884C14.9876 1.12816 12.5086 0 9.86434 0C7.22008 0 4.74108 1.12816 2.88183 3.15884C-0.960611 7.3556 -0.960611 14.2148 2.88183 18.4116C4.74108 20.4422 7.22008 21.5704 9.86434 21.5704C12.3847 21.5704 14.7397 20.5325 16.599 18.6823L23.4988 24.7744C23.6641 24.9097 23.8707 25 24.0773 25C24.3665 25 24.6144 24.8646 24.7796 24.639C25.1102 24.1877 25.0689 23.556 24.6557 23.1949ZM9.86434 19.5397C7.71588 19.5397 5.73268 18.6372 4.20397 16.9675C1.0639 13.5379 1.0639 7.98736 4.20397 4.60289C5.73268 2.93321 7.71588 2.03069 9.86434 2.03069C12.0128 2.03069 13.996 2.93321 15.5247 4.60289C18.6648 8.03249 18.6648 13.583 15.5247 16.9675C14.0373 18.6372 12.0128 19.5397 9.86434 19.5397Z" fill="#637381"/>
</svg>
