<svg width="23" height="23" viewBox="0 0 23 23" fill="none" xmlns="http://www.w3.org/2000/svg">
<path d="M19.7625 0H2.9625C1.35 0 0 1.3125 0 2.9625V19.7625C0 21.375 1.3125 22.6875 2.9625 22.6875H19.7625C21.375 22.6875 22.6875 21.375 22.6875 19.7625V2.925C22.6875 1.3125 21.375 0 19.7625 0ZM1.6875 19.725V2.925C1.6875 2.25 2.25 1.65 2.9625 1.65H5.9625V20.9625H2.9625C2.2875 21 1.6875 20.4 1.6875 19.725ZM21.0375 19.725C21.0375 20.4 20.475 20.9625 19.8 20.9625H7.65V1.65H19.7625C20.4375 1.65 21 2.2125 21 2.925V19.725H21.0375Z" fill="#111928"/>
</svg>
