<?xml version="1.0" encoding="UTF-8"?>
<svg version="1.1" xmlns="http://www.w3.org/2000/svg" width="512" height="512">
<path d="M0 0 C0.90901969 -0.06732647 1.81803938 -0.13465294 2.75460511 -0.20401961 C5.78734505 -0.42419958 8.82077426 -0.63144788 11.85456848 -0.83656311 C13.45464941 -0.94774947 13.45464941 -0.94774947 15.08705521 -1.06118202 C35.76158291 -2.48552989 56.45261877 -3.37973541 77.16419775 -4.05019271 C80.58242915 -4.16106621 84.00051702 -4.27589479 87.41853333 -4.39320374 C88.43831855 -4.42809954 88.43831855 -4.42809954 89.4787055 -4.4637003 C99.62196455 -4.82007142 109.71463882 -5.45876922 119.83259583 -6.25941467 C175.43857193 -10.55268977 229.53908351 -9.10873297 273.84558374 28.67940018 C310.55828093 60.70905912 325.12271824 97.25774678 328.61072727 145.34000823 C331.30068432 185.98875511 329.53949829 226.82348309 327.5910961 267.46305662 C326.8630782 282.8315426 326.38782002 298.19363888 326.07673645 313.57603455 C326.04347894 315.21556908 326.04347894 315.21556908 326.00954957 316.88822552 C325.92128203 321.28467743 325.83469492 325.68115803 325.75028134 330.07768567 C325.09064192 364.42272323 324.18062437 398.75650256 322.7063359 433.07678568 C322.59750303 435.6619257 322.49519269 438.24724611 322.39477539 440.83272552 C322.23853662 444.82673139 322.06391464 448.81950306 321.87414866 452.812053 C321.8081764 454.2513089 321.74787663 455.69083908 321.69399536 457.13059833 C321.21812984 469.59889842 318.71843121 479.84870677 309.66633606 488.86631775 C300.12595252 496.13444028 290.99576033 497.16560489 279.34446716 497.12701416 C278.11553816 497.13083971 276.88660916 497.13466525 275.62043989 497.13860673 C272.22587247 497.14711552 268.83152263 497.14671245 265.43696165 497.14242613 C261.76951691 497.13995358 258.10209732 497.14897964 254.43466187 497.15646362 C247.25613248 497.16919796 240.07764053 497.17100589 232.89910175 497.16866336 C227.06270336 497.16687862 221.22631631 497.16863318 215.38991928 497.1728878 C214.1428004 497.17378059 214.1428004 497.17378059 212.87048721 497.17469141 C211.18133979 497.17590319 209.49219237 497.17711732 207.80304496 497.17833378 C191.97032906 497.18920445 176.13763448 497.18704907 160.30491738 497.18094894 C145.83036876 497.17578023 131.35588745 497.18703484 116.88135214 497.20604715 C102.007821 497.22543332 87.13432169 497.23368019 72.26077783 497.2299239 C63.91485846 497.22801304 55.56899636 497.23048825 47.22308731 497.24463844 C40.11807349 497.25656314 33.01315222 497.25794494 25.9081371 497.24584828 C22.28560582 497.23996721 18.66324373 497.23883863 15.0407238 497.25085068 C11.10778987 497.26374011 7.17511111 497.25322662 3.24217224 497.24053955 C2.10558218 497.24791384 0.96899211 497.25528812 -0.20204008 497.26288587 C-12.26680353 497.18113038 -20.44680093 494.28842313 -29.24382019 486.08506775 C-35.63542129 479.46277192 -38.54170511 472.2474324 -38.47099304 463.01243591 C-38.457901 462.34675598 -38.44480896 461.68107605 -38.43132019 460.995224 C-38.42427063 460.30658264 -38.41722107 459.61794128 -38.40995789 458.90843201 C-38.39172797 457.22763372 -38.36371094 455.54694632 -38.33366394 453.86631775 C-39.25067078 453.89250183 -40.16767761 453.91868591 -41.11247253 453.94566345 C-44.56055328 454.03159354 -48.00747389 454.09390306 -51.45622253 454.14097595 C-52.94013073 454.16590612 -54.42391889 454.199864 -55.90739441 454.24351501 C-65.85992308 454.52873583 -74.51985497 454.24711985 -82.23161316 447.10972595 C-87.75340326 441.30510392 -89.78920559 435.00886825 -89.72807312 427.10647583 C-89.73416422 426.35617688 -89.74025533 425.60587793 -89.74653101 424.83284265 C-89.76309374 422.33497383 -89.75839495 419.83761854 -89.75358582 417.33970642 C-89.76093013 415.5421089 -89.76951741 413.7445161 -89.7792511 411.94692993 C-89.80143928 407.07488567 -89.80439907 402.20301069 -89.80250359 397.33092284 C-89.80238374 393.25804598 -89.81095361 389.1852048 -89.8192811 385.11233789 C-89.83850602 375.49962654 -89.84140253 365.88700203 -89.8346405 356.27427673 C-89.82800239 346.37158715 -89.85085699 336.46927029 -89.88795424 326.56665629 C-89.91868735 318.05260712 -89.93000728 309.53867761 -89.92611742 301.0245741 C-89.92405342 295.94483892 -89.92947511 290.86539374 -89.95401001 285.78571129 C-89.97633387 281.00600935 -89.97435251 276.22691163 -89.95408249 271.4472065 C-89.95068225 269.69854637 -89.95571883 267.94984512 -89.97006607 266.20124054 C-90.05176445 255.5010295 -89.46960456 246.93606575 -82.27116394 238.42881775 C-72.37008216 230.44407438 -63.25140631 230.71619192 -50.89616394 230.80381775 C-49.0834198 230.81058533 -49.0834198 230.81058533 -47.23405457 230.81748962 C-44.26720605 230.8292163 -41.30046124 230.84562879 -38.33366394 230.86631775 C-38.33735111 229.83540355 -38.34103828 228.80448935 -38.34483719 227.74233532 C-38.43370961 202.63614584 -38.49940218 177.5299768 -38.54091263 152.42366314 C-38.5615213 140.28233938 -38.58960962 128.14111965 -38.63542175 115.99986267 C-38.67534125 105.41522377 -38.70110907 94.83066023 -38.71001792 84.24594814 C-38.71522397 78.6435121 -38.727425 73.04129162 -38.75658417 67.43892479 C-38.78383393 62.16040124 -38.79208959 56.88218104 -38.78609467 51.60359383 C-38.78719063 49.67151615 -38.79508725 47.73942781 -38.81048584 45.80741119 C-38.91848258 31.5521964 -38.09382665 20.75056899 -27.69694519 10.03038025 C-19.49170357 2.51682015 -10.83240224 0.74701856 0 0 Z " fill="#E7EBEF" transform="translate(140.3336639404297,7.1336822509765625)"/>
<path d="M0 0 C1.2770772 0.00040686 2.55415441 0.00081373 3.86993092 0.00123292 C7.40351865 0.00256116 10.93706791 0.01024544 14.47064388 0.01904833 C18.28601299 0.02748379 22.10138708 0.03012836 25.91676331 0.03364563 C35.1227406 0.04347199 44.3286871 0.06311076 53.53464511 0.08390638 C57.87327638 0.09350096 62.21190967 0.10206843 66.55054283 0.11075783 C80.97704394 0.14004878 95.40353621 0.17182984 109.83001423 0.21097851 C113.56987822 0.22109828 117.30974222 0.23120984 121.04960632 0.24128723 C121.97908713 0.24379411 122.90856794 0.24630098 123.86621483 0.24888382 C138.92924783 0.28904794 153.99225647 0.31221742 169.05533252 0.32826587 C184.53004148 0.34502182 200.00466273 0.37673001 215.47931165 0.42314988 C224.16394246 0.44883566 232.84848038 0.468021 241.53315163 0.47052574 C248.9273678 0.47270952 256.3213986 0.48847766 263.71554247 0.52185824 C267.48592966 0.53846861 271.25604494 0.54872243 275.02646828 0.54155159 C279.11948232 0.5339487 283.21175039 0.55728989 287.3046875 0.58349609 C288.48865106 0.5764178 289.67261463 0.5693395 290.89245588 0.56204671 C299.17035395 0.65235078 306.34717637 1.94127572 312.96391296 7.18733215 C313.86303406 8.26241028 313.86303406 8.26241028 314.78031921 9.35920715 C315.39778015 10.0656134 316.01524109 10.77201965 316.65141296 11.49983215 C321.51342796 19.00058508 321.77720795 25.82358132 321.73100281 34.53279114 C321.73888824 36.3709137 321.73888824 36.3709137 321.74693298 38.24617004 C321.7578304 41.58730106 321.75533793 44.92787045 321.74579573 48.2689693 C321.73815976 51.77879724 321.74525577 55.28860244 321.74995422 58.7984314 C321.7554011 64.69186165 321.74824909 70.58517886 321.7339325 76.47859192 C321.71761554 83.2735334 321.72289172 90.06820465 321.73941171 96.86313957 C321.75306623 102.71564578 321.75492672 108.56807107 321.7470957 114.42058808 C321.74243991 117.90786255 321.74173602 121.39501041 321.75170517 124.88227654 C321.76205395 128.77369905 321.74767287 132.66482384 321.73100281 136.55622864 C321.7370755 137.69884659 321.74314819 138.84146454 321.74940491 140.01870728 C321.66956697 150.11145843 319.70178937 158.81381341 312.34281921 166.10920715 C306.28534136 170.41461028 300.71924968 172.23553112 293.29224682 172.23225498 C291.79338744 172.23524155 291.79338744 172.23524155 290.26424807 172.23828846 C289.17378296 172.23537562 288.08331786 172.23246278 286.95980835 172.22946167 C285.79580736 172.23031609 284.63180636 172.23117052 283.43253261 172.23205084 C280.20576743 172.23341287 276.97904245 172.23028866 273.75228202 172.22527277 C270.27108314 172.22095362 266.78988612 172.22241574 263.3086853 172.22317505 C257.27862797 172.22369935 251.24858145 172.2205623 245.21852684 172.21493721 C236.50008469 172.20680957 227.78164777 172.20420569 219.06320224 172.20294922 C204.9180423 172.20076069 190.77288813 172.19410599 176.62773132 172.18464661 C162.88717172 172.17546735 149.14661369 172.16838902 135.40605164 172.16413879 C134.55905851 172.16387607 133.71206538 172.16361335 132.8394058 172.16334266 C128.59028274 172.16203762 124.34115968 172.16077392 120.0920366 172.15953076 C84.8422932 172.14916434 49.59255712 172.13127618 14.34281921 172.10920715 C14.34281921 188.93920715 14.34281921 205.76920715 14.34281921 223.10920715 C6.48469421 223.26389465 6.48469421 223.26389465 -1.53218079 223.42170715 C-3.16397278 223.46722717 -4.79576477 223.51274719 -6.477005 223.55964661 C-15.78009627 223.64799235 -23.43826027 222.94440328 -30.55317688 216.35261536 C-36.07850462 210.55163379 -38.1127124 204.25046076 -38.05158997 196.34936523 C-38.05768107 195.59906628 -38.06377217 194.84876733 -38.07004786 194.07573205 C-38.08661059 191.57786323 -38.08191179 189.08050795 -38.07710266 186.58259583 C-38.08444698 184.78499831 -38.09303426 182.9874055 -38.10276794 181.18981934 C-38.12495612 176.31777508 -38.12791592 171.44590009 -38.12602043 166.57381225 C-38.12590059 162.50093539 -38.13447045 158.4280942 -38.14279795 154.35522729 C-38.16202287 144.74251595 -38.16491938 135.12989144 -38.15815735 125.51716614 C-38.15151924 115.61447655 -38.17437384 105.7121597 -38.21147108 95.8095457 C-38.2422042 87.29549652 -38.25352413 78.78156701 -38.24963427 70.26746351 C-38.24757026 65.18772832 -38.25299196 60.10828315 -38.27752686 55.02860069 C-38.29985072 50.24889875 -38.29786935 45.46980103 -38.27759933 40.6900959 C-38.2741991 38.94143577 -38.27923568 37.19273452 -38.29358292 35.44412994 C-38.3752813 24.7439189 -37.7931214 16.17895516 -30.59468079 7.67170715 C-20.92376328 -0.12741987 -12.06031521 -0.04127938 0 0 Z " fill="#69ADFD" transform="translate(88.65718078613281,237.8907928466797)"/>
<path d="M0 0 C3.22061156 1.41849718 5.37622826 3.12513051 7.85980225 5.60583496 C8.61416061 6.35455368 9.36851898 7.1032724 10.14573669 7.87467957 C10.96357132 8.69656265 11.78140594 9.51844574 12.62402344 10.36523438 C13.49267532 11.23038162 14.36132721 12.09552887 15.25630188 12.9868927 C17.63375893 15.35705851 20.006631 17.73163488 22.37726498 20.10861397 C24.85799341 22.59440727 27.34359925 25.07531573 29.82843018 27.55700684 C33.99811226 31.72305207 38.163563 35.89329319 42.32666016 40.06591797 C47.14447226 44.89462836 51.96946649 49.71607219 56.79822707 54.53383207 C60.94208266 58.66862381 65.08204317 62.80728515 69.21874833 66.94923067 C71.69037366 69.42397884 74.16334187 71.89734436 76.63982391 74.36723328 C79.39679873 77.11737983 82.14558534 79.87561921 84.89355469 82.63476562 C85.71948624 83.45664871 86.54541779 84.2785318 87.39637756 85.12532043 C88.13945663 85.87403915 88.88253571 86.62275787 89.64813232 87.39416504 C90.29925365 88.04604042 90.95037498 88.6979158 91.62122726 89.36954498 C93 91 93 91 93 93 C81.61268809 93.11584912 70.22551636 93.20469289 58.83773518 93.25906086 C53.54989622 93.28515488 48.26246043 93.3205498 42.97485352 93.37719727 C37.87199631 93.43152335 32.76952689 93.461422 27.66640282 93.47438622 C25.7195036 93.48362498 23.77262562 93.50166634 21.82589149 93.52865028 C19.09871179 93.56494875 16.37313435 93.56994505 13.64575195 93.56762695 C12.84086334 93.58560333 12.03597473 93.60357971 11.20669556 93.62210083 C7.38088258 93.58691365 5.20395987 93.13542087 1.99511719 91.00488281 C-0.59647773 87.10163388 -0.66878997 83.88380083 -0.56762695 79.35424805 C-0.56872215 78.06568153 -0.56872215 78.06568153 -0.56983948 76.75108337 C-0.56636484 73.92064571 -0.52751033 71.09186776 -0.48828125 68.26171875 C-0.47895267 66.29589232 -0.47183677 64.33005425 -0.46684265 62.36421204 C-0.44777648 57.19688675 -0.39867863 52.03026718 -0.34332275 46.86322021 C-0.29212226 41.58794704 -0.26932688 36.31255954 -0.24414062 31.03710938 C-0.19055979 20.69109664 -0.10525131 10.34560707 0 0 Z " fill="#C7D0DD" transform="translate(367,9)"/>
<path d="M0 0 C3.5214087 2.97695149 5.78045375 6.59117165 8.109375 10.515625 C8.66688446 11.4393692 8.66688446 11.4393692 9.23565674 12.3817749 C10.41257208 14.33462253 11.58137607 16.29218175 12.75 18.25 C13.5502489 19.58104937 14.35102478 20.91178206 15.15234375 22.2421875 C17.10767922 25.49115911 19.05575854 28.74437845 21 32 C23.68653275 28.75873454 25.99100125 25.5201272 28.09375 21.875 C28.64933594 20.92109375 29.20492187 19.9671875 29.77734375 18.984375 C30.34582031 17.99953125 30.91429687 17.0146875 31.5 16 C40.22263109 0.88868445 40.22263109 0.88868445 44 -1 C47.97357645 -1.52981019 49.54170381 -1.31881474 52.875 1 C55.50843774 4.71779446 55.61263332 7.61912405 55 12 C53.51879883 15.3515625 53.51879883 15.3515625 51.45703125 18.625 C51.09155685 19.21619629 50.72608246 19.80739258 50.34953308 20.41650391 C49.1869363 22.28854749 48.00054482 24.14402772 46.8125 26 C46.03417139 27.24376944 45.25746431 28.48855516 44.48242188 29.734375 C38.70775812 38.98294042 38.70775812 38.98294042 36.29833984 42.4453125 C33.62814299 46.28432266 33.62814299 46.28432266 33.15234375 50.81469727 C34.1386118 54.52087218 35.65230853 57.2075287 37.67578125 60.46484375 C38.04221237 61.06124161 38.40864349 61.65763947 38.78617859 62.27210999 C39.95258303 64.16633842 41.13204287 66.05200405 42.3125 67.9375 C43.47919124 69.82118747 44.64314831 71.70654195 45.8066864 73.59217834 C46.86718152 75.30755714 47.9340186 77.01901042 49.0012207 78.73022461 C55.91313674 90.03733239 55.91313674 90.03733239 55 97 C53.5 99.5 53.5 99.5 51 101 C46.10395922 101.8686524 46.10395922 101.8686524 43 101 C37.15873181 95.22464174 33.31158288 88.1741641 29.1875 81.125 C27.85004936 78.85534847 26.50898003 76.58786498 25.16796875 74.3203125 C24.58297607 73.32273926 23.9979834 72.32516602 23.39526367 71.29736328 C22.19441613 69.11530999 22.19441613 69.11530999 21 68 C20.5059668 68.85754883 20.01193359 69.71509766 19.50292969 70.59863281 C17.66047638 73.79292122 15.80974939 76.98235027 13.95654297 80.17041016 C13.15709204 81.54833873 12.35986154 82.92755814 11.56494141 84.30810547 C10.41896925 86.29742135 9.26497304 88.28188907 8.109375 90.265625 C7.75816589 90.87931946 7.40695679 91.49301392 7.04510498 92.12530518 C2.18466073 100.41969949 2.18466073 100.41969949 -2 101.53125 C-5.46545812 101.47710222 -7.4626283 101.34446904 -10.4375 99.4375 C-12.53751547 96.16147586 -12.83923968 93.89438768 -13 90 C-11.81356989 87.24657279 -10.66387365 85.02677143 -9.08203125 82.52734375 C-8.66837814 81.84120499 -8.25472504 81.15506622 -7.82853699 80.44813538 C-6.50743279 78.26663079 -5.16055006 76.10243319 -3.8125 73.9375 C-2.92471365 72.47956077 -2.03862796 71.02058452 -1.15429688 69.56054688 C0.48226597 66.86983055 2.12513347 64.18342949 3.78588867 61.50756836 C4.1516098 60.9146701 4.51733093 60.32177185 4.89413452 59.71090698 C5.97265809 58.04230123 7.16028584 56.44583685 8.34887695 54.85375977 C10.19971171 52.20067383 10.19971171 52.20067383 10.00927734 49.58203125 C8.6352961 46.0669791 6.80811106 42.90005044 4.8515625 39.6875 C4.43836761 38.99615967 4.02517273 38.30481934 3.59945679 37.5925293 C2.28143983 35.39085353 0.95342093 33.19541066 -0.375 31 C-1.26108541 29.52383871 -2.14650914 28.04728004 -3.03125 26.5703125 C-4.66048296 23.85299439 -6.29324284 21.13787826 -7.93115234 18.42578125 C-8.28425476 17.83676025 -8.63735718 17.24773926 -9.00115967 16.64086914 C-9.89912552 15.165714 -10.83524588 13.7139464 -11.77587891 12.265625 C-13.62982027 8.83431749 -13.06802433 6.67133364 -12 3 C-8.25027671 -1.41143916 -5.44353178 -1.58357288 0 0 Z " fill="#FCFDFE" transform="translate(209,274)"/>
<path d="M0 0 C1.87291969 0.00349709 1.87291969 0.00349709 3.78367615 0.00706482 C6.4213501 0.01680272 9.05685159 0.03584388 11.6940918 0.0715332 C15.0690587 0.11685186 18.44325456 0.13156247 21.81849766 0.13527012 C25.04575254 0.14077041 28.27283185 0.1641471 31.5 0.1875 C32.71047501 0.1928627 33.92095001 0.1982254 35.16810608 0.20375061 C36.29284836 0.21973801 37.41759064 0.2357254 38.57641602 0.25219727 C40.05936913 0.26815697 40.05936913 0.26815697 41.57228088 0.28443909 C44.30065515 0.57088371 45.90161346 1.05615646 48.18359375 2.55859375 C50.68391029 6.30906857 50.71962929 8.11715641 50.18359375 12.55859375 C48.30078125 15.265625 48.30078125 15.265625 45.18359375 17.55859375 C41.72310763 18.16176724 38.37014858 18.03182772 34.87109375 17.87109375 C33.47407227 17.83725586 33.47407227 17.83725586 32.04882812 17.80273438 C29.75875415 17.74401453 27.472015 17.66196233 25.18359375 17.55859375 C25.19025558 18.53720871 25.19691742 19.51582367 25.20378113 20.52409363 C25.26461326 29.74952287 25.30957649 38.97491137 25.33903027 48.20049572 C25.35468185 52.94340058 25.3759109 57.68614345 25.40991211 62.42895508 C25.4425236 67.0065959 25.46045059 71.58408096 25.46822548 76.16182899 C25.47376577 77.90773279 25.48458464 79.65362813 25.50078392 81.39946556 C25.52258217 83.84616857 25.5255597 86.29222908 25.52416992 88.73901367 C25.53495575 89.45974564 25.54574158 90.1804776 25.55685425 90.92304993 C25.52994921 95.30453083 24.87803917 98.07438339 22.18359375 101.55859375 C19.0541691 103.12330608 15.57277152 103.25561333 12.18359375 102.55859375 C10.08258057 101.02508545 10.08258057 101.02508545 8.18359375 98.55859375 C7.80938068 95.79209504 7.67604799 93.43024741 7.72949219 90.66894531 C7.72890808 89.87832199 7.72832397 89.08769867 7.72772217 88.27311707 C7.73050476 85.66470142 7.76160392 83.05743428 7.79296875 80.44921875 C7.80043054 78.63890202 7.80612377 76.82857721 7.81011963 75.01824951 C7.82538087 70.2570764 7.86466684 65.49639259 7.90893555 60.7354126 C7.94987772 55.87575906 7.96812839 51.01602635 7.98828125 46.15625 C8.03116066 36.62348312 8.0994179 27.09107915 8.18359375 17.55859375 C7.26078613 17.59001465 7.26078613 17.59001465 6.31933594 17.62207031 C3.52425566 17.70536392 0.7294366 17.75729388 -2.06640625 17.80859375 C-3.03449219 17.84210938 -4.00257812 17.875625 -5 17.91015625 C-12.19423691 18.0093871 -12.19423691 18.0093871 -15.42578125 15.66796875 C-17.79308241 12.07711868 -18.3271897 9.90025307 -17.81640625 5.55859375 C-13.47155721 -1.16221951 -7.38992589 -0.11944416 0 0 Z " fill="#FCFDFE" transform="translate(128.81640625,272.44140625)"/>
<path d="M0 0 C1.86936218 -0.00361794 1.86936218 -0.00361794 3.77648926 -0.00730896 C7.08268124 -0.00607986 10.38768042 0.01895467 13.69366455 0.0524292 C15.71711325 0.06639495 17.7397217 0.06282619 19.76318359 0.05249023 C23.65501228 0.03371783 27.54569195 0.04314286 31.4375 0.0625 C33.24547058 0.0550602 33.24547058 0.0550602 35.08996582 0.04747009 C43.3940107 0.16439862 43.3940107 0.16439862 47.45117188 2.44946289 C49.95912206 5.54179319 50.28814202 7.67356108 50.21875 11.62890625 C48.45233828 14.43080071 47.18825178 16.14415536 44.21875 17.62890625 C42.69726674 17.71263284 41.17219222 17.73620652 39.6484375 17.7265625 C38.75253906 17.72333984 37.85664063 17.72011719 36.93359375 17.71679688 C35.99644531 17.70841797 35.05929687 17.70003906 34.09375 17.69140625 C33.14886719 17.68689453 32.20398438 17.68238281 31.23046875 17.67773438 C28.89316613 17.66592982 26.55598939 17.64946384 24.21875 17.62890625 C24.22763245 18.62004929 24.23651489 19.61119232 24.2456665 20.63237 C24.32677288 29.97549963 24.38672523 39.31855778 24.42599869 48.66195965 C24.44686847 53.46546291 24.47517499 58.26868185 24.52050781 63.07202148 C24.5639873 67.70802922 24.58789169 72.34376358 24.59825897 76.97995949 C24.60564657 78.74821082 24.62007293 80.51644728 24.64167023 82.28458214 C24.67073273 84.76255941 24.6747049 87.23940886 24.67285156 89.7175293 C24.69442322 90.81265335 24.69442322 90.81265335 24.71643066 91.92990112 C24.68710873 95.55607368 24.29868102 97.50480683 22.31536865 100.58406067 C20.21875 102.62890625 20.21875 102.62890625 18.21875 103.2578125 C14.55370696 103.13612162 12.77227925 103.05469798 9.78125 100.75390625 C6.93516046 96.88322448 7.08234633 93.80486266 7.10522461 89.14990234 C7.10507858 88.37907822 7.10493256 87.60825409 7.1047821 86.81407166 C7.10548011 84.26013396 7.11326725 81.70626874 7.12109375 79.15234375 C7.12295833 77.38400309 7.12438204 75.61566192 7.12538147 73.84732056 C7.1292035 69.18825866 7.13903112 64.52922783 7.15008545 59.87017822 C7.16030631 55.11788351 7.16488054 50.36558378 7.16992188 45.61328125 C7.18065366 36.28514258 7.19772633 26.957027 7.21875 17.62890625 C6.63907471 17.65509033 6.05939941 17.68127441 5.4621582 17.70825195 C2.81880125 17.81261237 0.17587801 17.87734952 -2.46875 17.94140625 C-3.83676758 18.00424805 -3.83676758 18.00424805 -5.23242188 18.06835938 C-9.87297283 18.15273303 -12.0590298 18.16398511 -15.88671875 15.328125 C-17.78125 12.62890625 -17.78125 12.62890625 -18.40625 9.12890625 C-17.79846365 5.72530271 -17.18626605 4.01775763 -14.65991211 1.66116333 C-10.28361523 -0.74345398 -4.85325225 -0.0533848 0 0 Z " fill="#FDFEFE" transform="translate(299.78125,272.37109375)"/>
<path d="M0 0 C1.2487793 0.00249756 2.49755859 0.00499512 3.78417969 0.00756836 C5.36618164 0.01667236 6.94818359 0.02577637 8.578125 0.03515625 C16.126875 0.06609375 16.126875 0.06609375 23.828125 0.09765625 C23.828125 16.92765625 23.828125 33.75765625 23.828125 51.09765625 C16.2175 51.25234375 16.2175 51.25234375 8.453125 51.41015625 C6.87354004 51.45567627 5.29395508 51.50119629 3.66650391 51.5480957 C-5.51355513 51.63805076 -13.03392579 50.8248875 -20.06542969 44.35546875 C-24.72357914 39.42920317 -27.29394888 34.04112278 -27.546875 27.22265625 C-27.23140258 18.54716463 -24.25124632 11.34668445 -18.171875 5.09765625 C-12.30681368 0.70520773 -7.16582966 -0.02936815 0 0 Z " fill="#4A84DD" transform="translate(78.171875,409.90234375)"/>
</svg>
