<svg width="45" height="32" viewBox="0 0 45 32" fill="none" xmlns="http://www.w3.org/2000/svg">
<path d="M10.125 31.5C4.53516 31.5 0 26.9648 0 21.375C0 16.9594 2.82656 13.2047 6.76406 11.8195C6.75703 11.6297 6.75 11.4398 6.75 11.25C6.75 5.03437 11.7844 0 18 0C22.1695 0 25.8047 2.26406 27.7523 5.63906C28.8211 4.92188 30.1148 4.5 31.5 4.5C35.2266 4.5 38.25 7.52344 38.25 11.25C38.25 12.1078 38.0883 12.9234 37.8 13.6828C41.9062 14.5125 45 18.1477 45 22.5C45 27.4711 40.9711 31.5 36 31.5H10.125ZM15.6797 16.2422C15.0188 16.9031 15.0188 17.9719 15.6797 18.6258C16.3406 19.2797 17.4094 19.2867 18.0633 18.6258L20.8055 15.8836V25.3125C20.8055 26.2477 21.5578 27 22.493 27C23.4281 27 24.1805 26.2477 24.1805 25.3125V15.8836L26.9227 18.6258C27.5836 19.2867 28.6523 19.2867 29.3062 18.6258C29.9602 17.9648 29.9672 16.8961 29.3062 16.2422L23.6812 10.6172C23.0203 9.95625 21.9516 9.95625 21.2977 10.6172L15.6727 16.2422H15.6797Z" fill="#9CA3AF"/>
</svg>
