<?xml version="1.0" encoding="UTF-8"?>
<svg version="1.1" xmlns="http://www.w3.org/2000/svg" width="512" height="512">
<path d="M0 0 C0.74507813 0.63035156 1.49015625 1.26070312 2.2578125 1.91015625 C2.92039062 2.42707031 3.58296875 2.94398437 4.265625 3.4765625 C22.79139324 18.439683 35.29669807 43.62947981 38.046875 67.09765625 C40.01999818 102.76003083 31.78998852 132.58014668 17.2578125 164.91015625 C18.56878906 165.29880859 18.56878906 165.29880859 19.90625 165.6953125 C38.27242841 172.35251703 53.2535771 190.5388267 61.50292969 207.52124023 C71.29157894 228.93702868 73.24922641 254.56574235 65.2578125 276.91015625 C64.9071875 277.94398438 64.5565625 278.9778125 64.1953125 280.04296875 C59.49834265 292.53560384 51.64008112 303.51145634 42.2578125 312.91015625 C41.57332031 313.60625 40.88882812 314.30234375 40.18359375 315.01953125 C23.3606901 331.06503639 0.11833322 338.0976579 -22.64428711 338.02368164 C-24.41609344 338.02390068 -24.41609344 338.02390068 -26.22369385 338.02412415 C-29.4442686 338.02354907 -32.66479924 338.01855231 -35.88536525 338.01155019 C-39.25793053 338.00527614 -42.63049679 338.00470965 -46.00306702 338.00352478 C-52.38125788 338.00042337 -58.7594315 337.9922261 -65.13761479 337.98217529 C-73.11582842 337.96987748 -81.09404488 337.96442218 -89.07226562 337.95898438 C-103.29558634 337.94925995 -117.51886943 337.9292252 -131.7421875 337.91015625 C-131.7421875 303.59015625 -131.7421875 269.27015625 -131.7421875 233.91015625 C-127.25855693 234.65742801 -124.10794207 235.39273025 -120.00390625 237.01171875 C-118.93591797 237.4190625 -117.86792969 237.82640625 -116.76757812 238.24609375 C-114.549864 239.10255444 -112.33624152 239.96968948 -110.12695312 240.84765625 C-103.82148925 243.22879354 -98.37077343 245.04450519 -91.7421875 242.91015625 C-87.95380622 240.71394117 -85.37808793 237.98516948 -83.7421875 233.91015625 C-83.31485619 231.36723138 -83.31485619 231.36723138 -83.3046875 228.66015625 C-83.26472656 227.768125 -83.22476562 226.87609375 -83.18359375 225.95703125 C-84.60917815 218.18111632 -90.5744104 212.65061397 -96.0546875 207.34765625 C-96.99344727 206.41663086 -96.99344727 206.41663086 -97.95117188 205.46679688 C-101.01767653 202.45061435 -104.13749993 199.54806326 -107.4140625 196.76171875 C-111.08353078 193.58811251 -114.49328769 190.20460285 -117.89453125 186.75 C-118.44369705 186.19297897 -118.99286285 185.63595795 -119.55867004 185.0620575 C-121.84235113 182.74190847 -124.12322248 180.41917586 -126.39428711 178.08666992 C-138.31872324 165.00471103 -138.31872324 165.00471103 -154.4296875 159.59765625 C-169.84627044 159.90910237 -181.84023634 176.87215469 -191.9921875 187.16015625 C-203.71418643 199.03707147 -203.71418643 199.03707147 -210.00830078 204.41650391 C-212.62686525 206.67225967 -215.08936413 209.04965603 -217.5546875 211.47265625 C-218.46863281 212.36082031 -219.38257813 213.24898437 -220.32421875 214.1640625 C-225.14361336 219.6374622 -226.30075537 224.16701579 -226.09765625 231.28515625 C-225.47196197 235.90566787 -223.11974461 238.43055787 -220.0546875 241.72265625 C-215.14510146 244.24379502 -210.6759546 244.41231673 -205.43188477 243.05053711 C-201.70897085 241.77410224 -198.03284646 240.40280079 -194.3671875 238.97265625 C-191.86210826 238.01859685 -189.35315438 237.07550586 -186.84375 236.1328125 C-185.74369629 235.70750244 -184.64364258 235.28219238 -183.51025391 234.84399414 C-180.7421875 233.91015625 -180.7421875 233.91015625 -177.7421875 233.91015625 C-177.7421875 268.23015625 -177.7421875 302.55015625 -177.7421875 337.91015625 C-207.37851215 338.03064726 -207.37851215 338.03064726 -222.10189533 338.06091785 C-230.03925833 338.07749033 -237.97652591 338.09847253 -245.91381836 338.13647461 C-252.20183716 338.16656572 -258.48978369 338.18577553 -264.7778725 338.19242173 C-268.10122676 338.19630104 -271.42421211 338.20691058 -274.74752998 338.22734642 C-301.42543117 338.38476661 -301.42543117 338.38476661 -313.7421875 334.91015625 C-314.92477646 334.58411156 -314.92477646 334.58411156 -316.1312561 334.2514801 C-338.45650905 327.49700793 -357.75878568 311.10973929 -368.9921875 290.78515625 C-380.0555468 269.89341729 -382.73792059 243.04083994 -376.07250977 220.38378906 C-371.68487697 206.97113995 -364.87280626 195.60039978 -355.7421875 184.91015625 C-355.18144531 184.24757813 -354.62070312 183.585 -354.04296875 182.90234375 C-346.33801044 174.55692291 -335.28118398 167.04736561 -324.7421875 162.91015625 C-324.0821875 162.91015625 -323.4221875 162.91015625 -322.7421875 162.91015625 C-322.76313477 162.27215088 -322.78408203 161.63414551 -322.80566406 160.97680664 C-323.49018722 136.85169778 -320.35213462 114.63119977 -303.7421875 95.91015625 C-303.29746094 95.32492188 -302.85273438 94.7396875 -302.39453125 94.13671875 C-291.07703303 79.55265399 -272.17422263 71.48118389 -254.453125 68.32421875 C-238.65358569 66.56132279 -222.78906221 67.62652086 -207.7421875 72.91015625 C-207.5359375 71.61078125 -207.3296875 70.31140625 -207.1171875 68.97265625 C-200.82941265 38.3089871 -182.02793096 10.18708139 -156.05395508 -7.24511719 C-109.18996091 -37.23896813 -43.3676937 -36.18622673 0 0 Z " fill="#74B5FF" transform="translate(410.7421875,101.08984375)"/>
<path d="M0 0 C1.5617723 0.00724759 3.12366865 0.05262437 4.68359375 0.12890625 C5.94018799 0.16334839 5.94018799 0.16334839 7.22216797 0.19848633 C37.13447044 1.36916209 65.16221128 11.26771503 88.12109375 30.69140625 C88.78367187 31.20832031 89.44625 31.72523437 90.12890625 32.2578125 C108.65467449 47.220933 121.15997932 72.41072981 123.91015625 95.87890625 C125.82303846 130.45248099 118.96136523 161.82047716 103.12109375 192.69140625 C71.56004967 194.22060892 40.96082048 179.66243377 17.12109375 159.69140625 C16.5389209 159.20559082 15.95674805 158.71977539 15.35693359 158.21923828 C-0.13109364 145.09104074 -12.1954826 128.51303038 -19.87890625 109.69140625 C-20.23726563 108.84449219 -20.595625 107.99757813 -20.96484375 107.125 C-31.26810531 81.13444171 -28.30912031 52.12048276 -17.87890625 26.69140625 C-14.82523707 19.8837196 -11.46084943 13.23485301 -7.87890625 6.69140625 C-7.29496094 5.52222656 -6.71101563 4.35304688 -6.109375 3.1484375 C-3.87890625 0.69140625 -3.87890625 0.69140625 0 0 Z " fill="#488BFF" transform="translate(324.87890625,72.30859375)"/>
</svg>
