<svg width="24" height="24" viewBox="0 0 24 24" fill="none" xmlns="http://www.w3.org/2000/svg">
<g clip-path="url(#clip0_8152_4469)">
<path d="M13.3883 11.2873C13.1633 11.2873 12.9383 11.2123 12.7883 11.0248C12.4508 10.6873 12.4508 10.1623 12.7883 9.82481L20.2883 2.3248H16.2758C15.8258 2.3248 15.4508 1.9498 15.4508 1.4998C15.4508 1.0498 15.8258 0.674805 16.2758 0.674805H22.3508C22.8008 0.674805 23.1758 1.0498 23.1758 1.4998V7.2373C23.1758 7.6873 22.8008 8.0623 22.3508 8.0623C21.9008 8.0623 21.5258 7.6873 21.5258 7.2373V3.5248L14.0258 11.0248C13.8383 11.1748 13.6133 11.2873 13.3883 11.2873Z" fill="#A6A6A6"/>
<path d="M7.72422 23.3247H1.64922C1.19922 23.3247 0.824219 22.9497 0.824219 22.4997V16.7622C0.824219 16.3122 1.19922 15.9372 1.64922 15.9372C2.09922 15.9372 2.47422 16.3122 2.47422 16.7622V20.4372L9.97422 12.9372C10.3117 12.5997 10.8367 12.5997 11.1742 12.9372C11.5117 13.2747 11.5117 13.7997 11.1742 14.1372L3.67422 21.6372H7.68672C8.13672 21.6372 8.51172 22.0122 8.51172 22.4622C8.51172 22.9122 8.17422 23.3247 7.72422 23.3247Z" fill="#A6A6A6"/>
</g>
<defs>
<clipPath id="clip0_8152_4469">
<rect width="24" height="24" fill="white"/>
</clipPath>
</defs>
</svg>
