<svg width="23" height="23" viewBox="0 0 23 23" fill="none" xmlns="http://www.w3.org/2000/svg">
<path d="M12.5641 10.6125C12.3391 10.6125 12.1141 10.5375 11.9641 10.35C11.6266 10.0125 11.6266 9.4875 11.9641 9.15L19.4641 1.65H15.4516C15.0016 1.65 14.6266 1.275 14.6266 0.825C14.6266 0.375 15.0016 0 15.4516 0H21.5266C21.9766 0 22.3516 0.375 22.3516 0.825V6.5625C22.3516 7.0125 21.9766 7.3875 21.5266 7.3875C21.0766 7.3875 20.7016 7.0125 20.7016 6.5625V2.85L13.2016 10.35C13.0141 10.5 12.7891 10.6125 12.5641 10.6125Z" fill="#A6A6A6"/>
<path d="M6.9 22.6499H0.825C0.375 22.6499 0 22.2749 0 21.8249V16.0874C0 15.6374 0.375 15.2624 0.825 15.2624C1.275 15.2624 1.65 15.6374 1.65 16.0874V19.7624L9.15 12.2624C9.4875 11.9249 10.0125 11.9249 10.35 12.2624C10.6875 12.5999 10.6875 13.1249 10.35 13.4624L2.85 20.9624H6.8625C7.3125 20.9624 7.6875 21.3374 7.6875 21.7874C7.6875 22.2374 7.35 22.6499 6.9 22.6499Z" fill="#A6A6A6"/>
</svg>
