<svg width="15" height="16" viewBox="0 0 15 16" fill="none" xmlns="http://www.w3.org/2000/svg">
<path d="M11.7188 4H4.78125C3.79749 4 3 4.79749 3 5.78125V12.7188C3 13.7025 3.79749 14.5 4.78125 14.5H11.7188C12.7025 14.5 13.5 13.7025 13.5 12.7188V5.78125C13.5 4.79749 12.7025 4 11.7188 4Z" stroke="currentColor" stroke-linejoin="round"/>
<path d="M10.9844 4L11 3.25C10.9987 2.78628 10.8139 2.34192 10.486 2.01402C10.1581 1.68612 9.71372 1.50132 9.25 1.5H2.5C1.97005 1.50157 1.46225 1.71278 1.08752 2.08752C0.712783 2.46225 0.501566 2.97005 0.5 3.5V10.25C0.501319 10.7137 0.686117 11.1581 1.01402 11.486C1.34192 11.8139 1.78628 11.9987 2.25 12H3" stroke="currentColor" stroke-linecap="round" stroke-linejoin="round"/>
</svg>
