<svg width="14" height="14" viewBox="0 0 14 14" fill="none" xmlns="http://www.w3.org/2000/svg">
<path d="M2.125 8.75H1.5C1.16848 8.75 0.850537 8.6183 0.616116 8.38388C0.381696 8.14946 0.25 7.83152 0.25 7.5V1.875C0.25 1.54348 0.381696 1.22554 0.616116 0.991116C0.850537 0.756696 1.16848 0.625 1.5 0.625H7.125C7.45652 0.625 7.77446 0.756696 8.00888 0.991116C8.2433 1.22554 8.375 1.54348 8.375 1.875V2.5M5.875 5H11.5C12.1904 5 12.75 5.55964 12.75 6.25V11.875C12.75 12.5654 12.1904 13.125 11.5 13.125H5.875C5.18464 13.125 4.625 12.5654 4.625 11.875V6.25C4.625 5.55964 5.18464 5 5.875 5Z" stroke="#1E1E1E" stroke-width="1.25" stroke-linecap="round" stroke-linejoin="round"/>
</svg>
