<svg width="14" height="14" viewBox="0 0 14 14" fill="none" xmlns="http://www.w3.org/2000/svg">
<path d="M13.6641 6.67969L12.9609 2.32031C12.7969 0.960937 11.8125 0.140625 10.3359 0.140625H4.92188C4.64062 0.140625 4.35938 0.1875 4.10156 0.304688C4.03125 0.117187 3.84375 0 3.60938 0H1.21875C0.539062 0 0 0.5625 0 1.21875V7.80469C0 8.48438 0.5625 9.02344 1.21875 9.02344H3.60938C3.84375 9.02344 4.03125 8.88281 4.10156 8.69531C4.61719 8.95313 5.34375 9.46875 5.34375 10.3594V12.5859C5.34375 12.9609 5.57813 13.2891 5.92969 13.3828C5.92969 13.3828 6.32812 13.5234 6.84375 13.5234C7.40625 13.5234 7.875 13.3828 8.27344 13.1016C8.90625 12.6328 9.21094 11.9062 9.21094 10.8984V9.44531H11.4375C11.9766 9.44531 12.4922 9.25781 12.9141 8.90625C13.5 8.29688 13.8047 7.47656 13.6641 6.67969ZM3.09375 7.94531H1.21875C1.125 7.94531 1.03125 7.875 1.03125 7.75781V1.19531C1.03125 1.10156 1.125 1.03125 1.21875 1.03125H3.09375V7.94531ZM12.2109 8.01562C11.9766 8.20312 11.6953 8.32031 11.4141 8.32031H9.09375C8.55469 8.32031 8.13281 8.74219 8.13281 9.28125V10.8281C8.13281 11.4844 7.96875 11.9531 7.61719 12.1875C7.40625 12.3281 7.14844 12.4219 6.82031 12.4219C6.65625 12.4219 6.49219 12.3984 6.39844 12.375V10.3125C6.39844 8.76562 5.08594 7.875 4.14844 7.52344V1.45312C4.35938 1.28906 4.64062 1.17188 4.92188 1.17188H10.3594C11.0156 1.17188 11.8125 1.38281 11.9531 2.46094L12.6562 6.82031C12.7031 7.28906 12.5391 7.73438 12.2109 8.01562Z" fill="#111928"/>
</svg>
