<svg width="56" height="44" viewBox="0 0 56 44" fill="none" xmlns="http://www.w3.org/2000/svg">
<path d="M55.0349 23.4152L51.1631 19.4512V15.9481C51.7162 15.3028 52.0849 14.4732 52.0849 13.5513C52.0849 12.1685 51.3474 10.9701 50.0568 10.417L27.4713 0.276557C26.6417 -0.0921857 25.6276 -0.0921857 24.7058 0.276557L2.02809 10.3248C0.829671 10.8779 0 12.0763 0 13.4591C0 14.8419 0.829671 16.0403 2.02809 16.5934L9.77168 20.0965V30.9744C9.77168 37.7039 15.2106 43.1429 21.848 43.1429H30.2369C36.9665 43.1429 42.3132 37.7039 42.3132 30.9744V20.2809L46.7381 18.2528L47.0147 18.1606V19.6356L43.3273 23.4152C42.3132 24.4292 42.3132 25.9964 43.3273 27.0104L47.2913 31.1588C47.7522 31.6197 48.3975 31.8962 49.135 31.8962C49.7803 31.8962 50.5178 31.6197 50.9787 31.1588L54.9427 27.0104C55.9567 25.9964 55.9567 24.4292 55.0349 23.4152ZM38.1649 30.9744C38.1649 35.3993 34.5696 38.9945 30.2369 38.9945H21.848C17.4231 38.9945 13.92 35.3993 13.92 30.9744V22.0324L24.8901 27.0104C25.3511 27.1948 25.812 27.287 26.2729 27.287C26.7338 27.287 27.1948 27.1948 27.6557 27.0104L38.1649 22.3089V30.9744ZM26.2729 22.9542L5.1624 13.4591L26.0886 4.24054L46.9225 13.6435L26.2729 22.9542ZM49.135 27.1026L47.2913 25.2589L49.135 23.4152L50.9787 25.2589L49.135 27.1026Z" fill="white"/>
</svg>
