<svg width="14" height="14" viewBox="0 0 14 14" fill="none" xmlns="http://www.w3.org/2000/svg">
<path d="M12.8906 4.61719C12.4687 4.26562 11.9531 4.07812 11.4141 4.07812H9.1875V2.625C9.1875 1.61719 8.88281 0.867187 8.25 0.421875C7.85156 0.140625 7.38281 0 6.82031 0C6.30469 0 5.92969 0.117187 5.92969 0.117187C5.57812 0.210937 5.34375 0.5625 5.34375 0.914062V3.14062C5.34375 4.03125 4.61719 4.54687 4.10156 4.80469C4.03125 4.61719 3.84375 4.47656 3.60938 4.47656H1.21875C0.539062 4.47656 0 5.03906 0 5.69531V12.2812C0 12.9609 0.5625 13.5 1.21875 13.5H3.60938C3.82031 13.5 4.00781 13.3594 4.10156 13.1953C4.35937 13.2891 4.64062 13.3594 4.92187 13.3594H10.3594C11.8359 13.3594 12.8203 12.5391 12.9844 11.1797L13.6875 6.82031C13.8047 5.97656 13.5 5.15625 12.8906 4.61719ZM3.09375 12.4219H1.21875C1.125 12.4219 1.03125 12.3516 1.03125 12.2344V5.67188C1.03125 5.57812 1.10156 5.48438 1.21875 5.48438H3.09375V12.4219ZM12.6328 6.60937L11.9297 10.9922C11.7891 12.0469 10.9922 12.2578 10.3594 12.2578H4.92187C4.64062 12.2578 4.38281 12.1641 4.14844 11.9766V5.92969C5.08594 5.57812 6.39844 4.6875 6.39844 3.14062V1.07812C6.49219 1.05469 6.65625 1.03125 6.82031 1.03125C7.14844 1.03125 7.40625 1.10156 7.61719 1.26562C7.94531 1.52344 8.13281 1.96875 8.13281 2.625V4.17188C8.13281 4.71094 8.55469 5.13281 9.09375 5.13281H11.4141C11.6953 5.13281 11.9766 5.25 12.2109 5.4375C12.5391 5.71875 12.7031 6.16406 12.6328 6.60937Z" fill="#111928"/>
</svg>
