<svg width="19" height="18" viewBox="0 0 19 18" fill="none" xmlns="http://www.w3.org/2000/svg">
<path fill-rule="evenodd" clip-rule="evenodd" d="M8.277 1.781C8.64237 1.23301 9.13741 0.78372 9.71815 0.473025C10.2989 0.162331 10.9474 -0.000153281 11.606 1.08502e-07H11.819C12.1095 -3.55996e-05 12.3965 0.0632143 12.6601 0.185351C12.9237 0.307487 13.1575 0.485577 13.3453 0.707235C13.533 0.928892 13.6703 1.1888 13.7474 1.46887C13.8246 1.74894 13.8398 2.04245 13.792 2.329L13.18 6H15.56C16.0038 5.99997 16.4422 6.09843 16.8434 6.28827C17.2445 6.47811 17.5986 6.75461 17.88 7.09782C18.1615 7.44104 18.3632 7.84242 18.4708 8.27304C18.5783 8.70365 18.589 9.15277 18.502 9.588L17.302 15.588C17.166 16.2682 16.7986 16.8802 16.2622 17.32C15.7258 17.7597 15.0536 18 14.36 18H3C2.20435 18 1.44129 17.6839 0.87868 17.1213C0.316071 16.5587 0 15.7956 0 15V7C0 6.73478 0.105357 6.48043 0.292893 6.29289C0.48043 6.10536 0.734784 6 1 6H4.93C5.09459 6.00002 5.25665 5.95942 5.40178 5.88179C5.54692 5.80417 5.67065 5.69192 5.762 5.555L8.277 1.781ZM4 8H2V15C2 15.2652 2.10536 15.5196 2.29289 15.7071C2.48043 15.8946 2.73478 16 3 16H4V8Z" fill="currentColor"/>
</svg>
