<svg width="20" height="19" viewBox="0 0 20 19" fill="none" xmlns="http://www.w3.org/2000/svg">
<path d="M17.0266 1.25L15.3599 2.91667M15.3599 2.91667L17.8599 5.41667L14.9433 8.33333L12.4433 5.83333M15.3599 2.91667L12.4433 5.83333M9.01826 9.25833C9.44855 9.68289 9.7906 10.1884 10.0247 10.7457C10.2589 11.303 10.3804 11.9011 10.3825 12.5055C10.3845 13.11 10.2669 13.7089 10.0365 14.2678C9.80614 14.8266 9.46748 15.3344 9.04005 15.7618C8.61262 16.1892 8.10486 16.5279 7.54602 16.7583C6.98717 16.9886 6.38826 17.1062 5.78379 17.1042C5.17932 17.1022 4.58122 16.9806 4.02392 16.7465C3.46663 16.5123 2.96115 16.1703 2.5366 15.74C1.7017 14.8756 1.23973 13.7178 1.25017 12.5161C1.26062 11.3143 1.74264 10.1648 2.59243 9.315C3.44221 8.46521 4.59177 7.98319 5.79351 7.97274C6.99524 7.9623 8.153 8.42428 9.01743 9.25917L9.01826 9.25833ZM9.01826 9.25833L12.4433 5.83333" stroke="#F59E0B" stroke-width="2.5" stroke-linecap="round" stroke-linejoin="round"/>
</svg>
