<svg width="21" height="16" viewBox="0 0 21 16" fill="none" xmlns="http://www.w3.org/2000/svg">
<path d="M3.11836 6.74297L0 12.0867V2.25C0 1.00898 1.00898 0 2.25 0H6.38086C6.97852 0 7.55156 0.235547 7.97344 0.657422L8.90508 1.58906C9.32695 2.01094 9.9 2.24648 10.4977 2.24648H14.625C15.866 2.24648 16.875 3.25547 16.875 4.49648V5.62148H5.0625C4.26094 5.62148 3.52266 6.04688 3.11836 6.73945V6.74297ZM4.08867 7.30898C4.29258 6.96094 4.66172 6.75 5.0625 6.75H19.125C19.5293 6.75 19.8984 6.96445 20.0988 7.31602C20.2992 7.66758 20.2992 8.09649 20.0953 8.44453L16.1578 15.1945C15.9574 15.5391 15.5883 15.75 15.1875 15.75H1.125C0.720703 15.75 0.351562 15.5355 0.151172 15.184C-0.0492187 14.8324 -0.0492188 14.4035 0.154688 14.0555L4.09219 7.30547L4.08867 7.30898Z" fill="#003087"/>
</svg>
