<svg width="23" height="18" viewBox="0 0 23 18" fill="none" xmlns="http://www.w3.org/2000/svg">
<path d="M7.31288 12.375C11.3523 12.375 14.6254 9.60469 14.6254 6.1875C14.6254 2.77031 11.3523 0 7.31288 0C3.27343 0 0.000384766 2.77031 0.000384766 6.1875C0.000384766 7.54453 0.517182 8.79961 1.39257 9.82266C1.26953 10.1531 1.08671 10.4449 0.893354 10.691C0.724603 10.909 0.552338 11.0777 0.425775 11.1937C0.362494 11.25 0.30976 11.2957 0.274604 11.3238C0.257025 11.3379 0.242963 11.3484 0.235932 11.352L0.2289 11.359C0.035541 11.5031 -0.048834 11.7562 0.0285098 11.9848C0.105854 12.2133 0.320307 12.375 0.562885 12.375C1.32929 12.375 2.10273 12.1781 2.74609 11.9355C3.06953 11.8125 3.37187 11.6754 3.63554 11.5348C4.71484 12.0691 5.96992 12.375 7.31288 12.375ZM15.7504 6.1875C15.7504 10.1355 12.2664 13.1098 8.13906 13.4648C8.99335 16.0805 11.8269 18 15.1879 18C16.5309 18 17.7859 17.6941 18.8687 17.1598C19.1324 17.3004 19.4312 17.4375 19.7547 17.5605C20.398 17.8031 21.1715 18 21.9379 18C22.1805 18 22.3984 17.8418 22.4723 17.6098C22.5461 17.3777 22.4652 17.1246 22.2684 16.9805L22.2613 16.9734C22.2543 16.9664 22.2402 16.9594 22.2226 16.9453C22.1875 16.9172 22.1348 16.875 22.0715 16.8152C21.9449 16.6992 21.7726 16.5305 21.6039 16.3125C21.4105 16.0664 21.2277 15.7711 21.1047 15.4441C21.9801 14.4246 22.4969 13.1695 22.4969 11.809C22.4969 8.54648 19.5121 5.87109 15.7258 5.63906C15.7398 5.81836 15.7469 6.00117 15.7469 6.18398L15.7504 6.1875Z" fill="#003087"/>
</svg>
