<svg width="12" height="12" viewBox="0 0 12 12" fill="none" xmlns="http://www.w3.org/2000/svg">
<path d="M0 1.5C0 0.672656 0.672656 0 1.5 0H5.25V3C5.25 3.41484 5.58516 3.75 6 3.75H9V7.125H4.125C3.29766 7.125 2.625 7.79766 2.625 8.625V12H1.5C0.672656 12 0 11.3273 0 10.5V1.5ZM9 3H6V0L9 3ZM4.125 8.25H4.875C5.59922 8.25 6.1875 8.83828 6.1875 9.5625C6.1875 10.2867 5.59922 10.875 4.875 10.875H4.5V11.625C4.5 11.8313 4.33125 12 4.125 12C3.91875 12 3.75 11.8313 3.75 11.625V10.5V8.625C3.75 8.41875 3.91875 8.25 4.125 8.25ZM4.875 10.125C5.18672 10.125 5.4375 9.87422 5.4375 9.5625C5.4375 9.25078 5.18672 9 4.875 9H4.5V10.125H4.875ZM7.125 8.25H7.875C8.49609 8.25 9 8.75391 9 9.375V10.875C9 11.4961 8.49609 12 7.875 12H7.125C6.91875 12 6.75 11.8313 6.75 11.625V8.625C6.75 8.41875 6.91875 8.25 7.125 8.25ZM7.875 11.25C8.08125 11.25 8.25 11.0813 8.25 10.875V9.375C8.25 9.16875 8.08125 9 7.875 9H7.5V11.25H7.875ZM9.75 8.625C9.75 8.41875 9.91875 8.25 10.125 8.25H11.25C11.4563 8.25 11.625 8.41875 11.625 8.625C11.625 8.83125 11.4563 9 11.25 9H10.5V9.75H11.25C11.4563 9.75 11.625 9.91875 11.625 10.125C11.625 10.3313 11.4563 10.5 11.25 10.5H10.5V11.625C10.5 11.8313 10.3313 12 10.125 12C9.91875 12 9.75 11.8313 9.75 11.625V10.125V8.625Z" fill="#6B7280"/>
</svg>
